SplineFontDB: 3.0
FontName: FreeSerifBold
FullName: FreeSerif Bold
FamilyName: FreeSerif
Weight: Bold
Copyright: Copyright 2002, 2003, 2005, 2008, 2009, 2010, 2012 GNU Freefont contributors.
Version: 0412.2268
ItalicAngle: 0
UnderlinePosition: -100
UnderlineWidth: 50
Ascent: 800
Descent: 200
sfntRevision: 0x019c3a1d
LayerCount: 2
Layer: 0 1 "Back"  1
Layer: 1 1 "Fore"  0
XUID: [1021 905 1579682281 1061216]
FSType: 0
OS2Version: 3
OS2_WeightWidthSlopeOnly: 0
OS2_UseTypoMetrics: 1
CreationTime: 1203284335
ModificationTime: 1430336554
PfmFamily: 17
TTFWeight: 700
TTFWidth: 5
LineGap: 100
VLineGap: 0
Panose: 2 2 8 3 7 5 5 2 3 4
OS2TypoAscent: 800
OS2TypoAOffset: 0
OS2TypoDescent: -200
OS2TypoDOffset: 0
OS2TypoLinegap: 100
OS2WinAscent: 900
OS2WinAOffset: 0
OS2WinDescent: 300
OS2WinDOffset: 0
HheadAscent: 900
HheadAOffset: 0
HheadDescent: -200
HheadDOffset: 0
OS2SubXSize: 650
OS2SubYSize: 600
OS2SubXOff: 0
OS2SubYOff: 200
OS2SupXSize: 650
OS2SupYSize: 699
OS2SupXOff: 0
OS2SupYOff: 390
OS2StrikeYSize: 49
OS2StrikeYPos: 258
OS2FamilyClass: 261
OS2Vendor: 'GNU '
OS2CodePages: 600101ff.ffff0000
OS2UnicodeRanges: e502afff.c20079ff.00001328.00000040
Lookup: 2 0 0 "Multiple Substitution lookup 0"  {"Multiple Substitution lookup 0 subtable"  } []
Lookup: 1 0 0 "'smcp' Lowercase to Small Capitals in Latin lookup 1"  {"'smcp' Lowercase to Small Capitals in Latin lookup 1 subtable"  } ['smcp' ('latn' <'TRK ' > ) ]
Lookup: 1 0 0 "'smcp' Lowercase to Small Capitals in Latin lookup 2"  {"'smcp' Lowercase to Small Capitals in Latin lookup 2 subtable"  } ['smcp' ('latn' <'dflt' > ) ]
Lookup: 1 0 0 "'c2sc' Capitals to Small Capitals in Latin lookup 3"  {"'c2sc' Capitals to Small Capitals in Latin lookup 3 subtable"  } ['c2sc' ('latn' <'TRK ' > ) ]
Lookup: 1 0 0 "'c2sc' Capitals to Small Capitals in Latin lookup 4"  {"'c2sc' Capitals to Small Capitals in Latin lookup 4 subtable"  } ['c2sc' ('latn' <'dflt' > ) ]

StartChar: exclam
Encoding: 33 33 1
Width: 333
GlyphClass: 2
Flags: W
LayerCount: 2
Fore
SplineSet
166 156 m 0,0,1
 201 156 201 156 226 130.5 c 128,-1,2
 251 105 251 105 251 70 c 128,-1,3
 251 35 251 35 226 11 c 128,-1,4
 201 -13 201 -13 165 -13 c 0,5,6
 130 -13 130 -13 106 11.5 c 128,-1,7
 82 36 82 36 82 72 c 0,8,9
 82 106 82 106 107 131 c 128,-1,10
 132 156 132 156 166 156 c 0,0,1
250 589 m 0,11,12
 250 558 250 558 239 526.5 c 128,-1,13
 228 495 228 495 210 422.5 c 128,-1,14
 192 350 192 350 180 234 c 1,15,-1
 151 234 l 1,16,17
 139 345 139 345 121.5 419 c 128,-1,18
 104 493 104 493 92.5 527.5 c 128,-1,19
 81 562 81 562 81 591 c 0,20,21
 81 638 81 638 103.5 664.5 c 128,-1,22
 126 691 126 691 166 691 c 128,-1,23
 206 691 206 691 228 664.5 c 128,-1,24
 250 638 250 638 250 589 c 0,11,12
EndSplineSet
Substitution2: "'locl' Localized Forms lookup 80 subtable" indic_exclam
EndChar

StartChar: quotedbl
Encoding: 34 34 2
Width: 555
GlyphClass: 2
Flags: W
LayerCount: 2
Fore
SplineSet
127 404 m 1,0,1
 125 413 125 413 111 471.5 c 128,-1,2
 97 530 97 530 90 566.5 c 128,-1,3
 83 603 83 603 83 620 c 0,4,5
 83 652 83 652 100.5 671.5 c 128,-1,6
 118 691 118 691 147 691 c 0,7,8
 175 691 175 691 193.5 672 c 128,-1,9
 212 653 212 653 212 624 c 0,10,11
 212 594 212 594 168 404 c 1,12,-1
 127 404 l 1,0,1
387 404 m 1,13,14
 343 594 343 594 343 620 c 0,15,16
 343 652 343 652 360.5 671.5 c 128,-1,17
 378 691 378 691 407 691 c 0,18,19
 435 691 435 691 453.5 672 c 128,-1,20
 472 653 472 653 472 624 c 0,21,22
 472 593 472 593 428 404 c 1,23,-1
 387 404 l 1,13,14
EndSplineSet
EndChar

StartChar: numbersign
Encoding: 35 35 3
Width: 500
GlyphClass: 2
Flags: W
LayerCount: 2
Fore
SplineSet
467 283 m 1,0,-1
 467 210 l 1,1,-1
 369 210 l 1,2,-1
 340 0 l 1,3,-1
 262 0 l 1,4,-1
 291 210 l 1,5,-1
 178 210 l 1,6,-1
 149 0 l 1,7,-1
 71 0 l 1,8,-1
 100 210 l 1,9,-1
 4 210 l 1,10,-1
 4 283 l 1,11,-1
 111 283 l 1,12,-1
 129 417 l 1,13,-1
 33 417 l 1,14,-1
 33 490 l 1,15,-1
 139 490 l 1,16,-1
 169 700 l 1,17,-1
 246 700 l 1,18,-1
 217 490 l 1,19,-1
 330 490 l 1,20,-1
 360 700 l 1,21,-1
 437 700 l 1,22,-1
 408 490 l 1,23,-1
 496 490 l 1,24,-1
 496 417 l 1,25,-1
 398 417 l 1,26,-1
 380 283 l 1,27,-1
 467 283 l 1,0,-1
320 417 m 1,28,-1
 207 417 l 1,29,-1
 189 283 l 1,30,-1
 302 283 l 1,31,-1
 320 417 l 1,28,-1
EndSplineSet
EndChar

StartChar: dollar
Encoding: 36 36 4
Width: 500
GlyphClass: 2
Flags: W
LayerCount: 2
Fore
SplineSet
29 496 m 0,0,1
 29 569 29 569 77.5 615.5 c 128,-1,2
 126 662 126 662 214 672 c 1,3,-1
 214 750 l 1,4,-1
 269 750 l 1,5,-1
 269 674 l 1,6,7
 328 664 328 664 360.5 653.5 c 128,-1,8
 393 643 393 643 428 622 c 1,9,-1
 428 481 l 1,10,-1
 407 481 l 1,11,12
 385 556 385 556 353.5 592.5 c 128,-1,13
 322 629 322 629 269 641 c 1,14,-1
 269 426 l 1,15,16
 369 374 369 374 404 343 c 0,17,18
 472 284 472 284 472 196 c 0,19,20
 472 109 472 109 423.5 64 c 128,-1,21
 375 19 375 19 269 0 c 1,22,-1
 269 -99 l 1,23,-1
 214 -99 l 1,24,-1
 214 0 l 1,25,26
 167 2 167 2 137 10 c 128,-1,27
 107 18 107 18 46 43 c 1,28,-1
 46 199 l 1,29,-1
 67 197 l 1,30,31
 91 116 91 116 124 78.5 c 128,-1,32
 157 41 157 41 213 30 c 1,33,-1
 213 281 l 1,34,35
 113 331 113 331 71 380 c 128,-1,36
 29 429 29 429 29 496 c 0,0,1
269 250 m 1,37,-1
 269 30 l 1,38,39
 362 48 362 48 362 134 c 0,40,41
 362 175 362 175 345.5 195.5 c 128,-1,42
 329 216 329 216 269 250 c 1,37,-1
213 454 m 1,43,-1
 213 644 l 1,44,45
 166 632 166 632 145 611 c 128,-1,46
 124 590 124 590 124 554 c 0,47,48
 124 485 124 485 213 454 c 1,43,-1
EndSplineSet
EndChar

StartChar: percent
Encoding: 37 37 5
Width: 1000
GlyphClass: 2
Flags: W
LayerCount: 2
Fore
SplineSet
877 257 m 0,0,1
 877 237 877 237 871.5 206.5 c 128,-1,2
 866 176 866 176 850.5 136.5 c 128,-1,3
 835 97 835 97 813 64.5 c 128,-1,4
 791 32 791 32 753 9 c 128,-1,5
 715 -14 715 -14 668 -14 c 0,6,7
 608 -14 608 -14 571.5 24 c 128,-1,8
 535 62 535 62 535 125 c 0,9,10
 535 217 535 217 605.5 294.5 c 128,-1,11
 676 372 676 372 761 372 c 0,12,13
 814 372 814 372 845.5 340.5 c 128,-1,14
 877 309 877 309 877 257 c 0,0,1
701 32 m 0,15,16
 752 32 752 32 798 107 c 128,-1,17
 844 182 844 182 844 249 c 0,18,19
 844 280 844 280 829 300.5 c 128,-1,20
 814 321 814 321 792 321 c 0,21,22
 756 321 756 321 721.5 271.5 c 128,-1,23
 687 222 687 222 669.5 168.5 c 128,-1,24
 652 115 652 115 652 88 c 0,25,26
 652 32 652 32 701 32 c 0,15,16
350 678 m 0,27,28
 385 678 385 678 425.5 650.5 c 128,-1,29
 466 623 466 623 518 623 c 0,30,31
 564 623 564 623 611.5 640.5 c 128,-1,32
 659 658 659 658 675 681 c 0,33,34
 683 692 683 692 690 692 c 2,35,-1
 728 692 l 1,36,-1
 334 -8 l 1,37,-1
 279 -8 l 1,38,-1
 627 612 l 1,39,40
 564 585 564 585 512 585 c 0,41,42
 491 585 491 585 465 590 c 1,43,44
 464 458 464 458 404 376 c 128,-1,45
 344 294 344 294 253 294 c 0,46,47
 196 294 196 294 160 332 c 128,-1,48
 124 370 124 370 124 430 c 0,49,50
 124 526 124 526 193.5 602 c 128,-1,51
 263 678 263 678 350 678 c 0,27,28
369 631 m 0,52,53
 351 631 351 631 320 592.5 c 128,-1,54
 289 554 289 554 263.5 495.5 c 128,-1,55
 238 437 238 437 238 392 c 0,56,57
 238 369 238 369 251 354.5 c 128,-1,58
 264 340 264 340 286 340 c 0,59,60
 340 340 340 340 386 419.5 c 128,-1,61
 432 499 432 499 432 569 c 0,62,63
 432 594 432 594 407 612.5 c 128,-1,64
 382 631 382 631 369 631 c 0,52,53
EndSplineSet
EndChar

StartChar: ampersand
Encoding: 38 38 6
Width: 833
GlyphClass: 2
Flags: W
LayerCount: 2
Fore
SplineSet
577 419 m 1,0,-1
 783 419 l 1,1,-1
 783 395 l 1,2,3
 751 392 751 392 737.5 384.5 c 128,-1,4
 724 377 724 377 710 355 c 2,5,-1
 683 311 l 2,6,7
 652 262 652 262 590 176 c 1,8,9
 632 122 632 122 656 103.5 c 128,-1,10
 680 85 680 85 709 85 c 0,11,12
 743 85 743 85 767 123 c 1,13,-1
 787 111 l 1,14,-1
 771 85 l 2,15,16
 770 84 770 84 765 75.5 c 128,-1,17
 760 67 760 67 757 62.5 c 128,-1,18
 754 58 754 58 747 48.5 c 128,-1,19
 740 39 740 39 734 33 c 128,-1,20
 728 27 728 27 719 18.5 c 128,-1,21
 710 10 710 10 700.5 4.5 c 128,-1,22
 691 -1 691 -1 679 -6 c 128,-1,23
 667 -11 667 -11 653 -13.5 c 128,-1,24
 639 -16 639 -16 624 -16 c 0,25,26
 584 -16 584 -16 552 3 c 128,-1,27
 520 22 520 22 475 72 c 1,28,29
 358 -15 358 -15 253 -15 c 0,30,31
 169 -15 169 -15 115.5 34.5 c 128,-1,32
 62 84 62 84 62 161 c 0,33,34
 62 232 62 232 107 284 c 128,-1,35
 152 336 152 336 258 388 c 1,36,37
 228 440 228 440 217 470 c 128,-1,38
 206 500 206 500 206 533 c 0,39,40
 206 606 206 606 258.5 648.5 c 128,-1,41
 311 691 311 691 401 691 c 0,42,43
 477 691 477 691 522.5 657.5 c 128,-1,44
 568 624 568 624 568 569 c 0,45,46
 568 522 568 522 532 487 c 128,-1,47
 496 452 496 452 416 423 c 1,48,-1
 567 209 l 1,49,50
 611 264 611 264 627 294 c 128,-1,51
 643 324 643 324 643 354 c 0,52,53
 643 376 643 376 632 383 c 128,-1,54
 621 390 621 390 577 395 c 1,55,-1
 577 419 l 1,0,-1
201 264 m 0,56,57
 201 200 201 200 249.5 130.5 c 128,-1,58
 298 61 298 61 362 61 c 0,59,60
 398 61 398 61 452 100 c 1,61,62
 415 148 415 148 323 286 c 2,63,-1
 275 358 l 1,64,65
 234 334 234 334 217.5 313 c 128,-1,66
 201 292 201 292 201 264 c 0,56,57
397 452 m 1,67,68
 435 465 435 465 451 483.5 c 128,-1,69
 467 502 467 502 467 533 c 0,70,71
 467 583 467 583 439.5 620.5 c 128,-1,72
 412 658 412 658 375 658 c 0,73,74
 351 658 351 658 337 643 c 128,-1,75
 323 628 323 628 323 602 c 0,76,77
 323 544 323 544 397 452 c 1,67,68
EndSplineSet
EndChar

StartChar: quotesingle
Encoding: 39 39 7
Width: 278
GlyphClass: 2
Flags: W
LayerCount: 2
Fore
SplineSet
119 404 m 1,0,1
 75 584 75 584 75 620 c 0,2,3
 75 652 75 652 92.5 671.5 c 128,-1,4
 110 691 110 691 139 691 c 0,5,6
 167 691 167 691 185.5 672 c 128,-1,7
 204 653 204 653 204 624 c 0,8,9
 204 596 204 596 160 404 c 1,10,-1
 119 404 l 1,0,1
EndSplineSet
EndChar

StartChar: parenleft
Encoding: 40 40 8
Width: 333
GlyphClass: 2
Flags: W
LayerCount: 2
Fore
SplineSet
159 258 m 0,0,1
 159 192 159 192 164.5 138 c 128,-1,2
 170 84 170 84 176.5 48 c 128,-1,3
 183 12 183 12 198 -19.5 c 128,-1,4
 213 -51 213 -51 221 -66 c 128,-1,5
 229 -81 229 -81 250 -99.5 c 128,-1,6
 271 -118 271 -118 277 -122 c 128,-1,7
 283 -126 283 -126 306 -140 c 1,8,-1
 306 -168 l 1,9,10
 233 -124 233 -124 193.5 -87.5 c 128,-1,11
 154 -51 154 -51 119 3 c 0,12,13
 46 119 46 119 46 259 c 0,14,15
 46 457 46 457 177 599 c 0,16,17
 206 630 206 630 233 649.5 c 128,-1,18
 260 669 260 669 306 694 c 1,19,-1
 306 667 l 1,20,21
 247 628 247 628 217.5 585.5 c 128,-1,22
 188 543 188 543 173.5 467 c 128,-1,23
 159 391 159 391 159 258 c 0,0,1
EndSplineSet
Substitution2: "'sups' Superscript lookup 24 subtable" parenleftsuperior
Substitution2: "'subs' Subscript lookup 23 subtable" parenleftinferior
EndChar

StartChar: parenright
Encoding: 41 41 9
Width: 333
GlyphClass: 2
Flags: W
LayerCount: 2
Fore
SplineSet
27 694 m 1,0,1
 61 673 61 673 88.5 653.5 c 128,-1,2
 116 634 116 634 155.5 594.5 c 128,-1,3
 195 555 195 555 221.5 512 c 128,-1,4
 248 469 248 469 267.5 404 c 128,-1,5
 287 339 287 339 287 266 c 0,6,7
 287 68 287 68 155 -73 c 0,8,9
 106 -126 106 -126 27 -168 c 1,10,-1
 27 -141 l 1,11,12
 86 -102 86 -102 116 -58 c 128,-1,13
 146 -14 146 -14 160 61 c 128,-1,14
 174 136 174 136 174 268 c 0,15,16
 174 358 174 358 164 426 c 128,-1,17
 154 494 154 494 142.5 530.5 c 128,-1,18
 131 567 131 567 106 598 c 128,-1,19
 81 629 81 629 69 637.5 c 128,-1,20
 57 646 57 646 27 666 c 1,21,-1
 27 694 l 1,0,1
EndSplineSet
Substitution2: "'sups' Superscript lookup 24 subtable" parenrightsuperior
Substitution2: "'subs' Subscript lookup 23 subtable" parenrightinferior
EndChar

StartChar: asterisk
Encoding: 42 42 10
Width: 507
GlyphClass: 2
Flags: W
LayerCount: 2
Fore
SplineSet
443 551 m 0,0,1
 443 522 443 522 415 507.5 c 128,-1,2
 387 493 387 493 341.5 485.5 c 128,-1,3
 296 478 296 478 284 473 c 1,4,5
 296 468 296 468 341 459.5 c 128,-1,6
 386 451 386 451 414 436 c 128,-1,7
 442 421 442 421 442 393 c 0,8,9
 442 372 442 372 426.5 356 c 128,-1,10
 411 340 411 340 390 340 c 0,11,12
 370 340 370 340 348 360 c 128,-1,13
 326 380 326 380 303.5 408 c 128,-1,14
 281 436 281 436 269 445 c 1,15,16
 271 425 271 425 286 381 c 128,-1,17
 301 337 301 337 301 314 c 0,18,19
 301 292 301 292 287 277 c 128,-1,20
 273 262 273 262 251 262 c 0,21,22
 228 262 228 262 213 276.5 c 128,-1,23
 198 291 198 291 198 314 c 0,24,25
 198 338 198 338 215.5 382 c 128,-1,26
 233 426 233 426 235 445 c 1,27,28
 223 437 223 437 199 409.5 c 128,-1,29
 175 382 175 382 152 362.5 c 128,-1,30
 129 343 129 343 110 343 c 0,31,32
 90 343 90 343 75 359.5 c 128,-1,33
 60 376 60 376 60 397 c 0,34,35
 60 426 60 426 88 440.5 c 128,-1,36
 116 455 116 455 161.5 462 c 128,-1,37
 207 469 207 469 219 474 c 1,38,39
 208 479 208 479 163 488 c 128,-1,40
 118 497 118 497 90 512 c 128,-1,41
 62 527 62 527 62 555 c 0,42,43
 62 576 62 576 77 592 c 128,-1,44
 92 608 92 608 113 608 c 0,45,46
 133 608 133 608 155 588 c 128,-1,47
 177 568 177 568 200 539.5 c 128,-1,48
 223 511 223 511 235 502 c 1,49,50
 233 522 233 522 217.5 566 c 128,-1,51
 202 610 202 610 202 633 c 128,-1,52
 202 656 202 656 216 670.5 c 128,-1,53
 230 685 230 685 252 685 c 0,54,55
 275 685 275 685 290 670.5 c 128,-1,56
 305 656 305 656 305 633 c 0,57,58
 305 611 305 611 287.5 566.5 c 128,-1,59
 270 522 270 522 268 503 c 1,60,61
 280 512 280 512 304.5 539 c 128,-1,62
 329 566 329 566 351.5 585 c 128,-1,63
 374 604 374 604 393 604 c 0,64,65
 414 604 414 604 428.5 588 c 128,-1,66
 443 572 443 572 443 551 c 0,0,1
EndSplineSet
EndChar

StartChar: plus
Encoding: 43 43 11
Width: 676
GlyphClass: 2
Flags: W
LayerCount: 2
Fore
SplineSet
614 209 m 1,0,-1
 387 209 l 1,1,-1
 387 -16 l 1,2,-1
 291 -16 l 1,3,-1
 291 209 l 1,4,-1
 62 209 l 1,5,-1
 62 305 l 1,6,-1
 291 305 l 1,7,-1
 291 528 l 1,8,-1
 387 528 l 1,9,-1
 387 305 l 1,10,-1
 614 305 l 1,11,-1
 614 209 l 1,0,-1
EndSplineSet
Substitution2: "'sups' Superscript lookup 24 subtable" plussuperior
Substitution2: "'subs' Subscript lookup 23 subtable" plusinferior
EndChar

StartChar: comma
Encoding: 44 44 12
Width: 250
GlyphClass: 2
Flags: W
LayerCount: 2
Fore
SplineSet
136 -4 m 0,0,1
 134 -4 134 -4 129 -5 c 128,-1,2
 124 -6 124 -6 112 -6 c 0,3,4
 80 -6 80 -6 59.5 16 c 128,-1,5
 39 38 39 38 39 72 c 0,6,7
 39 110 39 110 61.5 132.5 c 128,-1,8
 84 155 84 155 122 155 c 0,9,10
 167 155 167 155 195 123 c 128,-1,11
 223 91 223 91 223 39 c 0,12,13
 223 -26 223 -26 183.5 -78 c 128,-1,14
 144 -130 144 -130 57 -180 c 1,15,-1
 46 -158 l 1,16,17
 155 -82 155 -82 155 -26 c 0,18,19
 155 -4 155 -4 136 -4 c 0,0,1
EndSplineSet
EndChar

StartChar: hyphen
Encoding: 45 45 13
Width: 333
GlyphClass: 2
Flags: W
LayerCount: 2
Fore
SplineSet
287 287 m 1,0,-1
 287 171 l 1,1,-1
 44 171 l 1,2,-1
 44 287 l 1,3,-1
 287 287 l 1,0,-1
EndSplineSet
EndChar

StartChar: period
Encoding: 46 46 14
Width: 250
GlyphClass: 2
Flags: W
LayerCount: 2
Fore
SplineSet
125 156 m 0,0,1
 160 156 160 156 185 130.5 c 128,-1,2
 210 105 210 105 210 70 c 128,-1,3
 210 35 210 35 185 11 c 128,-1,4
 160 -13 160 -13 124 -13 c 0,5,6
 89 -13 89 -13 65 11.5 c 128,-1,7
 41 36 41 36 41 72 c 0,8,9
 41 106 41 106 66 131 c 128,-1,10
 91 156 91 156 125 156 c 0,0,1
EndSplineSet
EndChar

StartChar: slash
Encoding: 47 47 15
Width: 278
GlyphClass: 2
Flags: W
LayerCount: 2
Fore
SplineSet
302 691 m 1,0,-1
 66 -19 l 1,1,-1
 -24 -19 l 1,2,-1
 212 691 l 1,3,-1
 302 691 l 1,0,-1
EndSplineSet
EndChar

StartChar: zero
Encoding: 48 48 16
Width: 500
GlyphClass: 2
Flags: W
AnchorPoint: "Anchor-18" 249 351 basechar 0
LayerCount: 2
Fore
SplineSet
24 340 m 0,0,1
 24 487 24 487 89 587.5 c 128,-1,2
 154 688 154 688 250 688 c 0,3,4
 347 688 347 688 411.5 587.5 c 128,-1,5
 476 487 476 487 476 337 c 0,6,7
 476 186 476 186 412 86.5 c 128,-1,8
 348 -13 348 -13 251 -13 c 0,9,10
 151 -13 151 -13 87.5 86 c 128,-1,11
 24 185 24 185 24 340 c 0,0,1
251 15 m 0,12,13
 284 15 284 15 301 60 c 128,-1,14
 318 105 318 105 318 222 c 2,15,-1
 318 451 l 2,16,17
 318 562 318 562 302 611 c 128,-1,18
 286 660 286 660 249 660 c 0,19,20
 213 660 213 660 197.5 612 c 128,-1,21
 182 564 182 564 182 451 c 2,22,-1
 182 222 l 2,23,24
 182 111 182 111 198 63 c 128,-1,25
 214 15 214 15 251 15 c 0,12,13
EndSplineSet
Substitution2: "'sups' Superscript lookup 24 subtable" zerosuperior
Substitution2: "'subs' Subscript lookup 23 subtable" zeroinferior
Substitution2: "'zero' Slashed Zero lookup 22 subtable" zeroslashed
Substitution2: "'pnum' Proportional Numbers lookup 18 subtable" fit.0
Substitution2: "'onum' Oldstyle Figures lookup 17 subtable" old.0
EndChar

StartChar: one
Encoding: 49 49 17
Width: 500
GlyphClass: 2
Flags: W
AnchorPoint: "Anchor-18" 256 351 basechar 0
LayerCount: 2
Fore
SplineSet
150 578 m 0,0,1
 138 578 138 578 121.5 573 c 128,-1,2
 105 568 105 568 86.5 561 c 128,-1,3
 68 554 68 554 65 553 c 1,4,-1
 65 579 l 1,5,-1
 317 688 l 1,6,-1
 334 688 l 1,7,-1
 334 118 l 2,8,9
 334 60 334 60 354 42.5 c 128,-1,10
 374 25 374 25 442 24 c 1,11,-1
 442 0 l 1,12,-1
 67 0 l 1,13,-1
 67 24 l 1,14,15
 141 25 141 25 163.5 43.5 c 128,-1,16
 186 62 186 62 186 124 c 2,17,-1
 186 509 l 2,18,19
 186 578 186 578 150 578 c 0,0,1
EndSplineSet
Substitution2: "'sups' Superscript lookup 24 subtable" onesuperior
Substitution2: "'subs' Subscript lookup 23 subtable" oneinferior
Substitution2: "'pnum' Proportional Numbers lookup 18 subtable" fit.1
Substitution2: "'onum' Oldstyle Figures lookup 17 subtable" old.1
EndChar

StartChar: two
Encoding: 50 50 18
Width: 500
GlyphClass: 2
Flags: W
AnchorPoint: "Anchor-18" 233 351 basechar 0
LayerCount: 2
Fore
SplineSet
31 484 m 1,0,1
 107 688 107 688 251 688 c 0,2,3
 332 688 332 688 384 636.5 c 128,-1,4
 436 585 436 585 436 505 c 0,5,6
 436 395 436 395 322 287 c 2,7,-1
 160 133 l 1,8,-1
 311 133 l 2,9,10
 388 133 388 133 410 145 c 128,-1,11
 432 157 432 157 454 211 c 1,12,-1
 478 211 l 1,13,-1
 433 0 l 1,14,-1
 17 0 l 1,15,-1
 17 23 l 1,16,17
 188 205 188 205 244 291.5 c 128,-1,18
 300 378 300 378 300 447 c 0,19,20
 300 498 300 498 267 536 c 128,-1,21
 234 574 234 574 181 574 c 0,22,23
 104 574 104 574 59 484 c 1,24,-1
 31 484 l 1,0,1
EndSplineSet
Substitution2: "'sups' Superscript lookup 24 subtable" twosuperior
Substitution2: "'subs' Subscript lookup 23 subtable" twoinferior
Substitution2: "'pnum' Proportional Numbers lookup 18 subtable" fit.2
Substitution2: "'onum' Oldstyle Figures lookup 17 subtable" old.2
EndChar

StartChar: three
Encoding: 51 51 19
Width: 500
GlyphClass: 2
Flags: W
AnchorPoint: "Anchor-18" 249 351 basechar 0
LayerCount: 2
Fore
SplineSet
354 154 m 0,0,1
 354 197 354 197 338.5 230.5 c 128,-1,2
 323 264 323 264 292 287.5 c 128,-1,3
 261 311 261 311 230.5 325.5 c 128,-1,4
 200 340 200 340 153 356 c 1,5,-1
 153 373 l 1,6,7
 224 396 224 396 253.5 425.5 c 128,-1,8
 283 455 283 455 283 504 c 0,9,10
 283 551 283 551 255.5 579 c 128,-1,11
 228 607 228 607 181 607 c 0,12,13
 142 607 142 607 114.5 588 c 128,-1,14
 87 569 87 569 58 523 c 1,15,-1
 37 535 l 1,16,17
 119 688 119 688 266 688 c 0,18,19
 343 688 343 688 386 651.5 c 128,-1,20
 429 615 429 615 429 551 c 0,21,22
 429 507 429 507 411.5 480 c 128,-1,23
 394 453 394 453 346 424 c 1,24,25
 468 369 468 369 468 246 c 0,26,27
 468 137 468 137 381 61.5 c 128,-1,28
 294 -14 294 -14 169 -14 c 0,29,30
 100 -14 100 -14 58 10.5 c 128,-1,31
 16 35 16 35 16 76 c 0,32,33
 16 101 16 101 34 117.5 c 128,-1,34
 52 134 52 134 81 134 c 0,35,36
 114 134 114 134 144 109.5 c 128,-1,37
 174 85 174 85 201.5 60.5 c 128,-1,38
 229 36 229 36 256 36 c 0,39,40
 301 36 301 36 327.5 68 c 128,-1,41
 354 100 354 100 354 154 c 0,0,1
EndSplineSet
Substitution2: "'sups' Superscript lookup 24 subtable" threesuperior
Substitution2: "'subs' Subscript lookup 23 subtable" threeinferior
Substitution2: "'pnum' Proportional Numbers lookup 18 subtable" fit.3
Substitution2: "'onum' Oldstyle Figures lookup 17 subtable" old.3
EndChar

StartChar: four
Encoding: 52 52 20
Width: 500
GlyphClass: 2
Flags: W
AnchorPoint: "Anchor-18" 282 351 basechar 0
LayerCount: 2
Fore
SplineSet
412 255 m 1,0,-1
 475 255 l 1,1,-1
 475 144 l 1,2,-1
 412 144 l 1,3,-1
 412 0 l 1,4,-1
 267 0 l 1,5,-1
 267 144 l 1,6,-1
 19 144 l 1,7,-1
 19 257 l 1,8,9
 100 385 100 385 273 611 c 2,10,-1
 332 688 l 1,11,-1
 412 688 l 1,12,-1
 412 255 l 1,0,-1
269 255 m 1,13,-1
 269 552 l 1,14,-1
 60 255 l 1,15,-1
 269 255 l 1,13,-1
EndSplineSet
Substitution2: "'sups' Superscript lookup 24 subtable" foursuperior
Substitution2: "'subs' Subscript lookup 23 subtable" fourinferior
Substitution2: "'pnum' Proportional Numbers lookup 18 subtable" fit.4
Substitution2: "'onum' Oldstyle Figures lookup 17 subtable" old.4
EndChar

StartChar: five
Encoding: 53 53 21
Width: 500
GlyphClass: 2
Flags: W
AnchorPoint: "Anchor-18" 249 351 basechar 0
LayerCount: 2
Fore
SplineSet
84 140 m 0,0,1
 120 140 120 140 181 96.5 c 128,-1,2
 242 53 242 53 273 53 c 0,3,4
 315 53 315 53 344 82 c 128,-1,5
 373 111 373 111 373 153 c 0,6,7
 373 203 373 203 335.5 243 c 128,-1,8
 298 283 298 283 231 304 c 0,9,10
 175 322 175 322 51 331 c 1,11,-1
 148 676 l 1,12,-1
 470 676 l 1,13,-1
 427 549 l 1,14,-1
 149 549 l 1,15,-1
 127 468 l 1,16,17
 231 462 231 462 278 448 c 0,18,19
 360 425 360 425 405.5 368 c 128,-1,20
 451 311 451 311 451 233 c 0,21,22
 451 127 451 127 372 59.5 c 128,-1,23
 293 -8 293 -8 169 -8 c 0,24,25
 102 -8 102 -8 62 16 c 128,-1,26
 22 40 22 40 22 80 c 0,27,28
 22 106 22 106 39.5 123 c 128,-1,29
 57 140 57 140 84 140 c 0,0,1
EndSplineSet
Substitution2: "'sups' Superscript lookup 24 subtable" fivesuperior
Substitution2: "'subs' Subscript lookup 23 subtable" fiveinferior
Substitution2: "'pnum' Proportional Numbers lookup 18 subtable" fit.5
Substitution2: "'onum' Oldstyle Figures lookup 17 subtable" old.5
EndChar

StartChar: six
Encoding: 54 54 22
Width: 500
GlyphClass: 2
Flags: W
AnchorPoint: "Anchor-18" 275 351 basechar 0
LayerCount: 2
Fore
SplineSet
470 688 m 1,0,-1
 470 662 l 1,1,2
 361 640 361 640 296.5 577 c 128,-1,3
 232 514 232 514 204 404 c 1,4,5
 243 421 243 421 288 421 c 0,6,7
 373 421 373 421 424 367 c 128,-1,8
 475 313 475 313 475 222 c 0,9,10
 475 120 475 120 414 53.5 c 128,-1,11
 353 -13 353 -13 260 -13 c 0,12,13
 155 -13 155 -13 91.5 65 c 128,-1,14
 28 143 28 143 28 273 c 0,15,16
 28 477 28 477 199 595 c 0,17,18
 256 634 256 634 313.5 654 c 128,-1,19
 371 674 371 674 470 688 c 1,0,-1
184 242 m 0,20,21
 184 150 184 150 194.5 98 c 128,-1,22
 205 46 205 46 220.5 30 c 128,-1,23
 236 14 236 14 262 14 c 0,24,25
 299 14 299 14 311 43.5 c 128,-1,26
 323 73 323 73 323 162 c 0,27,28
 323 281 323 281 303 328.5 c 128,-1,29
 283 376 283 376 233 376 c 0,30,31
 210 376 210 376 200.5 367 c 128,-1,32
 191 358 191 358 187.5 331.5 c 128,-1,33
 184 305 184 305 184 242 c 0,20,21
EndSplineSet
Substitution2: "'sups' Superscript lookup 24 subtable" sixsuperior
Substitution2: "'subs' Subscript lookup 23 subtable" sixinferior
Substitution2: "'pnum' Proportional Numbers lookup 18 subtable" fit.6
Substitution2: "'onum' Oldstyle Figures lookup 17 subtable" old.6
EndChar

StartChar: seven
Encoding: 55 55 23
Width: 500
GlyphClass: 2
Flags: W
AnchorPoint: "Anchor-18" 249 351 basechar 0
LayerCount: 2
Fore
SplineSet
477 676 m 1,0,-1
 242 0 l 1,1,-1
 147 0 l 1,2,-1
 347 539 l 1,3,-1
 140 539 l 2,4,5
 99 539 99 539 77.5 520.5 c 128,-1,6
 56 502 56 502 42 454 c 1,7,-1
 17 454 l 1,8,-1
 61 676 l 1,9,-1
 477 676 l 1,0,-1
EndSplineSet
Substitution2: "'sups' Superscript lookup 24 subtable" sevensuperior
Substitution2: "'subs' Subscript lookup 23 subtable" seveninferior
Substitution2: "'pnum' Proportional Numbers lookup 18 subtable" fit.7
Substitution2: "'onum' Oldstyle Figures lookup 17 subtable" old.7
EndChar

StartChar: eight
Encoding: 56 56 24
Width: 500
GlyphClass: 2
Flags: W
AnchorPoint: "Anchor-18" 249 351 basechar 0
LayerCount: 2
Fore
SplineSet
28 157 m 0,0,1
 28 226 28 226 67.5 263 c 128,-1,2
 107 300 107 300 178 324 c 1,3,4
 104 368 104 368 71.5 412.5 c 128,-1,5
 39 457 39 457 39 513 c 0,6,7
 39 592 39 592 100.5 640 c 128,-1,8
 162 688 162 688 263 688 c 0,9,10
 352 688 352 688 405 649 c 128,-1,11
 458 610 458 610 458 543 c 0,12,13
 458 495 458 495 426 462 c 128,-1,14
 394 429 394 429 322 404 c 1,15,16
 402 353 402 353 437 302.5 c 128,-1,17
 472 252 472 252 472 187 c 0,18,19
 472 97 472 97 408 42 c 128,-1,20
 344 -13 344 -13 240 -13 c 0,21,22
 145 -13 145 -13 86.5 34 c 128,-1,23
 28 81 28 81 28 157 c 0,0,1
298 422 m 1,24,25
 323 455 323 455 331 478 c 128,-1,26
 339 501 339 501 339 536 c 0,27,28
 339 595 339 595 316 627 c 128,-1,29
 293 659 293 659 251 659 c 0,30,31
 216 659 216 659 192 635 c 128,-1,32
 168 611 168 611 168 576 c 0,33,34
 168 489 168 489 298 422 c 1,24,25
200 306 m 1,35,36
 170 262 170 262 159.5 232 c 128,-1,37
 149 202 149 202 149 161 c 0,38,39
 149 94 149 94 174.5 56.5 c 128,-1,40
 200 19 200 19 246 19 c 0,41,42
 286 19 286 19 309.5 48 c 128,-1,43
 333 77 333 77 333 127 c 0,44,45
 333 182 333 182 307.5 216.5 c 128,-1,46
 282 251 282 251 200 306 c 1,35,36
EndSplineSet
Substitution2: "'sups' Superscript lookup 24 subtable" eightsuperior
Substitution2: "'subs' Subscript lookup 23 subtable" eightinferior
Substitution2: "'pnum' Proportional Numbers lookup 18 subtable" fit.8
Substitution2: "'onum' Oldstyle Figures lookup 17 subtable" old.8
EndChar

StartChar: nine
Encoding: 57 57 25
Width: 500
GlyphClass: 2
Flags: W
AnchorPoint: "Anchor-18" 249 351 basechar 0
LayerCount: 2
Fore
SplineSet
31 -13 m 1,0,-1
 31 13 l 1,1,2
 139 35 139 35 203 97 c 128,-1,3
 267 159 267 159 299 273 c 1,4,5
 262 254 262 254 208 254 c 0,6,7
 126 254 126 254 76 308.5 c 128,-1,8
 26 363 26 363 26 452 c 0,9,10
 26 555 26 555 86.5 621.5 c 128,-1,11
 147 688 147 688 241 688 c 0,12,13
 346 688 346 688 409.5 610 c 128,-1,14
 473 532 473 532 473 402 c 0,15,16
 473 209 473 209 317 91 c 0,17,18
 258 47 258 47 197 24.5 c 128,-1,19
 136 2 136 2 31 -13 c 1,0,-1
317 458 m 0,20,21
 317 571 317 571 297 616 c 128,-1,22
 277 661 277 661 239 661 c 0,23,24
 202 661 202 661 190 631.5 c 128,-1,25
 178 602 178 602 178 515 c 0,26,27
 178 397 178 397 197.5 348 c 128,-1,28
 217 299 217 299 263 299 c 0,29,30
 271 299 271 299 277.5 299.5 c 128,-1,31
 284 300 284 300 288.5 301.5 c 128,-1,32
 293 303 293 303 296 304 c 128,-1,33
 299 305 299 305 301.5 307.5 c 128,-1,34
 304 310 304 310 305.5 311.5 c 128,-1,35
 307 313 307 313 307.5 316 c 128,-1,36
 308 319 308 319 308.5 320 c 128,-1,37
 309 321 309 321 309 324 c 2,38,-1
 309 328 l 1,39,-1
 312 354 l 1,40,41
 317 429 317 429 317 458 c 0,20,21
EndSplineSet
Substitution2: "'sups' Superscript lookup 24 subtable" ninesuperior
Substitution2: "'subs' Subscript lookup 23 subtable" nineinferior
Substitution2: "'pnum' Proportional Numbers lookup 18 subtable" fit.9
Substitution2: "'onum' Oldstyle Figures lookup 17 subtable" old.9
EndChar

StartChar: colon
Encoding: 58 58 26
Width: 333
GlyphClass: 2
Flags: W
LayerCount: 2
Fore
SplineSet
166 156 m 0,0,1
 201 156 201 156 226 130.5 c 128,-1,2
 251 105 251 105 251 70 c 128,-1,3
 251 35 251 35 226 11 c 128,-1,4
 201 -13 201 -13 165 -13 c 0,5,6
 130 -13 130 -13 106 11.5 c 128,-1,7
 82 36 82 36 82 72 c 0,8,9
 82 106 82 106 107 131 c 128,-1,10
 132 156 132 156 166 156 c 0,0,1
166 472 m 0,11,12
 201 472 201 472 226 447 c 128,-1,13
 251 422 251 422 251 387 c 128,-1,14
 251 352 251 352 226 327.5 c 128,-1,15
 201 303 201 303 166 303 c 0,16,17
 130 303 130 303 106 327.5 c 128,-1,18
 82 352 82 352 82 389 c 0,19,20
 82 423 82 423 107 447.5 c 128,-1,21
 132 472 132 472 166 472 c 0,11,12
EndSplineSet
EndChar

StartChar: semicolon
Encoding: 59 59 27
Width: 333
GlyphClass: 2
Flags: W
LayerCount: 2
Fore
SplineSet
153 -6 m 2,0,1
 142 -6 142 -6 128 -1 c 128,-1,2
 114 4 114 4 98 23 c 128,-1,3
 82 42 82 42 82 72 c 0,4,5
 82 110 82 110 105 132.5 c 128,-1,6
 128 155 128 155 165 155 c 0,7,8
 210 155 210 155 238 123 c 128,-1,9
 266 91 266 91 266 39 c 0,10,11
 266 -26 266 -26 226.5 -78 c 128,-1,12
 187 -130 187 -130 100 -180 c 1,13,-1
 89 -158 l 1,14,15
 198 -82 198 -82 198 -25 c 0,16,17
 198 -17 198 -17 192.5 -10.5 c 128,-1,18
 187 -4 187 -4 180 -4 c 2,19,-1
 173 -4 l 1,20,-1
 161 -6 l 1,21,-1
 153 -6 l 2,0,1
166 472 m 0,22,23
 201 472 201 472 226 447 c 128,-1,24
 251 422 251 422 251 387 c 128,-1,25
 251 352 251 352 226 327.5 c 128,-1,26
 201 303 201 303 166 303 c 0,27,28
 130 303 130 303 106 327.5 c 128,-1,29
 82 352 82 352 82 389 c 0,30,31
 82 423 82 423 107 447.5 c 128,-1,32
 132 472 132 472 166 472 c 0,22,23
EndSplineSet
EndChar

StartChar: less
Encoding: 60 60 28
Width: 676
GlyphClass: 2
Flags: W
LayerCount: 2
Fore
SplineSet
614 -25 m 1,0,-1
 62 234 l 1,1,-1
 62 280 l 1,2,-1
 614 539 l 1,3,-1
 614 439 l 1,4,-1
 226 257 l 1,5,-1
 614 75 l 1,6,-1
 614 -25 l 1,0,-1
EndSplineSet
EndChar

StartChar: equal
Encoding: 61 61 29
Width: 676
GlyphClass: 2
Flags: W
LayerCount: 2
Fore
SplineSet
614 331 m 1,0,-1
 62 331 l 1,1,-1
 62 427 l 1,2,-1
 614 427 l 1,3,-1
 614 331 l 1,0,-1
614 87 m 1,4,-1
 62 87 l 1,5,-1
 62 183 l 1,6,-1
 614 183 l 1,7,-1
 614 87 l 1,4,-1
EndSplineSet
Substitution2: "'sups' Superscript lookup 24 subtable" equalsuperior
Substitution2: "'subs' Subscript lookup 23 subtable" equalinferior
EndChar

StartChar: question
Encoding: 63 63 31
Width: 500
GlyphClass: 2
Flags: W
LayerCount: 2
Fore
SplineSet
151 613 m 0,0,1
 151 601 151 601 169.5 580 c 128,-1,2
 188 559 188 559 188 533 c 0,3,4
 188 504 188 504 170.5 486.5 c 128,-1,5
 153 469 153 469 125 469 c 0,6,7
 96 469 96 469 76.5 490.5 c 128,-1,8
 57 512 57 512 57 545 c 0,9,10
 57 608 57 608 110 648.5 c 128,-1,11
 163 689 163 689 245 689 c 0,12,13
 335 689 335 689 390 643.5 c 128,-1,14
 445 598 445 598 445 523 c 0,15,16
 445 471 445 471 418.5 435 c 128,-1,17
 392 399 392 399 324 357 c 0,18,19
 277 328 277 328 265 307 c 128,-1,20
 253 286 253 286 253 231 c 1,21,-1
 223 231 l 1,22,23
 221 261 221 261 221 277 c 0,24,25
 221 311 221 311 239.5 346.5 c 128,-1,26
 258 382 258 382 277 425.5 c 128,-1,27
 296 469 296 469 296 523 c 0,28,29
 296 585 296 585 274 619 c 128,-1,30
 252 653 252 653 212 653 c 0,31,32
 185 653 185 653 168 642 c 128,-1,33
 151 631 151 631 151 613 c 0,0,1
239 156 m 128,-1,35
 273 156 273 156 298 131 c 128,-1,36
 323 106 323 106 323 71 c 128,-1,37
 323 36 323 36 298.5 11.5 c 128,-1,38
 274 -13 274 -13 239 -13 c 0,39,40
 203 -13 203 -13 178.5 11.5 c 128,-1,41
 154 36 154 36 154 72 c 0,42,43
 154 106 154 106 179.5 131 c 128,-1,34
 205 156 205 156 239 156 c 128,-1,35
EndSplineSet
Substitution2: "'locl' Localized Forms lookup 80 subtable" indic_question
EndChar

StartChar: at
Encoding: 64 64 32
Width: 930
GlyphClass: 2
Flags: W
LayerCount: 2
Fore
SplineSet
574 458 m 0,0,1
 574 475 574 475 565 485 c 128,-1,2
 556 495 556 495 543 495 c 0,3,4
 520 495 520 495 489.5 451.5 c 128,-1,5
 459 408 459 408 438 350.5 c 128,-1,6
 417 293 417 293 417 254 c 0,7,8
 417 236 417 236 427 224 c 128,-1,9
 437 212 437 212 452 212 c 0,10,11
 484 212 484 212 513.5 263.5 c 128,-1,12
 543 315 543 315 558.5 371.5 c 128,-1,13
 574 428 574 428 574 458 c 0,0,1
610 223 m 0,14,15
 610 201 610 201 618.5 193 c 128,-1,16
 627 185 627 185 647 185 c 0,17,18
 696 185 696 185 733 245 c 128,-1,19
 770 305 770 305 770 385 c 0,20,21
 770 493 770 493 687 567.5 c 128,-1,22
 604 642 604 642 486 642 c 0,23,24
 362 642 362 642 286 555 c 128,-1,25
 210 468 210 468 210 325 c 0,26,27
 210 194 210 194 289 115.5 c 128,-1,28
 368 37 368 37 499 37 c 0,29,30
 554 37 554 37 596.5 45.5 c 128,-1,31
 639 54 639 54 697 80 c 1,32,-1
 711 41 l 1,33,34
 638 7 638 7 590.5 -6 c 128,-1,35
 543 -19 543 -19 487 -19 c 0,36,37
 327 -19 327 -19 217.5 82 c 128,-1,38
 108 183 108 183 108 330 c 0,39,40
 108 481 108 481 218 586 c 128,-1,41
 328 691 328 691 485 691 c 0,42,43
 628 691 628 691 725 604 c 128,-1,44
 822 517 822 517 822 390 c 0,45,46
 822 290 822 290 765.5 216.5 c 128,-1,47
 709 143 709 143 633 143 c 0,48,49
 522 143 522 143 522 208 c 0,50,51
 522 223 522 223 533 260 c 1,52,53
 500 204 500 204 470.5 180.5 c 128,-1,54
 441 157 441 157 405 157 c 0,55,56
 367 157 367 157 344 184.5 c 128,-1,57
 321 212 321 212 321 256 c 0,58,59
 321 348 321 348 391.5 437.5 c 128,-1,60
 462 527 462 527 534 527 c 0,61,62
 559 527 559 527 572.5 514 c 128,-1,63
 586 501 586 501 591 471 c 1,64,-1
 605 517 l 1,65,-1
 692 523 l 1,66,-1
 637 339 l 2,67,68
 610 249 610 249 610 223 c 0,14,15
EndSplineSet
EndChar

StartChar: A
Encoding: 65 65 33
Width: 721
GlyphClass: 2
Flags: W
AnchorPoint: "Anchor-18" 305 222 basechar 0
AnchorPoint: "Anchor-9" 353 676 basechar 0
AnchorPoint: "Anchor-8" 587 0 basechar 0
AnchorPoint: "Anchor-7" 362 0 basechar 0
LayerCount: 2
Fore
SplineSet
700 25 m 1,0,-1
 700 0 l 1,1,-1
 376 0 l 1,2,-1
 376 25 l 1,3,4
 397 28 397 28 408 28 c 0,5,6
 456 31 456 31 456 61 c 128,-1,7
 456 91 456 91 410 197 c 1,8,-1
 185 197 l 1,9,-1
 170 158 l 2,10,11
 141 83 141 83 141 66 c 0,12,13
 141 47 141 47 160 37.5 c 128,-1,14
 179 28 179 28 223 25 c 1,15,-1
 223 0 l 1,16,-1
 20 0 l 1,17,-1
 20 25 l 1,18,19
 56 32 56 32 72.5 52 c 128,-1,20
 89 72 89 72 118 142 c 2,21,-1
 340 690 l 1,22,-1
 368 690 l 1,23,-1
 591 164 l 2,24,25
 628 76 628 76 647.5 50.5 c 128,-1,26
 667 25 667 25 696 25 c 2,27,-1
 700 25 l 1,0,-1
200 236 m 1,28,-1
 395 236 l 1,29,-1
 294 479 l 1,30,-1
 200 236 l 1,28,-1
EndSplineSet
Substitution2: "'sups' Superscript lookup 24 subtable" uni1d2c
Substitution2: "'c2sc' Capitals to Small Capitals in Latin lookup 4 subtable" sc.a
EndChar

StartChar: B
Encoding: 66 66 34
Width: 658
GlyphClass: 2
Flags: W
AnchorPoint: "Anchor-18" 318 351 basechar 0
AnchorPoint: "Anchor-9" 322 676 basechar 0
AnchorPoint: "Anchor-7" 309 0 basechar 0
LayerCount: 2
Fore
SplineSet
430 365 m 1,0,1
 623 324 623 324 623 188 c 0,2,3
 623 103 623 103 546 51.5 c 128,-1,4
 469 0 469 0 342 0 c 2,5,-1
 20 0 l 1,6,-1
 20 25 l 1,7,8
 75 31 75 31 91.5 44.5 c 128,-1,9
 108 58 108 58 108 96 c 2,10,-1
 108 580 l 2,11,12
 108 618 108 618 90 633 c 128,-1,13
 72 648 72 648 20 651 c 1,14,-1
 20 676 l 1,15,-1
 329 676 l 2,16,17
 454 676 454 676 521.5 634.5 c 128,-1,18
 589 593 589 593 589 516 c 0,19,20
 589 459 589 459 553 424.5 c 128,-1,21
 517 390 517 390 430 365 c 1,0,1
268 343 m 1,22,-1
 268 93 l 2,23,24
 268 60 268 60 282 46 c 128,-1,25
 296 32 296 32 329 32 c 0,26,27
 451 32 451 32 451 179 c 0,28,29
 451 343 451 343 298 343 c 2,30,-1
 268 343 l 1,22,-1
268 597 m 2,31,-1
 268 373 l 1,32,33
 360 375 360 375 392 402.5 c 128,-1,34
 424 430 424 430 424 509 c 0,35,36
 424 580 424 580 399 613 c 128,-1,37
 374 646 374 646 322 646 c 0,38,39
 293 646 293 646 280.5 635 c 128,-1,40
 268 624 268 624 268 597 c 2,31,-1
EndSplineSet
Substitution2: "'sups' Superscript lookup 24 subtable" uni1d2e
Substitution2: "'c2sc' Capitals to Small Capitals in Latin lookup 4 subtable" sc.b
EndChar

StartChar: C
Encoding: 67 67 35
Width: 708
GlyphClass: 2
Flags: W
AnchorPoint: "Anchor-18" 389 351 basechar 0
AnchorPoint: "Anchor-9" 390 676 basechar 0
AnchorPoint: "Anchor-7" 389 0 basechar 0
LayerCount: 2
Fore
SplineSet
413 29 m 0,0,1
 479 29 479 29 533 61 c 128,-1,2
 587 93 587 93 643 152 c 1,3,-1
 673 127 l 1,4,-1
 660 112 l 2,5,6
 647 98 647 98 643.5 94.5 c 128,-1,7
 640 91 640 91 625.5 76.5 c 128,-1,8
 611 62 611 62 603 56 c 128,-1,9
 595 50 595 50 578 37.5 c 128,-1,10
 561 25 561 25 548.5 19 c 128,-1,11
 536 13 536 13 516 4.5 c 128,-1,12
 496 -4 496 -4 477.5 -8.5 c 128,-1,13
 459 -13 459 -13 436 -16 c 128,-1,14
 413 -19 413 -19 389 -19 c 0,15,16
 234 -19 234 -19 134.5 80 c 128,-1,17
 35 179 35 179 35 333 c 0,18,19
 35 486 35 486 134.5 588.5 c 128,-1,20
 234 691 234 691 383 691 c 0,21,22
 430 691 430 691 471.5 678.5 c 128,-1,23
 513 666 513 666 541 654 c 128,-1,24
 569 642 569 642 584 642 c 0,25,26
 598 642 598 642 608 652 c 128,-1,27
 618 662 618 662 628 688 c 1,28,-1
 655 688 l 1,29,-1
 655 454 l 1,30,-1
 630 454 l 1,31,32
 620 476 620 476 609 495.5 c 128,-1,33
 598 515 598 515 575 547 c 128,-1,34
 552 579 552 579 528 601.5 c 128,-1,35
 504 624 504 624 468.5 641 c 128,-1,36
 433 658 433 658 396 658 c 0,37,38
 306 658 306 658 259 577 c 128,-1,39
 212 496 212 496 212 341 c 0,40,41
 212 29 212 29 413 29 c 0,0,1
EndSplineSet
Substitution2: "'c2sc' Capitals to Small Capitals in Latin lookup 4 subtable" sc.c
EndChar

StartChar: D
Encoding: 68 68 36
Width: 731
GlyphClass: 2
Flags: W
AnchorPoint: "Anchor-18" 367 351 basechar 0
AnchorPoint: "Anchor-9" 314 676 basechar 0
AnchorPoint: "Anchor-7" 304 0 basechar 0
LayerCount: 2
Fore
SplineSet
103 91 m 2,0,-1
 103 584 l 2,1,2
 103 618 103 618 85.5 632 c 128,-1,3
 68 646 68 646 20 651 c 1,4,-1
 20 676 l 1,5,-1
 325 676 l 2,6,7
 498 676 498 676 597 588 c 128,-1,8
 696 500 696 500 696 345 c 128,-1,9
 696 190 696 190 597 95 c 128,-1,10
 498 0 498 0 336 0 c 2,11,-1
 20 0 l 1,12,-1
 20 25 l 1,13,14
 63 26 63 26 83 42 c 128,-1,15
 103 58 103 58 103 91 c 2,0,-1
522 330 m 0,16,17
 522 418 522 418 504 482 c 128,-1,18
 486 546 486 546 456 579 c 128,-1,19
 426 612 426 612 393.5 627 c 128,-1,20
 361 642 361 642 324 642 c 0,21,22
 265 642 265 642 265 607 c 2,23,-1
 265 93 l 2,24,25
 265 59 265 59 277 47 c 128,-1,26
 289 35 289 35 323 35 c 0,27,28
 522 35 522 35 522 330 c 0,16,17
EndSplineSet
Substitution2: "'sups' Superscript lookup 24 subtable" uni1d30
Substitution2: "'c2sc' Capitals to Small Capitals in Latin lookup 4 subtable" sc.d
EndChar

StartChar: E
Encoding: 69 69 37
Width: 671
GlyphClass: 2
Flags: W
AnchorPoint: "Anchor-18" 318 351 basechar 0
AnchorPoint: "Anchor-9" 347 674 basechar 0
AnchorPoint: "Anchor-8" 569 0 basechar 0
AnchorPoint: "Anchor-7" 343 0 basechar 0
LayerCount: 2
Fore
SplineSet
353 31 m 0,0,1
 462 31 462 31 519 75 c 128,-1,2
 576 119 576 119 617 208 c 1,3,-1
 645 208 l 1,4,-1
 605 0 l 1,5,-1
 20 0 l 1,6,-1
 20 25 l 1,7,8
 76 31 76 31 92 44 c 128,-1,9
 108 57 108 57 108 96 c 2,10,-1
 108 580 l 2,11,12
 108 618 108 618 90 633 c 128,-1,13
 72 648 72 648 20 651 c 1,14,-1
 20 676 l 1,15,-1
 597 676 l 1,16,-1
 597 475 l 1,17,-1
 572 475 l 1,18,19
 553 575 553 575 505 608.5 c 128,-1,20
 457 642 457 642 335 642 c 0,21,22
 296 642 296 642 283 632.5 c 128,-1,23
 270 623 270 623 270 595 c 2,24,-1
 270 363 l 1,25,-1
 274 363 l 2,26,27
 353 363 353 363 387 395.5 c 128,-1,28
 421 428 421 428 432 512 c 1,29,-1
 458 512 l 1,30,-1
 458 174 l 1,31,-1
 432 174 l 1,32,33
 423 261 423 261 387.5 295 c 128,-1,34
 352 329 352 329 270 329 c 1,35,-1
 270 87 l 2,36,37
 270 55 270 55 287.5 43 c 128,-1,38
 305 31 305 31 353 31 c 0,0,1
EndSplineSet
Substitution2: "'sups' Superscript lookup 24 subtable" uni1d31
Substitution2: "'c2sc' Capitals to Small Capitals in Latin lookup 4 subtable" sc.e
EndChar

StartChar: F
Encoding: 70 70 38
Width: 617
GlyphClass: 2
Flags: W
AnchorPoint: "Anchor-18" 318 351 basechar 0
AnchorPoint: "Anchor-9" 329 676 basechar 0
AnchorPoint: "Anchor-7" 244 0 basechar 0
LayerCount: 2
Fore
SplineSet
563 475 m 1,0,1
 557 502 557 502 554 513.5 c 128,-1,2
 551 525 551 525 543 547.5 c 128,-1,3
 535 570 535 570 526 580 c 128,-1,4
 517 590 517 590 500 604.5 c 128,-1,5
 483 619 483 619 461 625.5 c 128,-1,6
 439 632 439 632 407 637 c 128,-1,7
 375 642 375 642 334 642 c 0,8,9
 296 642 296 642 283 632.5 c 128,-1,10
 270 623 270 623 270 595 c 2,11,-1
 270 363 l 1,12,13
 345 363 345 363 377 394.5 c 128,-1,14
 409 426 409 426 423 512 c 1,15,-1
 448 512 l 1,16,-1
 448 174 l 1,17,-1
 423 174 l 1,18,19
 413 261 413 261 380 294 c 128,-1,20
 347 327 347 327 270 329 c 1,21,-1
 270 96 l 2,22,23
 270 55 270 55 290.5 41.5 c 128,-1,24
 311 28 311 28 380 25 c 1,25,-1
 380 0 l 1,26,-1
 20 0 l 1,27,-1
 20 25 l 1,28,29
 76 31 76 31 92 44 c 128,-1,30
 108 57 108 57 108 96 c 2,31,-1
 108 580 l 2,32,33
 108 619 108 619 90 633.5 c 128,-1,34
 72 648 72 648 20 651 c 1,35,-1
 20 676 l 1,36,-1
 587 676 l 1,37,-1
 587 475 l 1,38,-1
 563 475 l 1,0,1
EndSplineSet
Substitution2: "'c2sc' Capitals to Small Capitals in Latin lookup 4 subtable" sc.f
EndChar

StartChar: G
Encoding: 71 71 39
Width: 776
GlyphClass: 2
Flags: W
AnchorPoint: "Anchor-18" 407 351 basechar 0
AnchorPoint: "Anchor-9" 380 676 basechar 0
AnchorPoint: "Anchor-7" 393 0 basechar 0
LayerCount: 2
Fore
SplineSet
383 691 m 0,0,1
 430 691 430 691 471.5 678.5 c 128,-1,2
 513 666 513 666 541 654 c 128,-1,3
 569 642 569 642 584 642 c 0,4,5
 598 642 598 642 608 652 c 128,-1,6
 618 662 618 662 628 688 c 1,7,-1
 655 688 l 1,8,-1
 655 454 l 1,9,-1
 630 454 l 1,10,11
 604 511 604 511 582.5 542.5 c 128,-1,12
 561 574 561 574 529 602 c 0,13,14
 464 658 464 658 396 658 c 0,15,16
 305 658 305 658 258.5 576.5 c 128,-1,17
 212 495 212 495 212 338 c 0,18,19
 212 159 212 159 277 76 c 0,20,21
 325 14 325 14 415 14 c 0,22,23
 465 14 465 14 488 31.5 c 128,-1,24
 511 49 511 49 511 87 c 2,25,-1
 511 192 l 2,26,27
 511 233 511 233 492.5 245.5 c 128,-1,28
 474 258 474 258 410 262 c 1,29,-1
 410 287 l 1,30,-1
 753 287 l 1,31,-1
 753 262 l 1,32,33
 697 256 697 256 682 240 c 128,-1,34
 667 224 667 224 667 170 c 2,35,-1
 667 43 l 1,36,37
 619 15 619 15 544 -2 c 128,-1,38
 469 -19 469 -19 391 -19 c 0,39,40
 234 -19 234 -19 134.5 78.5 c 128,-1,41
 35 176 35 176 35 331 c 0,42,43
 35 485 35 485 134.5 588 c 128,-1,44
 234 691 234 691 383 691 c 0,0,1
EndSplineSet
Substitution2: "'sups' Superscript lookup 24 subtable" uni1d33
Substitution2: "'c2sc' Capitals to Small Capitals in Latin lookup 4 subtable" sc.g
EndChar

StartChar: H
Encoding: 72 72 40
Width: 778
GlyphClass: 2
Flags: W
AnchorPoint: "Anchor-18" 391 351 basechar 0
AnchorPoint: "Anchor-9" 394 676 basechar 0
AnchorPoint: "Anchor-7" 391 0 basechar 0
LayerCount: 2
Fore
SplineSet
508 326 m 1,0,-1
 267 326 l 1,1,-1
 267 96 l 2,2,3
 267 59 267 59 284.5 45 c 128,-1,4
 302 31 302 31 357 25 c 1,5,-1
 357 0 l 1,6,-1
 20 0 l 1,7,-1
 20 25 l 1,8,9
 72 32 72 32 88.5 45.5 c 128,-1,10
 105 59 105 59 105 96 c 2,11,-1
 105 580 l 2,12,13
 105 617 105 617 87.5 631.5 c 128,-1,14
 70 646 70 646 20 651 c 1,15,-1
 20 676 l 1,16,-1
 357 676 l 1,17,-1
 357 651 l 1,18,19
 305 647 305 647 286 632.5 c 128,-1,20
 267 618 267 618 267 580 c 2,21,-1
 267 373 l 1,22,-1
 508 373 l 1,23,-1
 508 580 l 2,24,25
 508 618 508 618 489 632.5 c 128,-1,26
 470 647 470 647 418 651 c 1,27,-1
 418 676 l 1,28,-1
 758 676 l 1,29,-1
 758 651 l 1,30,31
 707 647 707 647 688.5 632 c 128,-1,32
 670 617 670 617 670 580 c 2,33,-1
 670 96 l 2,34,35
 670 59 670 59 687 45.5 c 128,-1,36
 704 32 704 32 758 25 c 1,37,-1
 758 0 l 1,38,-1
 418 0 l 1,39,-1
 418 25 l 1,40,41
 473 31 473 31 490.5 45 c 128,-1,42
 508 59 508 59 508 96 c 2,43,-1
 508 326 l 1,0,-1
EndSplineSet
Substitution2: "'sups' Superscript lookup 24 subtable" uni1d34
Substitution2: "'c2sc' Capitals to Small Capitals in Latin lookup 4 subtable" sc.h
EndChar

StartChar: I
Encoding: 73 73 41
Width: 390
GlyphClass: 2
Flags: W
AnchorPoint: "Anchor-18" 196 351 basechar 0
AnchorPoint: "Anchor-9" 197 675 basechar 0
AnchorPoint: "Anchor-8" 280 0 basechar 0
AnchorPoint: "Anchor-7" 195 0 basechar 0
LayerCount: 2
Fore
SplineSet
113 96 m 2,0,-1
 113 580 l 2,1,2
 113 618 113 618 93.5 632.5 c 128,-1,3
 74 647 74 647 20 651 c 1,4,-1
 20 676 l 1,5,-1
 370 676 l 1,6,-1
 370 651 l 1,7,8
 315 649 315 649 295 634 c 128,-1,9
 275 619 275 619 275 580 c 2,10,-1
 275 96 l 2,11,12
 275 57 275 57 294 43 c 128,-1,13
 313 29 313 29 370 25 c 1,14,-1
 370 0 l 1,15,-1
 20 0 l 1,16,-1
 20 25 l 1,17,18
 76 30 76 30 94.5 44 c 128,-1,19
 113 58 113 58 113 96 c 2,0,-1
EndSplineSet
Substitution2: "'sups' Superscript lookup 24 subtable" uni1d35
Substitution2: "'c2sc' Capitals to Small Capitals in Latin lookup 4 subtable" sc.i
EndChar

StartChar: J
Encoding: 74 74 42
Width: 501
GlyphClass: 2
Flags: W
AnchorPoint: "Anchor-18" 312 351 basechar 0
AnchorPoint: "Anchor-9" 312 676 basechar 0
AnchorPoint: "Anchor-7" 302 -67 basechar 0
LayerCount: 2
Fore
SplineSet
148 33 m 0,0,1
 148 14 148 14 134.5 -3.5 c 128,-1,2
 121 -21 121 -21 121 -31 c 0,3,4
 121 -45 121 -45 133.5 -54 c 128,-1,5
 146 -63 146 -63 166 -63 c 0,6,7
 200 -63 200 -63 215 -42.5 c 128,-1,8
 230 -22 230 -22 230 24 c 2,9,-1
 230 580 l 2,10,11
 230 620 230 620 210 634.5 c 128,-1,12
 190 649 190 649 129 651 c 1,13,-1
 129 676 l 1,14,-1
 481 676 l 1,15,-1
 481 651 l 1,16,17
 425 647 425 647 408.5 630 c 128,-1,18
 392 613 392 613 392 559 c 2,19,-1
 392 123 l 2,20,21
 392 16 392 16 337.5 -40 c 128,-1,22
 283 -96 283 -96 178 -96 c 0,23,24
 104 -96 104 -96 54.5 -60 c 128,-1,25
 5 -24 5 -24 5 36 c 0,26,27
 5 65 5 65 26 86.5 c 128,-1,28
 47 108 47 108 75 108 c 0,29,30
 104 108 104 108 126 85.5 c 128,-1,31
 148 63 148 63 148 33 c 0,0,1
EndSplineSet
Substitution2: "'sups' Superscript lookup 24 subtable" uni1d36
Substitution2: "'c2sc' Capitals to Small Capitals in Latin lookup 4 subtable" sc.j
EndChar

StartChar: K
Encoding: 75 75 43
Width: 774
GlyphClass: 2
Flags: W
AnchorPoint: "Anchor-18" 318 351 basechar 0
AnchorPoint: "Anchor-9" 368 676 basechar 0
AnchorPoint: "Anchor-7" 369 0 basechar 0
LayerCount: 2
Fore
SplineSet
522 618 m 0,0,1
 522 637 522 637 505.5 642.5 c 128,-1,2
 489 648 489 648 437 651 c 1,3,-1
 437 676 l 1,4,-1
 726 676 l 1,5,-1
 726 651 l 1,6,7
 653 645 653 645 599.5 607 c 128,-1,8
 546 569 546 569 405 424 c 1,9,-1
 710 46 l 2,10,11
 727 26 727 26 759 25 c 1,12,-1
 759 0 l 1,13,-1
 423 0 l 1,14,-1
 423 25 l 1,15,16
 437 26 437 26 455 26 c 1,17,18
 502 29 502 29 502 46 c 0,19,20
 502 60 502 60 478 90 c 2,21,-1
 296 317 l 1,22,-1
 269 292 l 1,23,-1
 269 96 l 2,24,25
 269 59 269 59 286 45.5 c 128,-1,26
 303 32 303 32 357 25 c 1,27,-1
 357 0 l 1,28,-1
 20 0 l 1,29,-1
 20 25 l 1,30,31
 74 31 74 31 90.5 44.5 c 128,-1,32
 107 58 107 58 107 96 c 2,33,-1
 107 580 l 2,34,35
 107 619 107 619 89.5 633.5 c 128,-1,36
 72 648 72 648 20 651 c 1,37,-1
 20 676 l 1,38,-1
 358 676 l 1,39,-1
 358 651 l 1,40,41
 303 647 303 647 286 629.5 c 128,-1,42
 269 612 269 612 269 559 c 2,43,-1
 269 345 l 1,44,-1
 486 563 l 2,45,46
 509 586 509 586 515.5 596 c 128,-1,47
 522 606 522 606 522 618 c 0,0,1
EndSplineSet
Substitution2: "'sups' Superscript lookup 24 subtable" uni1d37
Substitution2: "'c2sc' Capitals to Small Capitals in Latin lookup 4 subtable" sc.k
EndChar

StartChar: L
Encoding: 76 76 44
Width: 668
GlyphClass: 2
Flags: W
AnchorPoint: "Anchor-18" 216 351 basechar 0
AnchorPoint: "Anchor-9" 396 676 basechar 0
AnchorPoint: "Anchor-7" 304 0 basechar 0
LayerCount: 2
Fore
SplineSet
348 31 m 0,0,1
 377 31 377 31 402.5 35 c 128,-1,2
 428 39 428 39 448 45 c 128,-1,3
 468 51 468 51 486.5 62.5 c 128,-1,4
 505 74 505 74 517.5 82 c 128,-1,5
 530 90 530 90 543 106.5 c 128,-1,6
 556 123 556 123 563 131.5 c 128,-1,7
 570 140 570 140 579 158 c 128,-1,8
 588 176 588 176 591 182.5 c 128,-1,9
 594 189 594 189 601.5 207 c 128,-1,10
 609 225 609 225 610 227 c 1,11,-1
 639 227 l 1,12,-1
 598 0 l 1,13,-1
 20 0 l 1,14,-1
 20 25 l 1,15,16
 75 32 75 32 90.5 45 c 128,-1,17
 106 58 106 58 106 96 c 2,18,-1
 106 580 l 2,19,20
 106 618 106 618 88.5 633 c 128,-1,21
 71 648 71 648 20 651 c 1,22,-1
 20 676 l 1,23,-1
 369 676 l 1,24,-1
 369 651 l 1,25,26
 304 648 304 648 286 631.5 c 128,-1,27
 268 615 268 615 268 559 c 2,28,-1
 268 87 l 2,29,30
 268 55 268 55 285 43 c 128,-1,31
 302 31 302 31 348 31 c 0,0,1
EndSplineSet
Substitution2: "'sups' Superscript lookup 24 subtable" uni1d38
Substitution2: "'c2sc' Capitals to Small Capitals in Latin lookup 4 subtable" sc.l
EndChar

StartChar: M
Encoding: 77 77 45
Width: 947
GlyphClass: 2
Flags: W
AnchorPoint: "Anchor-18" 422 351 basechar 0
AnchorPoint: "Anchor-9" 446 676 basechar 0
AnchorPoint: "Anchor-7" 418 0 basechar 0
LayerCount: 2
Fore
SplineSet
684 609 m 1,0,-1
 432 0 l 1,1,-1
 405 0 l 1,2,-1
 153 594 l 1,3,-1
 153 124 l 2,4,5
 153 68 153 68 173 48.5 c 128,-1,6
 193 29 193 29 254 25 c 1,7,-1
 254 0 l 1,8,-1
 20 0 l 1,9,-1
 20 25 l 1,10,11
 78 31 78 31 94.5 45.5 c 128,-1,12
 111 60 111 60 111 105 c 2,13,-1
 111 580 l 2,14,15
 111 619 111 619 94 633 c 128,-1,16
 77 647 77 647 22 651 c 1,17,-1
 22 676 l 1,18,-1
 275 676 l 1,19,-1
 475 204 l 1,20,-1
 675 676 l 1,21,-1
 927 676 l 1,22,-1
 927 651 l 1,23,24
 872 647 872 647 855.5 630 c 128,-1,25
 839 613 839 613 839 559 c 2,26,-1
 839 117 l 2,27,28
 839 64 839 64 854 48 c 128,-1,29
 869 32 869 32 927 25 c 1,30,-1
 927 0 l 1,31,-1
 595 0 l 1,32,-1
 595 25 l 1,33,34
 651 30 651 30 667.5 44 c 128,-1,35
 684 58 684 58 684 100 c 2,36,-1
 684 609 l 1,0,-1
EndSplineSet
Substitution2: "'sups' Superscript lookup 24 subtable" uni1d39
Substitution2: "'c2sc' Capitals to Small Capitals in Latin lookup 4 subtable" sc.m
EndChar

StartChar: N
Encoding: 78 78 46
Width: 725
GlyphClass: 2
Flags: W
AnchorPoint: "Anchor-18" 379 351 basechar 0
AnchorPoint: "Anchor-9" 380 676 basechar 0
AnchorPoint: "Anchor-7" 369 0 basechar 0
LayerCount: 2
Fore
SplineSet
234 676 m 1,0,-1
 583 247 l 1,1,-1
 583 552 l 2,2,3
 583 605 583 605 564 625.5 c 128,-1,4
 545 646 545 646 490 651 c 1,5,-1
 490 676 l 1,6,-1
 705 676 l 1,7,-1
 705 651 l 1,8,9
 656 643 656 643 641.5 628.5 c 128,-1,10
 627 614 627 614 627 571 c 2,11,-1
 627 -18 l 1,12,-1
 599 -18 l 1,13,-1
 152 526 l 1,14,-1
 152 124 l 2,15,16
 152 71 152 71 170.5 51.5 c 128,-1,17
 189 32 189 32 247 25 c 1,18,-1
 247 0 l 1,19,-1
 20 0 l 1,20,-1
 20 25 l 1,21,22
 75 32 75 32 91.5 47 c 128,-1,23
 108 62 108 62 108 105 c 2,24,-1
 108 579 l 1,25,26
 72 622 72 622 55 636.5 c 128,-1,27
 38 651 38 651 23 651 c 1,28,-1
 23 676 l 1,29,-1
 234 676 l 1,0,-1
EndSplineSet
Substitution2: "'sups' Superscript lookup 24 subtable" uni1d3a
Substitution2: "'c2sc' Capitals to Small Capitals in Latin lookup 4 subtable" sc.n
EndChar

StartChar: O
Encoding: 79 79 47
Width: 778
GlyphClass: 2
Flags: W
AnchorPoint: "Anchor-18" 392 351 basechar 0
AnchorPoint: "Anchor-9" 392 676 basechar 0
AnchorPoint: "Anchor-8" 450 0 basechar 0
AnchorPoint: "Anchor-7" 390 0 basechar 0
LayerCount: 2
Fore
SplineSet
393 691 m 0,0,1
 544 691 544 691 643.5 590 c 128,-1,2
 743 489 743 489 743 336 c 0,3,4
 743 181 743 181 643.5 81 c 128,-1,5
 544 -19 544 -19 389 -19 c 128,-1,6
 234 -19 234 -19 134.5 80.5 c 128,-1,7
 35 180 35 180 35 335 c 0,8,9
 35 491 35 491 135.5 591 c 128,-1,10
 236 691 236 691 393 691 c 0,0,1
392 658 m 0,11,12
 304 658 304 658 258 573 c 128,-1,13
 212 488 212 488 212 326 c 0,14,15
 212 174 212 174 257.5 94 c 128,-1,16
 303 14 303 14 389 14 c 128,-1,17
 475 14 475 14 520.5 94.5 c 128,-1,18
 566 175 566 175 566 329 c 0,19,20
 566 485 566 485 520.5 571.5 c 128,-1,21
 475 658 475 658 392 658 c 0,11,12
EndSplineSet
Substitution2: "'sups' Superscript lookup 24 subtable" uni1d3c
Substitution2: "'c2sc' Capitals to Small Capitals in Latin lookup 4 subtable" sc.o
EndChar

StartChar: P
Encoding: 80 80 48
Width: 639
GlyphClass: 2
Flags: W
AnchorPoint: "Anchor-18" 318 351 basechar 0
AnchorPoint: "Anchor-9" 331 676 basechar 0
AnchorPoint: "Anchor-7" 273 0 basechar 0
LayerCount: 2
Fore
SplineSet
266 303 m 1,0,-1
 266 117 l 2,1,2
 266 62 266 62 280.5 47.5 c 128,-1,3
 295 33 295 33 354 25 c 1,4,-1
 354 0 l 1,5,-1
 20 0 l 1,6,-1
 20 25 l 1,7,8
 42 29 42 29 44 29 c 0,9,10
 79 33 79 33 91.5 51.5 c 128,-1,11
 104 70 104 70 104 117 c 2,12,-1
 104 559 l 2,13,14
 104 612 104 612 88 629.5 c 128,-1,15
 72 647 72 647 20 651 c 1,16,-1
 20 676 l 1,17,-1
 342 676 l 2,18,19
 467 676 467 676 535.5 628.5 c 128,-1,20
 604 581 604 581 604 494 c 0,21,22
 604 436 604 436 571.5 392 c 128,-1,23
 539 348 539 348 479 325 c 0,24,25
 446 312 446 312 407 308 c 128,-1,26
 368 304 368 304 266 303 c 1,0,-1
266 338 m 1,27,28
 364 338 364 338 398 368 c 128,-1,29
 432 398 432 398 432 489 c 0,30,31
 432 570 432 570 405 605.5 c 128,-1,32
 378 641 378 641 316 641 c 0,33,34
 266 641 266 641 266 606 c 2,35,-1
 266 338 l 1,27,28
EndSplineSet
Substitution2: "'sups' Superscript lookup 24 subtable" uni1d3e
Substitution2: "'c2sc' Capitals to Small Capitals in Latin lookup 4 subtable" sc.p
EndChar

StartChar: Q
Encoding: 81 81 49
Width: 778
GlyphClass: 2
Flags: W
AnchorPoint: "Anchor-18" 388 351 basechar 0
AnchorPoint: "Anchor-9" 388 676 basechar 0
LayerCount: 2
Fore
SplineSet
490 -6 m 1,0,1
 550 -129 550 -129 663 -129 c 0,2,3
 687 -129 687 -129 730 -117 c 1,4,-1
 736 -141 l 1,5,6
 639 -176 639 -176 557 -176 c 0,7,8
 417 -176 417 -176 329 -88 c 0,9,10
 300 -59 300 -59 273 -2 c 1,11,12
 216 19 216 19 185.5 38.5 c 128,-1,13
 155 58 155 58 124 92 c 0,14,15
 35 190 35 190 35 331 c 0,16,17
 35 487 35 487 135.5 589 c 128,-1,18
 236 691 236 691 389 691 c 0,19,20
 544 691 544 691 643.5 590.5 c 128,-1,21
 743 490 743 490 743 334 c 0,22,23
 743 186 743 186 649 86 c 0,24,25
 617 52 617 52 584 33 c 128,-1,26
 551 14 551 14 490 -6 c 1,0,1
390 658 m 0,27,28
 304 658 304 658 258 573 c 128,-1,29
 212 488 212 488 212 331 c 0,30,31
 212 175 212 175 257 94.5 c 128,-1,32
 302 14 302 14 389 14 c 0,33,34
 475 14 475 14 520.5 95 c 128,-1,35
 566 176 566 176 566 330 c 0,36,37
 566 486 566 486 520 572 c 128,-1,38
 474 658 474 658 390 658 c 0,27,28
EndSplineSet
Substitution2: "'c2sc' Capitals to Small Capitals in Latin lookup 4 subtable" sc.q
EndChar

StartChar: R
Encoding: 82 82 50
Width: 719
GlyphClass: 2
Flags: W
AnchorPoint: "Anchor-18" 339 351 basechar 0
AnchorPoint: "Anchor-9" 340 676 basechar 0
AnchorPoint: "Anchor-7" 334 0 basechar 0
LayerCount: 2
Fore
SplineSet
624 498 m 0,0,1
 624 467 624 467 614.5 441 c 128,-1,2
 605 415 605 415 591.5 398.5 c 128,-1,3
 578 382 578 382 555.5 368 c 128,-1,4
 533 354 533 354 513.5 346 c 128,-1,5
 494 338 494 338 467 329 c 1,6,-1
 668 44 l 1,7,8
 683 25 683 25 709 25 c 1,9,-1
 709 0 l 1,10,-1
 504 0 l 1,11,-1
 297 313 l 1,12,-1
 270 313 l 1,13,-1
 270 117 l 2,14,15
 270 64 270 64 285 48 c 128,-1,16
 300 32 300 32 358 25 c 1,17,-1
 358 0 l 1,18,-1
 20 0 l 1,19,-1
 20 25 l 1,20,21
 79 32 79 32 93.5 47 c 128,-1,22
 108 62 108 62 108 117 c 2,23,-1
 108 559 l 2,24,25
 108 613 108 613 91.5 630 c 128,-1,26
 75 647 75 647 20 651 c 1,27,-1
 20 676 l 1,28,-1
 342 676 l 2,29,30
 479 676 479 676 551.5 630 c 128,-1,31
 624 584 624 584 624 498 c 0,0,1
324 642 m 0,32,33
 270 642 270 642 270 600 c 2,34,-1
 270 345 l 1,35,36
 377 347 377 347 415 376 c 128,-1,37
 453 405 453 405 453 494 c 0,38,39
 453 573 453 573 423 607.5 c 128,-1,40
 393 642 393 642 324 642 c 0,32,33
EndSplineSet
Substitution2: "'sups' Superscript lookup 24 subtable" uni1d3f
Substitution2: "'c2sc' Capitals to Small Capitals in Latin lookup 4 subtable" sc.r
EndChar

StartChar: S
Encoding: 83 83 51
Width: 568
GlyphClass: 2
Flags: W
AnchorPoint: "Anchor-18" 282 351 basechar 0
AnchorPoint: "Anchor-9" 285 676 basechar 0
AnchorPoint: "Anchor-7" 280 0 basechar 0
LayerCount: 2
Fore
SplineSet
273 691 m 0,0,1
 321 691 321 691 373 674.5 c 128,-1,2
 425 658 425 658 432 658 c 0,3,4
 445 658 445 658 452 665.5 c 128,-1,5
 459 673 459 673 464 692 c 1,6,-1
 494 692 l 1,7,-1
 494 475 l 1,8,-1
 466 475 l 1,9,10
 437 570 437 570 385.5 615 c 128,-1,11
 334 660 334 660 273 660 c 0,12,13
 222 660 222 660 192.5 633 c 128,-1,14
 163 606 163 606 163 560 c 0,15,16
 163 524 163 524 184.5 500.5 c 128,-1,17
 206 477 206 477 266 447 c 2,18,-1
 413 374 l 2,19,20
 461 350 461 350 492 299 c 128,-1,21
 523 248 523 248 523 192 c 0,22,23
 523 98 523 98 454.5 39.5 c 128,-1,24
 386 -19 386 -19 275 -19 c 0,25,26
 221 -19 221 -19 167.5 -2 c 128,-1,27
 114 15 114 15 104 15 c 0,28,29
 82 15 82 15 74 -19 c 1,30,-1
 45 -19 l 1,31,-1
 45 228 l 1,32,-1
 74 228 l 1,33,34
 126 14 126 14 278 14 c 0,35,36
 336 14 336 14 370 45 c 128,-1,37
 404 76 404 76 404 128 c 0,38,39
 404 167 404 167 381 192 c 128,-1,40
 358 217 358 217 292 248 c 2,41,-1
 225 280 l 2,42,43
 136 323 136 323 95 372.5 c 128,-1,44
 54 422 54 422 54 488 c 0,45,46
 54 583 54 583 112.5 637 c 128,-1,47
 171 691 171 691 273 691 c 0,0,1
EndSplineSet
Substitution2: "'c2sc' Capitals to Small Capitals in Latin lookup 4 subtable" sc.s
EndChar

StartChar: T
Encoding: 84 84 52
Width: 645
GlyphClass: 2
Flags: W
AnchorPoint: "Anchor-18" 324 351 basechar 0
AnchorPoint: "Anchor-9" 321 676 basechar 0
AnchorPoint: "Anchor-7" 327 0 basechar 0
LayerCount: 2
Fore
SplineSet
242 117 m 2,0,-1
 242 644 l 1,1,2
 149 641 149 641 105.5 602.5 c 128,-1,3
 62 564 62 564 49 475 c 1,4,-1
 20 475 l 1,5,-1
 23 676 l 1,6,-1
 623 676 l 1,7,-1
 625 475 l 1,8,-1
 596 475 l 1,9,10
 583 564 583 564 539.5 602.5 c 128,-1,11
 496 641 496 641 404 644 c 1,12,-1
 404 117 l 2,13,14
 404 60 404 60 420.5 45 c 128,-1,15
 437 30 437 30 502 25 c 1,16,-1
 502 0 l 1,17,-1
 145 0 l 1,18,-1
 145 25 l 1,19,20
 209 30 209 30 225.5 45.5 c 128,-1,21
 242 61 242 61 242 117 c 2,0,-1
EndSplineSet
Substitution2: "'sups' Superscript lookup 24 subtable" uni1d40
Substitution2: "'c2sc' Capitals to Small Capitals in Latin lookup 4 subtable" sc.t
EndChar

StartChar: U
Encoding: 85 85 53
Width: 725
GlyphClass: 2
Flags: W
AnchorPoint: "Anchor-18" 389 351 basechar 0
AnchorPoint: "Anchor-9" 394 676 basechar 0
AnchorPoint: "Anchor-8" 454 0 basechar 0
AnchorPoint: "Anchor-7" 370 0 basechar 0
LayerCount: 2
Fore
SplineSet
358 651 m 1,0,1
 298 649 298 649 279.5 632.5 c 128,-1,2
 261 616 261 616 261 559 c 2,3,-1
 261 225 l 2,4,5
 261 123 261 123 296 76.5 c 128,-1,6
 331 30 331 30 408 30 c 0,7,8
 497 30 497 30 540 83 c 128,-1,9
 583 136 583 136 583 247 c 2,10,-1
 583 552 l 2,11,12
 583 607 583 607 563.5 626.5 c 128,-1,13
 544 646 544 646 485 651 c 1,14,-1
 485 676 l 1,15,-1
 705 676 l 1,16,-1
 705 651 l 1,17,18
 657 644 657 644 642 627 c 128,-1,19
 627 610 627 610 627 566 c 2,20,-1
 627 247 l 2,21,22
 627 -19 627 -19 369 -19 c 0,23,24
 257 -19 257 -19 184 34 c 0,25,26
 138 67 138 67 120 109 c 128,-1,27
 102 151 102 151 102 225 c 2,28,-1
 102 559 l 2,29,30
 102 613 102 613 87.5 629.5 c 128,-1,31
 73 646 73 646 20 651 c 1,32,-1
 20 676 l 1,33,-1
 358 676 l 1,34,-1
 358 651 l 1,0,1
EndSplineSet
Substitution2: "'sups' Superscript lookup 24 subtable" uni1d41
Substitution2: "'c2sc' Capitals to Small Capitals in Latin lookup 4 subtable" sc.u
EndChar

StartChar: V
Encoding: 86 86 54
Width: 705
GlyphClass: 2
Flags: W
AnchorPoint: "Anchor-18" 367 351 basechar 0
AnchorPoint: "Anchor-9" 378 676 basechar 0
AnchorPoint: "Anchor-7" 364 0 basechar 0
LayerCount: 2
Fore
SplineSet
695 676 m 1,0,-1
 695 651 l 1,1,2
 656 646 656 646 639.5 631 c 128,-1,3
 623 616 623 616 605 569 c 2,4,-1
 377 -18 l 1,5,-1
 350 -18 l 1,6,-1
 94 581 l 1,7,8
 75 622 75 622 61 634 c 128,-1,9
 47 646 47 646 10 651 c 1,10,-1
 10 676 l 1,11,-1
 346 676 l 1,12,-1
 346 651 l 1,13,14
 316 649 316 649 313 649 c 0,15,16
 260 646 260 646 260 613 c 0,17,18
 260 595 260 595 283 541 c 2,19,-1
 421 207 l 1,20,-1
 548 536 l 2,21,22
 568 587 568 587 568 607 c 0,23,24
 568 631 568 631 552 639 c 128,-1,25
 536 647 536 647 482 651 c 1,26,-1
 482 676 l 1,27,-1
 695 676 l 1,0,-1
EndSplineSet
Substitution2: "'c2sc' Capitals to Small Capitals in Latin lookup 4 subtable" sc.v
EndChar

StartChar: W
Encoding: 87 87 55
Width: 982
GlyphClass: 2
Flags: W
AnchorPoint: "Anchor-18" 500 351 basechar 0
AnchorPoint: "Anchor-9" 515 676 basechar 0
AnchorPoint: "Anchor-7" 509 0 basechar 0
LayerCount: 2
Fore
SplineSet
972 676 m 1,0,-1
 972 651 l 1,1,2
 922 646 922 646 903 587 c 2,3,-1
 703 -15 l 1,4,-1
 676 -15 l 1,5,-1
 505 462 l 1,6,-1
 319 -15 l 1,7,-1
 291 -15 l 1,8,-1
 79 587 l 2,9,10
 66 624 66 624 54 635 c 128,-1,11
 42 646 42 646 10 651 c 1,12,-1
 10 676 l 1,13,-1
 304 676 l 1,14,-1
 304 651 l 1,15,16
 265 648 265 648 252.5 639.5 c 128,-1,17
 240 631 240 631 240 609 c 0,18,19
 240 598 240 598 247 576 c 2,20,-1
 367 212 l 1,21,-1
 485 520 l 1,22,-1
 450 616 l 1,23,24
 435 648 435 648 378 651 c 1,25,-1
 378 676 l 1,26,-1
 690 676 l 1,27,-1
 690 651 l 1,28,29
 684 650 684 650 677 650 c 0,30,31
 644 648 644 648 631 640 c 128,-1,32
 618 632 618 632 618 614 c 0,33,34
 618 603 618 603 632 558 c 2,35,-1
 740 222 l 1,36,-1
 852 565 l 2,37,38
 859 585 859 585 859 607 c 0,39,40
 859 630 859 630 844.5 639.5 c 128,-1,41
 830 649 830 649 790 651 c 1,42,-1
 790 676 l 1,43,-1
 972 676 l 1,0,-1
EndSplineSet
Substitution2: "'sups' Superscript lookup 24 subtable" uni1d42
Substitution2: "'c2sc' Capitals to Small Capitals in Latin lookup 4 subtable" sc.w
EndChar

StartChar: X
Encoding: 88 88 56
Width: 713
GlyphClass: 2
Flags: W
AnchorPoint: "Anchor-18" 361 351 basechar 0
AnchorPoint: "Anchor-9" 376 676 basechar 0
AnchorPoint: "Anchor-7" 362 0 basechar 0
LayerCount: 2
Fore
SplineSet
514 614 m 0,0,1
 514 638 514 638 495 644 c 0,2,3
 488 646 488 646 442 651 c 1,4,-1
 442 676 l 1,5,-1
 692 676 l 1,6,-1
 692 651 l 1,7,8
 636 646 636 646 603 620 c 128,-1,9
 570 594 570 594 504 505 c 1,10,-1
 424 394 l 1,11,-1
 606 111 l 1,12,13
 642 57 642 57 659.5 41.5 c 128,-1,14
 677 26 677 26 703 25 c 1,15,-1
 703 0 l 1,16,-1
 363 0 l 1,17,-1
 363 25 l 1,18,19
 389 27 389 27 391 27 c 0,20,21
 443 30 443 30 443 55 c 0,22,23
 443 76 443 76 422 109 c 2,24,-1
 321 271 l 1,25,-1
 283 220 l 2,26,27
 227 144 227 144 208 113 c 128,-1,28
 189 82 189 82 189 66 c 0,29,30
 189 47 189 47 206.5 38.5 c 128,-1,31
 224 30 224 30 270 25 c 1,32,-1
 270 0 l 1,33,-1
 20 0 l 1,34,-1
 20 25 l 1,35,36
 57 29 57 29 79 41 c 128,-1,37
 101 53 101 53 124 81 c 2,38,-1
 299 302 l 1,39,-1
 101 593 l 2,40,41
 78 627 78 627 63 638 c 128,-1,42
 48 649 48 649 21 651 c 1,43,-1
 21 676 l 1,44,-1
 367 676 l 1,45,-1
 367 651 l 1,46,47
 339 649 339 649 336 649 c 0,48,49
 309 648 309 648 298.5 641 c 128,-1,50
 288 634 288 634 288 618 c 0,51,52
 288 604 288 604 303 581 c 2,53,-1
 400 431 l 1,54,55
 416 454 416 454 439 485 c 128,-1,56
 462 516 462 516 472.5 530 c 128,-1,57
 483 544 483 544 494.5 562 c 128,-1,58
 506 580 506 580 510 591.5 c 128,-1,59
 514 603 514 603 514 614 c 0,0,1
EndSplineSet
Substitution2: "'c2sc' Capitals to Small Capitals in Latin lookup 4 subtable" sc.x
EndChar

StartChar: Y
Encoding: 89 89 57
Width: 704
GlyphClass: 2
Flags: W
AnchorPoint: "Anchor-18" 359 351 basechar 0
AnchorPoint: "Anchor-9" 375 676 basechar 0
AnchorPoint: "Anchor-8" 445 0 basechar 0
AnchorPoint: "Anchor-7" 351 0 basechar 0
LayerCount: 2
Fore
SplineSet
694 676 m 1,0,-1
 694 651 l 1,1,2
 645 644 645 644 626 612 c 2,3,-1
 435 301 l 1,4,-1
 435 117 l 2,5,6
 435 62 435 62 450.5 46.5 c 128,-1,7
 466 31 466 31 527 25 c 1,8,-1
 527 0 l 1,9,-1
 180 0 l 1,10,-1
 180 25 l 1,11,12
 241 31 241 31 257 46.5 c 128,-1,13
 273 62 273 62 273 117 c 2,14,-1
 273 264 l 1,15,-1
 90 596 l 1,16,17
 59 648 59 648 10 651 c 1,18,-1
 10 676 l 1,19,-1
 345 676 l 1,20,-1
 345 651 l 1,21,-1
 320 650 l 1,22,23
 289 650 289 650 276.5 643 c 128,-1,24
 264 636 264 636 264 620 c 0,25,26
 264 610 264 610 269 598.5 c 128,-1,27
 274 587 274 587 280.5 576 c 128,-1,28
 287 565 287 565 288 561 c 2,29,-1
 408 329 l 1,30,-1
 519 514 l 2,31,32
 558 578 558 578 558 609 c 0,33,34
 558 631 558 631 541 639 c 128,-1,35
 524 647 524 647 474 651 c 1,36,-1
 474 676 l 1,37,-1
 694 676 l 1,0,-1
EndSplineSet
Substitution2: "'c2sc' Capitals to Small Capitals in Latin lookup 4 subtable" sc.y
EndChar

StartChar: Z
Encoding: 90 90 58
Width: 646
GlyphClass: 2
Flags: W
AnchorPoint: "Anchor-18" 306 351 basechar 0
AnchorPoint: "Anchor-9" 360 676 basechar 0
AnchorPoint: "Anchor-7" 345 0 basechar 0
LayerCount: 2
Fore
SplineSet
291 35 m 2,0,1
 381 35 381 35 439 48 c 128,-1,2
 497 61 497 61 528 94 c 128,-1,3
 559 127 559 127 570 150.5 c 128,-1,4
 581 174 581 174 596 228 c 0,5,6
 599 237 599 237 600 241 c 1,7,-1
 626 241 l 1,8,-1
 600 0 l 1,9,-1
 20 0 l 1,10,-1
 20 16 l 1,11,-1
 402 641 l 1,12,13
 383 640 383 640 354 639 c 128,-1,14
 325 638 325 638 319 638 c 0,15,16
 207 638 207 638 161 606 c 128,-1,17
 115 574 115 574 79 470 c 1,18,-1
 51 470 l 1,19,-1
 72 676 l 1,20,-1
 596 676 l 1,21,-1
 596 660 l 1,22,-1
 217 35 l 1,23,-1
 291 35 l 2,0,1
EndSplineSet
Substitution2: "'c2sc' Capitals to Small Capitals in Latin lookup 4 subtable" sc.z
EndChar

StartChar: bracketleft
Encoding: 91 91 59
Width: 333
GlyphClass: 2
Flags: W
LayerCount: 2
Fore
SplineSet
301 -116 m 1,0,-1
 301 -149 l 1,1,-1
 67 -149 l 1,2,-1
 67 678 l 1,3,-1
 301 678 l 1,4,-1
 301 645 l 1,5,-1
 238 645 l 2,6,7
 196 645 196 645 183.5 632 c 128,-1,8
 171 619 171 619 171 575 c 2,9,-1
 171 -63 l 2,10,11
 171 -95 171 -95 180.5 -105.5 c 128,-1,12
 190 -116 190 -116 221 -116 c 2,13,-1
 301 -116 l 1,0,-1
EndSplineSet
EndChar

StartChar: backslash
Encoding: 92 92 60
Width: 278
GlyphClass: 2
Flags: W
LayerCount: 2
Fore
SplineSet
211 -19 m 1,0,-1
 -25 691 l 1,1,-1
 68 691 l 1,2,-1
 303 -19 l 1,3,-1
 211 -19 l 1,0,-1
EndSplineSet
EndChar

StartChar: bracketright
Encoding: 93 93 61
Width: 333
GlyphClass: 2
Flags: W
LayerCount: 2
Fore
SplineSet
32 -149 m 1,0,-1
 32 -116 l 1,1,-1
 112 -116 l 2,2,3
 143 -116 143 -116 152.5 -106 c 128,-1,4
 162 -96 162 -96 162 -63 c 2,5,-1
 162 575 l 2,6,7
 162 619 162 619 149.5 632 c 128,-1,8
 137 645 137 645 95 645 c 2,9,-1
 32 645 l 1,10,-1
 32 678 l 1,11,-1
 266 678 l 1,12,-1
 266 -149 l 1,13,-1
 32 -149 l 1,0,-1
EndSplineSet
EndChar

StartChar: asciicircum
Encoding: 94 94 62
Width: 581
GlyphClass: 2
Flags: W
LayerCount: 2
Fore
SplineSet
162 311 m 1,0,-1
 73 311 l 1,1,-1
 251 676 l 1,2,-1
 331 676 l 1,3,-1
 509 311 l 1,4,-1
 420 311 l 1,5,-1
 291 583 l 1,6,-1
 162 311 l 1,0,-1
EndSplineSet
EndChar

StartChar: underscore
Encoding: 95 95 63
Width: 500
GlyphClass: 2
Flags: W
LayerCount: 2
Fore
SplineSet
500 -155 m 1,0,-1
 0 -155 l 1,1,-1
 0 -75 l 1,2,-1
 500 -75 l 1,3,-1
 500 -155 l 1,0,-1
EndSplineSet
EndChar

StartChar: grave
Encoding: 96 96 64
Width: 333
GlyphClass: 2
Flags: W
LayerCount: 2
Fore
SplineSet
246 528 m 1,0,-1
 190 528 l 1,1,-1
 48 616 l 2,2,3
 8 641 8 641 8 668 c 0,4,5
 8 687 8 687 21.5 700 c 128,-1,6
 35 713 35 713 55 713 c 0,7,8
 84 713 84 713 109 685 c 2,9,-1
 246 528 l 1,0,-1
EndSplineSet
EndChar

StartChar: a
Encoding: 97 97 65
Width: 500
GlyphClass: 2
Flags: W
AnchorPoint: "Anchor-18" 246 244 basechar 0
AnchorPoint: "Anchor-17" 360 473 basechar 0
AnchorPoint: "Anchor-9" 244 470 basechar 0
AnchorPoint: "Anchor-8" 381 0 basechar 0
AnchorPoint: "Anchor-7" 257 0 basechar 0
LayerCount: 2
Fore
SplineSet
147 404 m 0,0,1
 147 399 147 399 162 377.5 c 128,-1,2
 177 356 177 356 177 339 c 0,3,4
 177 313 177 313 158 297 c 128,-1,5
 139 281 139 281 109 281 c 0,6,7
 78 281 78 281 61 298.5 c 128,-1,8
 44 316 44 316 44 347 c 0,9,10
 44 403 44 403 96 438 c 128,-1,11
 148 473 148 473 233 473 c 0,12,13
 324 473 324 473 377.5 436 c 128,-1,14
 431 399 431 399 431 336 c 2,15,-1
 431 75 l 2,16,17
 431 50 431 50 452 50 c 0,18,19
 459 50 459 50 463 54 c 2,20,-1
 473 64 l 1,21,-1
 488 43 l 1,22,23
 435 -14 435 -14 376 -14 c 0,24,25
 339 -14 339 -14 320.5 2 c 128,-1,26
 302 18 302 18 294 56 c 1,27,28
 217 -14 217 -14 136 -14 c 0,29,30
 88 -14 88 -14 56.5 16 c 128,-1,31
 25 46 25 46 25 92 c 0,32,33
 25 123 25 123 41.5 149.5 c 128,-1,34
 58 176 58 176 80 193 c 128,-1,35
 102 210 102 210 140.5 227 c 128,-1,36
 179 244 179 244 206 253 c 128,-1,37
 233 262 233 262 277 275 c 0,38,39
 288 278 288 278 294 280 c 1,40,-1
 294 353 l 2,41,42
 294 399 294 399 274 420 c 128,-1,43
 254 441 254 441 210 441 c 0,44,45
 184 441 184 441 165.5 430.5 c 128,-1,46
 147 420 147 420 147 404 c 0,0,1
293 100 m 1,47,-1
 293 245 l 1,48,49
 171 213 171 213 171 124 c 0,50,51
 171 94 171 94 185 75.5 c 128,-1,52
 199 57 199 57 222 57 c 0,53,54
 256 57 256 57 293 100 c 1,47,-1
EndSplineSet
Substitution2: "'sups' Superscript lookup 24 subtable" uni1d43
Substitution2: "'subs' Subscript lookup 23 subtable" uni2090
Substitution2: "'smcp' Lowercase to Small Capitals in Latin lookup 2 subtable" sc.a
EndChar

StartChar: b
Encoding: 98 98 66
Width: 545
GlyphClass: 2
Flags: W
AnchorPoint: "Anchor-18" 278 244 basechar 0
AnchorPoint: "Anchor-17" 411 473 basechar 0
AnchorPoint: "Anchor-9" 285 676 basechar 0
AnchorPoint: "Anchor-7" 297 0 basechar 0
LayerCount: 2
Fore
SplineSet
210 676 m 1,0,-1
 210 417 l 1,1,2
 263 473 263 473 332 473 c 0,3,4
 415 473 415 473 467.5 408 c 128,-1,5
 520 343 520 343 520 239 c 0,6,7
 520 127 520 127 457 56.5 c 128,-1,8
 394 -14 394 -14 294 -14 c 0,9,10
 226 -14 226 -14 162 43 c 1,11,-1
 83 -13 l 1,12,-1
 71 -13 l 1,13,-1
 71 594 l 2,14,15
 71 624 71 624 61.5 634.5 c 128,-1,16
 52 645 52 645 18 652 c 1,17,-1
 18 676 l 1,18,-1
 210 676 l 1,0,-1
210 360 m 1,19,-1
 210 97 l 2,20,21
 210 61 210 61 229 39.5 c 128,-1,22
 248 18 248 18 279 18 c 0,23,24
 373 18 373 18 373 221 c 0,25,26
 373 419 373 419 280 419 c 0,27,28
 233 419 233 419 210 360 c 1,19,-1
EndSplineSet
Substitution2: "'sups' Superscript lookup 24 subtable" uni1d47
Substitution2: "'subs' Subscript lookup 23 subtable" sub.b
Substitution2: "'smcp' Lowercase to Small Capitals in Latin lookup 2 subtable" sc.b
EndChar

StartChar: c
Encoding: 99 99 67
Width: 435
GlyphClass: 2
Flags: W
AnchorPoint: "Anchor-18" 246 244 basechar 0
AnchorPoint: "Anchor-17" 323 473 basechar 0
AnchorPoint: "Anchor-9" 254 470 basechar 0
AnchorPoint: "Anchor-7" 244 0 basechar 0
LayerCount: 2
Fore
SplineSet
412 109 m 5,0,-1
 430 91 l 5,1,2
 386 35 386 35 341.5 10.5 c 132,-1,3
 297 -14 297 -14 239 -14 c 4,4,5
 146 -14 146 -14 85.5 53 c 132,-1,6
 25 120 25 120 25 223 c 4,7,8
 25 331 25 331 92 402 c 132,-1,9
 159 473 159 473 261 473 c 4,10,11
 327 473 327 473 371.5 441.5 c 132,-1,12
 416 410 416 410 416 363 c 4,13,14
 416 334 416 334 398 317 c 132,-1,15
 380 300 380 300 348 300 c 4,16,17
 293 300 293 300 292 372 c 4,18,19
 292 414 292 414 287 423 c 4,20,21
 277 442 277 442 250 442 c 4,22,23
 211 442 211 442 188.5 397.5 c 132,-1,24
 166 353 166 353 166 276 c 4,25,26
 166 174 166 174 204.5 113.5 c 132,-1,27
 243 53 243 53 308 53 c 4,28,29
 339 53 339 53 361.5 65.5 c 132,-1,30
 384 78 384 78 412 109 c 5,0,-1
EndSplineSet
Substitution2: "'sups' Superscript lookup 24 subtable" uni1d9c
Substitution2: "'subs' Subscript lookup 23 subtable" sub.c
Substitution2: "'smcp' Lowercase to Small Capitals in Latin lookup 2 subtable" sc.c
EndChar

StartChar: d
Encoding: 100 100 68
Width: 552
GlyphClass: 2
Flags: W
AnchorPoint: "Anchor-18" 246 244 basechar 0
AnchorPoint: "Anchor-17" 520 473 basechar 0
AnchorPoint: "Anchor-9" 213 676 basechar 0
AnchorPoint: "Anchor-7" 270 0 basechar 0
LayerCount: 2
Fore
SplineSet
339 -13 m 1,0,-1
 339 52 l 1,1,2
 304 15 304 15 275 0.5 c 128,-1,3
 246 -14 246 -14 206 -14 c 0,4,5
 127 -14 127 -14 76 52.5 c 128,-1,6
 25 119 25 119 25 221 c 0,7,8
 25 330 25 330 79.5 401.5 c 128,-1,9
 134 473 134 473 217 473 c 0,10,11
 251 473 251 473 277.5 459.5 c 128,-1,12
 304 446 304 446 336 411 c 1,13,-1
 336 594 l 2,14,15
 336 629 336 629 323 638.5 c 128,-1,16
 310 648 310 648 260 652 c 1,17,-1
 260 676 l 1,18,-1
 475 676 l 1,19,-1
 475 101 l 2,20,21
 475 69 475 69 487.5 57 c 128,-1,22
 500 45 500 45 534 43 c 1,23,-1
 534 20 l 1,24,-1
 472 12 l 2,25,26
 390 1 390 1 339 -13 c 1,0,-1
251 42 m 0,27,28
 284 42 284 42 310 70.5 c 128,-1,29
 336 99 336 99 336 112 c 2,30,-1
 336 355 l 1,31,32
 326 383 326 383 304.5 400 c 128,-1,33
 283 417 283 417 258 417 c 0,34,35
 173 417 173 417 173 229 c 0,36,37
 173 42 173 42 251 42 c 0,27,28
EndSplineSet
Substitution2: "'sups' Superscript lookup 24 subtable" uni1d48
Substitution2: "'subs' Subscript lookup 23 subtable" sub.d
Substitution2: "'smcp' Lowercase to Small Capitals in Latin lookup 2 subtable" sc.d
EndChar

StartChar: e
Encoding: 101 101 69
Width: 444
GlyphClass: 2
Flags: W
AnchorPoint: "Anchor-18" 246 244 basechar 0
AnchorPoint: "Anchor-17" 330 473 basechar 0
AnchorPoint: "Anchor-9" 244 470 basechar 0
AnchorPoint: "Anchor-8" 275 0 basechar 0
AnchorPoint: "Anchor-7" 236 0 basechar 0
LayerCount: 2
Fore
SplineSet
169 245 m 1,0,1
 170 218 170 218 173 196.5 c 128,-1,2
 176 175 176 175 183.5 147.5 c 128,-1,3
 191 120 191 120 203.5 102 c 128,-1,4
 216 84 216 84 237.5 71 c 128,-1,5
 259 58 259 58 288 58 c 0,6,7
 320 58 320 58 346 73 c 128,-1,8
 372 88 372 88 402 125 c 1,9,-1
 426 111 l 1,10,11
 377 41 377 41 334.5 13.5 c 128,-1,12
 292 -14 292 -14 231 -14 c 0,13,14
 138 -14 138 -14 81.5 52.5 c 128,-1,15
 25 119 25 119 25 228 c 0,16,17
 25 338 25 338 82.5 405.5 c 128,-1,18
 140 473 140 473 234 473 c 0,19,20
 405 473 405 473 421 245 c 1,21,-1
 169 245 l 1,0,1
298 297 m 1,22,23
 297 329 297 329 296 346 c 128,-1,24
 295 363 295 363 291 384.5 c 128,-1,25
 287 406 287 406 280.5 416.5 c 128,-1,26
 274 427 274 427 262.5 434.5 c 128,-1,27
 251 442 251 442 234 442 c 0,28,29
 197 442 197 442 181.5 407 c 128,-1,30
 166 372 166 372 164 282 c 1,31,-1
 298 282 l 1,32,-1
 298 297 l 1,22,23
EndSplineSet
Substitution2: "'sups' Superscript lookup 24 subtable" uni1d49
Substitution2: "'subs' Subscript lookup 23 subtable" uni2091
Substitution2: "'smcp' Lowercase to Small Capitals in Latin lookup 2 subtable" sc.e
EndChar

StartChar: f
Encoding: 102 102 70
Width: 393
GlyphClass: 2
Flags: W
AnchorPoint: "Anchor-18" 147 244 basechar 0
AnchorPoint: "Anchor-17" 414 473 basechar 0
AnchorPoint: "Anchor-9" 256 676 basechar 0
AnchorPoint: "Anchor-7" 208 0 basechar 0
LayerCount: 2
Fore
SplineSet
271 584 m 0,0,1
 271 597 271 597 282 616.5 c 128,-1,2
 293 636 293 636 293 641 c 0,3,4
 293 660 293 660 264 660 c 0,5,6
 238 660 238 660 226 642 c 128,-1,7
 214 624 214 624 214 583 c 2,8,-1
 214 461 l 1,9,-1
 301 461 l 1,10,-1
 301 417 l 1,11,-1
 214 417 l 1,12,-1
 214 103 l 2,13,14
 214 54 214 54 229 39.5 c 128,-1,15
 244 25 244 25 296 24 c 1,16,-1
 296 0 l 1,17,-1
 18 0 l 1,18,-1
 18 24 l 1,19,20
 52 28 52 28 63.5 40 c 128,-1,21
 75 52 75 52 75 84 c 2,22,-1
 75 417 l 1,23,-1
 18 417 l 1,24,-1
 18 461 l 1,25,-1
 75 461 l 1,26,27
 75 505 75 505 78.5 536.5 c 128,-1,28
 82 568 82 568 92.5 599 c 128,-1,29
 103 630 103 630 122 649 c 128,-1,30
 141 668 141 668 173 679.5 c 128,-1,31
 205 691 205 691 250 691 c 0,32,33
 313 691 313 691 353 663 c 128,-1,34
 393 635 393 635 393 591 c 0,35,36
 393 563 393 563 376 546 c 128,-1,37
 359 529 359 529 331 529 c 0,38,39
 306 529 306 529 288.5 545 c 128,-1,40
 271 561 271 561 271 584 c 0,0,1
EndSplineSet
Substitution2: "'sups' Superscript lookup 24 subtable" uni1da0
Substitution2: "'subs' Subscript lookup 23 subtable" sub.f
Substitution2: "'smcp' Lowercase to Small Capitals in Latin lookup 2 subtable" sc.f
EndChar

StartChar: g
Encoding: 103 103 71
Width: 500
GlyphClass: 2
Flags: W
AnchorPoint: "Anchor-18" 246 244 basechar 0
AnchorPoint: "Anchor-17" 360 473 basechar 0
AnchorPoint: "Anchor-9" 241 470 basechar 0
AnchorPoint: "Anchor-7" 247 -202 basechar 0
LayerCount: 2
Fore
SplineSet
158 160 m 1,0,1
 34 212 34 212 34 312 c 0,2,3
 34 383 34 383 91 428 c 128,-1,4
 148 473 148 473 237 473 c 0,5,6
 288 473 288 473 349 451 c 1,7,-1
 479 451 l 1,8,-1
 479 398 l 1,9,-1
 398 398 l 1,10,11
 438 358 438 358 438 300 c 0,12,13
 438 276 438 276 430 252.5 c 128,-1,14
 422 229 422 229 403.5 205.5 c 128,-1,15
 385 182 385 182 349 168 c 128,-1,16
 313 154 313 154 264 154 c 1,17,-1
 219 155 l 2,18,19
 189 155 189 155 170 140.5 c 128,-1,20
 151 126 151 126 151 103 c 0,21,22
 151 82 151 82 171 75 c 128,-1,23
 191 68 191 68 251 68 c 2,24,-1
 316 68 l 2,25,26
 393 68 393 68 436.5 35.5 c 128,-1,27
 480 3 480 3 480 -55 c 0,28,29
 480 -129 480 -129 415.5 -167.5 c 128,-1,30
 351 -206 351 -206 226 -206 c 0,31,32
 131 -206 131 -206 78 -181.5 c 128,-1,33
 25 -157 25 -157 25 -114 c 0,34,35
 25 -53 25 -53 121 -39 c 1,36,37
 73 -22 73 -22 56 -5 c 128,-1,38
 39 12 39 12 39 43 c 0,39,40
 39 119 39 119 158 160 c 1,0,1
321 -52 m 2,41,-1
 148 -52 l 1,42,43
 127 -69 127 -69 120 -80 c 128,-1,44
 113 -91 113 -91 113 -107 c 0,45,46
 113 -174 113 -174 247 -174 c 0,47,48
 321 -174 321 -174 361 -155.5 c 128,-1,49
 401 -137 401 -137 401 -102 c 0,50,51
 401 -52 401 -52 321 -52 c 2,41,-1
237 442 m 128,-1,53
 202 442 202 442 186.5 411.5 c 128,-1,54
 171 381 171 381 171 311 c 128,-1,55
 171 241 171 241 186 211.5 c 128,-1,56
 201 182 201 182 237 182 c 0,57,58
 272 182 272 182 287.5 211.5 c 128,-1,59
 303 241 303 241 303 311 c 128,-1,60
 303 381 303 381 287.5 411.5 c 128,-1,52
 272 442 272 442 237 442 c 128,-1,53
EndSplineSet
Substitution2: "'sups' Superscript lookup 24 subtable" uni1d4d
Substitution2: "'subs' Subscript lookup 23 subtable" sub.g
Substitution2: "'smcp' Lowercase to Small Capitals in Latin lookup 2 subtable" sc.g
EndChar

StartChar: h
Encoding: 104 104 72
Width: 554
GlyphClass: 2
Flags: W
AnchorPoint: "Anchor-18" 281 244 basechar 0
AnchorPoint: "Anchor-17" 418 473 basechar 0
AnchorPoint: "Anchor-9" 289 676 basechar 0
AnchorPoint: "Anchor-7" 282 0 basechar 0
LayerCount: 2
Fore
SplineSet
296 406 m 0,0,1
 268 406 268 406 239 382.5 c 128,-1,2
 210 359 210 359 210 348 c 2,3,-1
 210 81 l 2,4,5
 210 53 210 53 220.5 40.5 c 128,-1,6
 231 28 231 28 259 24 c 1,7,-1
 259 0 l 1,8,-1
 18 0 l 1,9,-1
 18 24 l 1,10,11
 52 31 52 31 61.5 42 c 128,-1,12
 71 53 71 53 71 84 c 2,13,-1
 71 594 l 2,14,15
 71 625 71 625 61.5 635 c 128,-1,16
 52 645 52 645 18 652 c 1,17,-1
 18 676 l 1,18,-1
 210 676 l 1,19,-1
 210 395 l 1,20,21
 249 438 249 438 280.5 455.5 c 128,-1,22
 312 473 312 473 352 473 c 0,23,24
 414 473 414 473 450.5 434.5 c 128,-1,25
 487 396 487 396 487 332 c 2,26,-1
 487 84 l 2,27,28
 487 53 487 53 498 39.5 c 128,-1,29
 509 26 509 26 536 24 c 1,30,-1
 536 0 l 1,31,-1
 301 0 l 1,32,-1
 301 24 l 1,33,34
 326 27 326 27 337 40 c 128,-1,35
 348 53 348 53 348 81 c 2,36,-1
 348 323 l 2,37,38
 348 406 348 406 296 406 c 0,0,1
EndSplineSet
Substitution2: "'sups' Superscript lookup 24 subtable" hsuper
Substitution2: "'subs' Subscript lookup 23 subtable" sub.h
Substitution2: "'smcp' Lowercase to Small Capitals in Latin lookup 2 subtable" sc.h
EndChar

StartChar: i
Encoding: 105 105 73
Width: 299
GlyphClass: 2
Flags: W
AnchorPoint: "Anchor-18" 147 244 basechar 0
AnchorPoint: "Anchor-17" 238 693 basechar 0
AnchorPoint: "Anchor-9" 145 676 basechar 0
AnchorPoint: "Anchor-8" 202 0 basechar 0
AnchorPoint: "Anchor-7" 146 0 basechar 0
LayerCount: 2
Fore
SplineSet
216 461 m 1,0,-1
 216 81 l 2,1,2
 216 53 216 53 227 40.5 c 128,-1,3
 238 28 238 28 265 24 c 1,4,-1
 265 0 l 1,5,-1
 24 0 l 1,6,-1
 24 24 l 1,7,8
 58 32 58 32 67.5 42.5 c 128,-1,9
 77 53 77 53 77 84 c 2,10,-1
 77 378 l 2,11,12
 77 409 77 409 67 419.5 c 128,-1,13
 57 430 57 430 24 437 c 1,14,-1
 24 461 l 1,15,-1
 216 461 l 1,0,-1
146 691 m 128,-1,17
 178 691 178 691 200.5 668 c 128,-1,18
 223 645 223 645 223 613 c 0,19,20
 223 580 223 580 200.5 558 c 128,-1,21
 178 536 178 536 145 536 c 128,-1,22
 112 536 112 536 90 558 c 128,-1,23
 68 580 68 580 68 614 c 0,24,25
 68 646 68 646 91 668.5 c 128,-1,16
 114 691 114 691 146 691 c 128,-1,17
EndSplineSet
Substitution2: "'sups' Superscript lookup 24 subtable" uni2071
Substitution2: "'subs' Subscript lookup 23 subtable" uni1d62
Substitution2: "'smcp' Lowercase to Small Capitals in Latin lookup 2 subtable" sc.i
Substitution2: "'smcp' Lowercase to Small Capitals in Latin lookup 1 subtable" sc.i_dot
EndChar

StartChar: j
Encoding: 106 106 74
Width: 400
GlyphClass: 2
Flags: W
AnchorPoint: "Anchor-18" 245 244 basechar 0
AnchorPoint: "Anchor-17" 337 693 basechar 0
AnchorPoint: "Anchor-9" 241 676 basechar 0
AnchorPoint: "Anchor-7" 204 -202 basechar 0
LayerCount: 2
Fore
SplineSet
121 -96 m 0,0,1
 121 -109 121 -109 109.5 -129 c 128,-1,2
 98 -149 98 -149 98 -155 c 0,3,4
 98 -172 98 -172 130 -172 c 0,5,6
 178 -172 178 -172 178 -96 c 2,7,-1
 178 378 l 2,8,9
 178 410 178 410 165.5 422 c 128,-1,10
 153 434 153 434 115 437 c 1,11,-1
 115 461 l 1,12,-1
 317 461 l 1,13,-1
 317 2 l 2,14,15
 317 -203 317 -203 140 -203 c 0,16,17
 78 -203 78 -203 39 -175 c 128,-1,18
 0 -147 0 -147 0 -103 c 0,19,20
 0 -76 0 -76 17 -59 c 128,-1,21
 34 -42 34 -42 62 -42 c 0,22,23
 86 -42 86 -42 103.5 -58 c 128,-1,24
 121 -74 121 -74 121 -96 c 0,0,1
242 691 m 128,-1,26
 274 691 274 691 297 668 c 128,-1,27
 320 645 320 645 320 613 c 128,-1,28
 320 581 320 581 297 558.5 c 128,-1,29
 274 536 274 536 242 536 c 0,30,31
 208 536 208 536 186.5 558 c 128,-1,32
 165 580 165 580 165 614 c 0,33,34
 165 646 165 646 187.5 668.5 c 128,-1,25
 210 691 210 691 242 691 c 128,-1,26
EndSplineSet
Substitution2: "'sups' Superscript lookup 24 subtable" jsuper
Substitution2: "'subs' Subscript lookup 23 subtable" sub.j
Substitution2: "'smcp' Lowercase to Small Capitals in Latin lookup 2 subtable" sc.j
EndChar

StartChar: k
Encoding: 107 107 75
Width: 555
GlyphClass: 2
Flags: W
AnchorPoint: "Anchor-18" 247 244 basechar 0
AnchorPoint: "Anchor-17" 421 472 basechar 0
AnchorPoint: "Anchor-9" 298 676 basechar 0
AnchorPoint: "Anchor-7" 268 0 basechar 0
LayerCount: 2
Fore
SplineSet
359 411 m 0,0,1
 359 417 359 417 356 421.5 c 128,-1,2
 353 426 353 426 346 428.5 c 128,-1,3
 339 431 339 431 334 432.5 c 128,-1,4
 329 434 329 434 316.5 435.5 c 128,-1,5
 304 437 304 437 300 438 c 1,6,-1
 300 461 l 1,7,-1
 514 461 l 1,8,-1
 514 438 l 1,9,10
 467 432 467 432 433.5 409 c 128,-1,11
 400 386 400 386 325 307 c 1,12,-1
 519 39 l 2,13,14
 530 24 530 24 545 24 c 1,15,-1
 545 0 l 1,16,-1
 310 0 l 1,17,-1
 310 24 l 1,18,19
 352 26 352 26 352 43 c 0,20,21
 352 53 352 53 328 88 c 2,22,-1
 233 222 l 1,23,-1
 210 198 l 1,24,-1
 210 84 l 2,25,26
 210 49 210 49 218.5 39 c 128,-1,27
 227 29 227 29 262 24 c 1,28,-1
 262 0 l 1,29,-1
 18 0 l 1,30,-1
 18 24 l 1,31,32
 71 29 71 29 71 84 c 2,33,-1
 71 594 l 2,34,35
 71 647 71 647 18 652 c 1,36,-1
 18 676 l 1,37,-1
 210 676 l 1,38,-1
 210 245 l 1,39,-1
 338 373 l 2,40,41
 359 394 359 394 359 411 c 0,0,1
EndSplineSet
Substitution2: "'sups' Superscript lookup 24 subtable" uni1d4f
Substitution2: "'subs' Subscript lookup 23 subtable" sub.k
Substitution2: "'smcp' Lowercase to Small Capitals in Latin lookup 2 subtable" sc.k
EndChar

StartChar: l
Encoding: 108 108 76
Width: 277
GlyphClass: 2
Flags: W
AnchorPoint: "Anchor-18" 136 244 basechar 0
AnchorPoint: "Anchor-17" 262 473 basechar 0
AnchorPoint: "Anchor-9" 144 676 basechar 0
AnchorPoint: "Anchor-7" 141 0 basechar 0
LayerCount: 2
Fore
SplineSet
210 676 m 1,0,-1
 210 84 l 2,1,2
 210 25 210 25 259 24 c 1,3,-1
 259 0 l 1,4,-1
 18 0 l 1,5,-1
 18 24 l 1,6,7
 71 29 71 29 71 84 c 2,8,-1
 71 594 l 2,9,10
 71 647 71 647 18 652 c 1,11,-1
 18 676 l 1,12,-1
 210 676 l 1,0,-1
EndSplineSet
Substitution2: "'sups' Superscript lookup 24 subtable" lsuper
Substitution2: "'subs' Subscript lookup 23 subtable" sub.l
Substitution2: "'smcp' Lowercase to Small Capitals in Latin lookup 2 subtable" sc.l
EndChar

StartChar: m
Encoding: 109 109 77
Width: 832
GlyphClass: 2
Flags: W
AnchorPoint: "Anchor-18" 409 244 basechar 0
AnchorPoint: "Anchor-17" 680 473 basechar 0
AnchorPoint: "Anchor-9" 414 470 basechar 0
AnchorPoint: "Anchor-7" 414 0 basechar 0
LayerCount: 2
Fore
SplineSet
294 406 m 0,0,1
 267 406 267 406 238.5 383 c 128,-1,2
 210 360 210 360 210 348 c 2,3,-1
 210 81 l 2,4,5
 210 52 210 52 220 40 c 128,-1,6
 230 28 230 28 256 24 c 1,7,-1
 256 0 l 1,8,-1
 18 0 l 1,9,-1
 18 24 l 1,10,11
 51 30 51 30 61 41.5 c 128,-1,12
 71 53 71 53 71 84 c 2,13,-1
 71 378 l 2,14,15
 71 409 71 409 61 421 c 128,-1,16
 51 433 51 433 18 437 c 1,17,-1
 18 461 l 1,18,-1
 207 461 l 1,19,-1
 207 386 l 1,20,21
 262 473 262 473 354 473 c 0,22,23
 401 473 401 473 430 453 c 128,-1,24
 459 433 459 433 482 386 c 1,25,26
 521 434 521 434 553.5 453.5 c 128,-1,27
 586 473 586 473 629 473 c 0,28,29
 691 473 691 473 727.5 434.5 c 128,-1,30
 764 396 764 396 764 332 c 2,31,-1
 764 81 l 2,32,33
 764 49 764 49 774.5 37.5 c 128,-1,34
 785 26 785 26 814 24 c 1,35,-1
 814 0 l 1,36,-1
 576 0 l 1,37,-1
 576 24 l 1,38,39
 605 26 605 26 615 38 c 128,-1,40
 625 50 625 50 625 81 c 2,41,-1
 625 323 l 2,42,43
 625 367 625 367 612.5 386.5 c 128,-1,44
 600 406 600 406 572 406 c 0,45,46
 546 406 546 406 516.5 382.5 c 128,-1,47
 487 359 487 359 487 348 c 2,48,-1
 487 81 l 2,49,50
 487 52 487 52 497.5 39.5 c 128,-1,51
 508 27 508 27 534 24 c 1,52,-1
 534 0 l 1,53,-1
 300 0 l 1,54,-1
 300 24 l 1,55,56
 328 26 328 26 338 38 c 128,-1,57
 348 50 348 50 348 81 c 2,58,-1
 348 323 l 2,59,60
 348 368 348 368 335.5 387 c 128,-1,61
 323 406 323 406 294 406 c 0,0,1
EndSplineSet
Substitution2: "'sups' Superscript lookup 24 subtable" uni1d50
Substitution2: "'subs' Subscript lookup 23 subtable" sub.m
Substitution2: "'smcp' Lowercase to Small Capitals in Latin lookup 2 subtable" sc.m
EndChar

StartChar: n
Encoding: 110 110 78
Width: 554
GlyphClass: 2
Flags: W
AnchorPoint: "Anchor-18" 272 244 basechar 0
AnchorPoint: "Anchor-17" 407 473 basechar 0
AnchorPoint: "Anchor-9" 281 470 basechar 0
AnchorPoint: "Anchor-7" 281 0 basechar 0
LayerCount: 2
Fore
SplineSet
296 406 m 0,0,1
 268 406 268 406 239 382.5 c 128,-1,2
 210 359 210 359 210 348 c 2,3,-1
 210 81 l 2,4,5
 210 53 210 53 220.5 40.5 c 128,-1,6
 231 28 231 28 259 24 c 1,7,-1
 259 0 l 1,8,-1
 18 0 l 1,9,-1
 18 24 l 1,10,11
 52 31 52 31 61.5 42 c 128,-1,12
 71 53 71 53 71 84 c 2,13,-1
 71 378 l 2,14,15
 71 409 71 409 61 420.5 c 128,-1,16
 51 432 51 432 18 437 c 1,17,-1
 18 461 l 1,18,-1
 209 461 l 1,19,-1
 209 386 l 1,20,21
 264 473 264 473 352 473 c 0,22,23
 414 473 414 473 450.5 434.5 c 128,-1,24
 487 396 487 396 487 332 c 2,25,-1
 487 81 l 2,26,27
 487 49 487 49 497 37.5 c 128,-1,28
 507 26 507 26 536 24 c 1,29,-1
 536 0 l 1,30,-1
 301 0 l 1,31,-1
 301 24 l 1,32,33
 326 27 326 27 337 40 c 128,-1,34
 348 53 348 53 348 81 c 2,35,-1
 348 323 l 2,36,37
 348 406 348 406 296 406 c 0,0,1
EndSplineSet
Substitution2: "'sups' Superscript lookup 24 subtable" nsuperior
Substitution2: "'subs' Subscript lookup 23 subtable" sub.n
Substitution2: "'smcp' Lowercase to Small Capitals in Latin lookup 2 subtable" sc.n
EndChar

StartChar: o
Encoding: 111 111 79
Width: 501
GlyphClass: 2
Flags: W
AnchorPoint: "Anchor-18" 247 244 basechar 0
AnchorPoint: "Anchor-17" 390 473 basechar 0
AnchorPoint: "Anchor-9" 252 470 basechar 0
AnchorPoint: "Anchor-8" 296 0 basechar 0
AnchorPoint: "Anchor-7" 259 0 basechar 0
LayerCount: 2
Fore
SplineSet
251 473 m 0,0,1
 348 473 348 473 412 403.5 c 128,-1,2
 476 334 476 334 476 229 c 0,3,4
 476 125 476 125 412 55.5 c 128,-1,5
 348 -14 348 -14 251 -14 c 0,6,7
 153 -14 153 -14 89 55.5 c 128,-1,8
 25 125 25 125 25 232 c 0,9,10
 25 334 25 334 90.5 403.5 c 128,-1,11
 156 473 156 473 251 473 c 0,0,1
252 442 m 0,12,13
 206 442 206 442 189 394 c 128,-1,14
 172 346 172 346 172 214 c 0,15,16
 172 104 172 104 189.5 60.5 c 128,-1,17
 207 17 207 17 251 17 c 128,-1,18
 295 17 295 17 312 62.5 c 128,-1,19
 329 108 329 108 329 223 c 0,20,21
 329 346 329 346 312 394 c 128,-1,22
 295 442 295 442 252 442 c 0,12,13
EndSplineSet
Substitution2: "'sups' Superscript lookup 24 subtable" uni1d52
Substitution2: "'subs' Subscript lookup 23 subtable" uni2092
Substitution2: "'smcp' Lowercase to Small Capitals in Latin lookup 2 subtable" sc.o
EndChar

StartChar: p
Encoding: 112 112 80
Width: 545
GlyphClass: 2
Flags: W
AnchorPoint: "Anchor-18" 281 244 basechar 0
AnchorPoint: "Anchor-17" 429 473 basechar 0
AnchorPoint: "Anchor-9" 283 470 basechar 0
AnchorPoint: "Anchor-7" 298 -202 basechar 0
LayerCount: 2
Fore
SplineSet
208 461 m 1,0,-1
 208 392 l 1,1,2
 231 435 231 435 260.5 454 c 128,-1,3
 290 473 290 473 334 473 c 0,4,5
 417 473 417 473 468.5 408 c 128,-1,6
 520 343 520 343 520 239 c 0,7,8
 520 128 520 128 466 57.5 c 128,-1,9
 412 -13 412 -13 328 -13 c 0,10,11
 295 -13 295 -13 270.5 -0.5 c 128,-1,12
 246 12 246 12 210 47 c 1,13,-1
 210 -94 l 2,14,15
 210 -144 210 -144 226 -163 c 128,-1,16
 242 -182 242 -182 288 -184 c 1,17,-1
 288 -205 l 1,18,-1
 15 -205 l 1,19,-1
 15 -181 l 1,20,21
 51 -175 51 -175 61 -164.5 c 128,-1,22
 71 -154 71 -154 71 -123 c 2,23,-1
 71 378 l 2,24,25
 71 409 71 409 60.5 420.5 c 128,-1,26
 50 432 50 432 17 437 c 1,27,-1
 17 461 l 1,28,-1
 208 461 l 1,0,-1
296 416 m 0,29,30
 264 416 264 416 237 388.5 c 128,-1,31
 210 361 210 361 210 346 c 2,32,-1
 210 103 l 1,33,34
 234 42 234 42 287 42 c 0,35,36
 372 42 372 42 372 225 c 0,37,38
 372 416 372 416 296 416 c 0,29,30
EndSplineSet
Substitution2: "'sups' Superscript lookup 24 subtable" uni1d56
Substitution2: "'subs' Subscript lookup 23 subtable" sub.p
Substitution2: "'smcp' Lowercase to Small Capitals in Latin lookup 2 subtable" sc.p
EndChar

StartChar: q
Encoding: 113 113 81
Width: 545
GlyphClass: 2
Flags: W
AnchorPoint: "Anchor-18" 237 244 basechar 0
AnchorPoint: "Anchor-17" 400 473 basechar 0
AnchorPoint: "Anchor-9" 264 470 basechar 0
AnchorPoint: "Anchor-7" 247 -202 basechar 0
LayerCount: 2
Fore
SplineSet
333 -97 m 2,0,-1
 333 42 l 1,1,2
 276 -14 276 -14 210 -14 c 0,3,4
 128 -14 128 -14 76.5 51 c 128,-1,5
 25 116 25 116 25 219 c 0,6,7
 25 331 25 331 87 402 c 128,-1,8
 149 473 149 473 247 473 c 0,9,10
 284 473 284 473 312 461 c 128,-1,11
 340 449 340 449 379 416 c 1,12,-1
 457 472 l 1,13,-1
 472 472 l 1,14,-1
 472 -123 l 2,15,16
 472 -153 472 -153 482 -163.5 c 128,-1,17
 492 -174 492 -174 527 -181 c 1,18,-1
 527 -205 l 1,19,-1
 260 -205 l 1,20,-1
 260 -180 l 1,21,22
 309 -171 309 -171 321 -157 c 128,-1,23
 333 -143 333 -143 333 -97 c 2,0,-1
333 98 m 1,24,-1
 333 361 l 2,25,26
 333 397 333 397 314.5 419 c 128,-1,27
 296 441 296 441 266 441 c 0,28,29
 171 441 171 441 171 236 c 0,30,31
 171 40 171 40 264 40 c 0,32,33
 317 40 317 40 333 98 c 1,24,-1
EndSplineSet
Substitution2: "'sups' Superscript lookup 24 subtable" sup.q
Substitution2: "'subs' Subscript lookup 23 subtable" sub.q
Substitution2: "'smcp' Lowercase to Small Capitals in Latin lookup 2 subtable" sc.q
EndChar

StartChar: r
Encoding: 114 114 82
Width: 427
GlyphClass: 2
Flags: W
AnchorPoint: "Anchor-18" 158 244 basechar 0
AnchorPoint: "Anchor-17" 320 473 basechar 0
AnchorPoint: "Anchor-9" 252 470 basechar 0
AnchorPoint: "Anchor-7" 221 0 basechar 0
LayerCount: 2
Fore
SplineSet
359 328 m 0,0,1
 336 328 336 328 318.5 343 c 128,-1,2
 301 358 301 358 290 372.5 c 128,-1,3
 279 387 279 387 271 387 c 0,4,5
 246 387 246 387 228 359 c 128,-1,6
 210 331 210 331 210 292 c 2,7,-1
 210 103 l 2,8,9
 210 56 210 56 223.5 41.5 c 128,-1,10
 237 27 237 27 283 24 c 1,11,-1
 283 0 l 1,12,-1
 18 0 l 1,13,-1
 18 24 l 1,14,15
 51 30 51 30 61 41.5 c 128,-1,16
 71 53 71 53 71 84 c 2,17,-1
 71 378 l 2,18,19
 71 408 71 408 60.5 420.5 c 128,-1,20
 50 433 50 433 18 437 c 1,21,-1
 18 461 l 1,22,-1
 206 461 l 1,23,-1
 206 379 l 1,24,25
 241 429 241 429 272.5 451 c 128,-1,26
 304 473 304 473 341 473 c 0,27,28
 376 473 376 473 399 451 c 128,-1,29
 422 429 422 429 422 395 c 0,30,31
 422 366 422 366 404.5 347 c 128,-1,32
 387 328 387 328 359 328 c 0,0,1
EndSplineSet
Substitution2: "'sups' Superscript lookup 24 subtable" rsuper
Substitution2: "'subs' Subscript lookup 23 subtable" uni1d63
Substitution2: "'smcp' Lowercase to Small Capitals in Latin lookup 2 subtable" sc.r
EndChar

StartChar: s
Encoding: 115 115 83
Width: 406
GlyphClass: 2
Flags: W
AnchorPoint: "Anchor-18" 199 244 basechar 0
AnchorPoint: "Anchor-17" 300 473 basechar 0
AnchorPoint: "Anchor-9" 201 470 basechar 0
AnchorPoint: "Anchor-7" 215 0 basechar 0
LayerCount: 2
Fore
SplineSet
194 473 m 0,0,1
 222 473 222 473 259 462 c 128,-1,2
 296 451 296 451 304 451 c 0,3,4
 320 451 320 451 328 471 c 1,5,-1
 350 471 l 1,6,-1
 350 326 l 1,7,-1
 325 326 l 1,8,9
 286 440 286 440 203 440 c 0,10,11
 175 440 175 440 156 423.5 c 128,-1,12
 137 407 137 407 137 382 c 0,13,14
 137 359 137 359 154.5 340.5 c 128,-1,15
 172 322 172 322 198 311 c 128,-1,16
 224 300 224 300 254 284.5 c 128,-1,17
 284 269 284 269 310 252.5 c 128,-1,18
 336 236 336 236 353.5 206.5 c 128,-1,19
 371 177 371 177 371 138 c 0,20,21
 371 71 371 71 328 28.5 c 128,-1,22
 285 -14 285 -14 217 -14 c 0,23,24
 176 -14 176 -14 134 0.5 c 128,-1,25
 92 15 92 15 86 15 c 0,26,27
 75 15 75 15 60 -13 c 1,28,-1
 35 -13 l 1,29,-1
 35 152 l 1,30,-1
 63 152 l 1,31,32
 95 20 95 20 200 20 c 0,33,34
 234 20 234 20 254.5 38 c 128,-1,35
 275 56 275 56 275 85 c 0,36,37
 275 111 275 111 250.5 131 c 128,-1,38
 226 151 226 151 191 167 c 128,-1,39
 156 183 156 183 121 201.5 c 128,-1,40
 86 220 86 220 61.5 252 c 128,-1,41
 37 284 37 284 37 327 c 0,42,43
 37 390 37 390 81.5 431.5 c 128,-1,44
 126 473 126 473 194 473 c 0,0,1
EndSplineSet
Substitution2: "'sups' Superscript lookup 24 subtable" ssuper
Substitution2: "'subs' Subscript lookup 23 subtable" sub.s
Substitution2: "'hist' Historical Forms in Latin lookup 12 subtable" longs
Substitution2: "'smcp' Lowercase to Small Capitals in Latin lookup 2 subtable" sc.s
EndChar

StartChar: t
Encoding: 116 116 84
Width: 335
GlyphClass: 2
Flags: W
AnchorPoint: "Anchor-18" 142 244 basechar 0
AnchorPoint: "Anchor-17" 318 473 basechar 0
AnchorPoint: "Anchor-9" 194 622 basechar 0
AnchorPoint: "Anchor-7" 184 0 basechar 0
LayerCount: 2
Fore
SplineSet
303 461 m 1,0,-1
 303 417 l 1,1,-1
 209 417 l 1,2,-1
 209 116 l 2,3,4
 209 86 209 86 218 72.5 c 128,-1,5
 227 59 227 59 248 59 c 0,6,7
 278 59 278 59 305 111 c 1,8,-1
 330 100 l 1,9,10
 299 39 299 39 265.5 13.5 c 128,-1,11
 232 -12 232 -12 182 -12 c 0,12,13
 130 -12 130 -12 100 16 c 128,-1,14
 70 44 70 44 70 93 c 2,15,-1
 70 417 l 1,16,-1
 18 417 l 1,17,-1
 18 444 l 1,18,19
 67 485 67 485 102.5 525 c 128,-1,20
 138 565 138 565 184 630 c 1,21,-1
 209 630 l 1,22,-1
 209 461 l 1,23,-1
 303 461 l 1,0,-1
EndSplineSet
Substitution2: "'sups' Superscript lookup 24 subtable" uni1d57
Substitution2: "'subs' Subscript lookup 23 subtable" sub.t
Substitution2: "'smcp' Lowercase to Small Capitals in Latin lookup 2 subtable" sc.t
EndChar

StartChar: u
Encoding: 117 117 85
Width: 564
GlyphClass: 2
Flags: W
AnchorPoint: "Anchor-18" 253 244 basechar 0
AnchorPoint: "Anchor-17" 426 473 basechar 0
AnchorPoint: "Anchor-9" 265 470 basechar 0
AnchorPoint: "Anchor-8" 423 5 basechar 0
AnchorPoint: "Anchor-7" 292 0 basechar 0
LayerCount: 2
Fore
SplineSet
349 -13 m 1,0,-1
 349 52 l 1,1,2
 305 14 305 14 274 0 c 128,-1,3
 243 -14 243 -14 204 -14 c 0,4,5
 142 -14 142 -14 106.5 23 c 128,-1,6
 71 60 71 60 71 126 c 2,7,-1
 71 378 l 2,8,9
 71 409 71 409 60.5 420 c 128,-1,10
 50 431 50 431 18 437 c 1,11,-1
 18 461 l 1,12,-1
 210 461 l 1,13,-1
 210 122 l 2,14,15
 210 84 210 84 222.5 67.5 c 128,-1,16
 235 51 235 51 266 51 c 0,17,18
 304 51 304 51 348 95 c 1,19,-1
 348 378 l 2,20,21
 348 410 348 410 335.5 422 c 128,-1,22
 323 434 323 434 286 437 c 1,23,-1
 286 461 l 1,24,-1
 487 461 l 1,25,-1
 487 101 l 2,26,27
 487 69 487 69 500 57 c 128,-1,28
 513 45 513 45 546 43 c 1,29,-1
 546 20 l 1,30,-1
 481 13 l 2,31,32
 398 4 398 4 349 -13 c 1,0,-1
EndSplineSet
Substitution2: "'sups' Superscript lookup 24 subtable" uni1d58
Substitution2: "'subs' Subscript lookup 23 subtable" uni1d64
Substitution2: "'smcp' Lowercase to Small Capitals in Latin lookup 2 subtable" sc.u
EndChar

StartChar: v
Encoding: 118 118 86
Width: 482
GlyphClass: 2
Flags: W
AnchorPoint: "Anchor-18" 258 244 basechar 0
AnchorPoint: "Anchor-17" 370 473 basechar 0
AnchorPoint: "Anchor-9" 272 470 basechar 0
AnchorPoint: "Anchor-7" 247 0 basechar 0
LayerCount: 2
Fore
SplineSet
473 461 m 1,0,-1
 473 437 l 1,1,2
 450 435 450 435 439 425 c 128,-1,3
 428 415 428 415 415 382 c 2,4,-1
 255 -14 l 1,5,-1
 229 -14 l 1,6,-1
 109 282 l 2,7,8
 102 301 102 301 86 335.5 c 128,-1,9
 70 370 70 370 57.5 396 c 128,-1,10
 45 422 45 422 44 422 c 0,11,12
 36 433 36 433 9 437 c 1,13,-1
 9 461 l 1,14,-1
 259 461 l 1,15,-1
 259 437 l 1,16,17
 243 435 243 435 241 435 c 0,18,19
 206 432 206 432 206 411 c 0,20,21
 206 404 206 404 215 380 c 2,22,-1
 294 177 l 1,23,-1
 366 359 l 2,24,25
 377 387 377 387 377 404 c 0,26,27
 377 422 377 422 365.5 428.5 c 128,-1,28
 354 435 354 435 322 437 c 1,29,-1
 322 461 l 1,30,-1
 473 461 l 1,0,-1
EndSplineSet
Substitution2: "'sups' Superscript lookup 24 subtable" uni1d5b
Substitution2: "'subs' Subscript lookup 23 subtable" uni1d65
Substitution2: "'smcp' Lowercase to Small Capitals in Latin lookup 2 subtable" sc.v
EndChar

StartChar: w
Encoding: 119 119 87
Width: 702
GlyphClass: 2
Flags: W
AnchorPoint: "Anchor-18" 358 244 basechar 0
AnchorPoint: "Anchor-17" 585 473 basechar 0
AnchorPoint: "Anchor-9" 370 470 basechar 0
AnchorPoint: "Anchor-7" 362 0 basechar 0
LayerCount: 2
Fore
SplineSet
527 180 m 1,0,1
 547 237 547 237 565 282.5 c 128,-1,2
 583 328 583 328 590.5 344.5 c 128,-1,3
 598 361 598 361 602 374.5 c 128,-1,4
 606 388 606 388 606 402 c 0,5,6
 606 419 606 419 596 426.5 c 128,-1,7
 586 434 586 434 558 437 c 1,8,-1
 558 461 l 1,9,-1
 693 461 l 1,10,-1
 693 437 l 1,11,12
 673 433 673 433 663.5 424 c 128,-1,13
 654 415 654 415 643 387 c 2,14,-1
 488 -14 l 1,15,-1
 465 -14 l 1,16,-1
 363 296 l 1,17,-1
 238 -14 l 1,18,-1
 214 -14 l 1,19,-1
 66 360 l 2,20,21
 46 410 46 410 37 421.5 c 128,-1,22
 28 433 28 433 9 437 c 1,23,-1
 9 461 l 1,24,-1
 231 461 l 1,25,-1
 231 437 l 1,26,27
 193 432 193 432 193 409 c 0,28,29
 193 395 193 395 216.5 333 c 128,-1,30
 240 271 240 271 253 240 c 1,31,-1
 277 176 l 1,32,-1
 345 347 l 1,33,-1
 339 366 l 1,34,35
 325 415 325 415 317 424.5 c 128,-1,36
 309 434 309 434 280 437 c 1,37,-1
 280 461 l 1,38,-1
 514 461 l 1,39,-1
 514 437 l 1,40,41
 486 435 486 435 476 430 c 128,-1,42
 466 425 466 425 466 413 c 128,-1,43
 466 401 466 401 471.5 382.5 c 128,-1,44
 477 364 477 364 493 308 c 128,-1,45
 509 252 509 252 527 180 c 1,0,1
EndSplineSet
Substitution2: "'sups' Superscript lookup 24 subtable" wsuper
Substitution2: "'subs' Subscript lookup 23 subtable" sub.w
Substitution2: "'smcp' Lowercase to Small Capitals in Latin lookup 2 subtable" sc.w
EndChar

StartChar: x
Encoding: 120 120 88
Width: 508
GlyphClass: 2
Flags: W
AnchorPoint: "Anchor-18" 252 244 basechar 0
AnchorPoint: "Anchor-17" 396 473 basechar 0
AnchorPoint: "Anchor-9" 270 470 basechar 0
AnchorPoint: "Anchor-7" 271 0 basechar 0
LayerCount: 2
Fore
SplineSet
292 303 m 1,0,1
 307 325 307 325 328.5 350.5 c 128,-1,2
 350 376 350 376 358 388.5 c 128,-1,3
 366 401 366 401 366 413 c 0,4,5
 366 434 366 434 335 435 c 0,6,7
 333 435 333 435 315 437 c 1,8,-1
 315 461 l 1,9,-1
 483 461 l 1,10,-1
 483 437 l 1,11,12
 439 430 439 430 413 398 c 2,13,-1
 312 272 l 1,14,-1
 460 44 l 2,15,16
 468 31 468 31 490 24 c 1,17,-1
 490 0 l 1,18,-1
 249 0 l 1,19,-1
 249 24 l 1,20,21
 294 27 294 27 294 44 c 128,-1,22
 294 61 294 61 261 108 c 1,23,-1
 219 171 l 1,24,25
 139 70 139 70 139 48 c 0,26,27
 139 27 139 27 189 24 c 1,28,-1
 189 0 l 1,29,-1
 20 0 l 1,30,-1
 20 24 l 1,31,32
 28 24 28 24 34 25.5 c 128,-1,33
 40 27 40 27 45.5 28.5 c 128,-1,34
 51 30 51 30 57.5 34.5 c 128,-1,35
 64 39 64 39 69 43 c 128,-1,36
 74 47 74 47 82.5 56.5 c 128,-1,37
 91 66 91 66 97 73 c 128,-1,38
 103 80 103 80 115.5 95.5 c 128,-1,39
 128 111 128 111 137.5 123.5 c 128,-1,40
 147 136 147 136 165 159 c 128,-1,41
 183 182 183 182 198 201 c 1,42,-1
 70 398 l 2,43,44
 55 421 55 421 46 427.5 c 128,-1,45
 37 434 37 434 18 437 c 1,46,-1
 18 461 l 1,47,-1
 268 461 l 1,48,-1
 268 437 l 1,49,50
 221 436 221 436 221 418 c 0,51,52
 221 405 221 405 247 365.5 c 128,-1,53
 273 326 273 326 292 303 c 1,0,1
EndSplineSet
Substitution2: "'sups' Superscript lookup 24 subtable" xsuper
Substitution2: "'subs' Subscript lookup 23 subtable" uni2093
Substitution2: "'smcp' Lowercase to Small Capitals in Latin lookup 2 subtable" sc.x
EndChar

StartChar: y
Encoding: 121 121 89
Width: 482
GlyphClass: 2
Flags: W
AnchorPoint: "Anchor-18" 239 244 basechar 0
AnchorPoint: "Anchor-17" 370 473 basechar 0
AnchorPoint: "Anchor-9" 247 470 basechar 0
AnchorPoint: "Anchor-8" 372 0 basechar 0
AnchorPoint: "Anchor-7" 355 0 basechar 0
LayerCount: 2
Fore
SplineSet
131 -111 m 0,0,1
 131 -116 131 -116 129.5 -123 c 128,-1,2
 128 -130 128 -130 128 -131 c 0,3,4
 128 -138 128 -138 133 -143 c 128,-1,5
 138 -148 138 -148 145 -148 c 0,6,7
 162 -148 162 -148 180 -125.5 c 128,-1,8
 198 -103 198 -103 211 -66 c 2,9,-1
 229 -13 l 1,10,-1
 109 282 l 2,11,12
 96 315 96 315 71 368.5 c 128,-1,13
 46 422 46 422 44 422 c 1,14,15
 36 433 36 433 9 437 c 1,16,-1
 9 461 l 1,17,-1
 259 461 l 1,18,-1
 259 437 l 1,19,-1
 243 436 l 2,20,21
 206 433 206 433 206 411 c 0,22,23
 206 403 206 403 226 352 c 2,24,-1
 298 167 l 1,25,-1
 366 359 l 2,26,27
 377 390 377 390 377 404 c 0,28,29
 377 422 377 422 365.5 428.5 c 128,-1,30
 354 435 354 435 322 437 c 1,31,-1
 322 461 l 1,32,-1
 473 461 l 1,33,-1
 473 437 l 1,34,35
 450 435 450 435 438.5 424 c 128,-1,36
 427 413 427 413 415 382 c 2,37,-1
 266 -15 l 2,38,39
 228 -116 228 -116 211 -143 c 0,40,41
 172 -205 172 -205 106 -205 c 0,42,43
 63 -205 63 -205 36 -183 c 128,-1,44
 9 -161 9 -161 9 -126 c 0,45,46
 9 -98 9 -98 27 -80 c 128,-1,47
 45 -62 45 -62 73 -62 c 0,48,49
 99 -62 99 -62 115 -75.5 c 128,-1,50
 131 -89 131 -89 131 -111 c 0,0,1
EndSplineSet
Substitution2: "'sups' Superscript lookup 24 subtable" ysuper
Substitution2: "'subs' Subscript lookup 23 subtable" sub.y
Substitution2: "'smcp' Lowercase to Small Capitals in Latin lookup 2 subtable" sc.y
EndChar

StartChar: z
Encoding: 122 122 90
Width: 444
GlyphClass: 2
Flags: W
AnchorPoint: "Anchor-18" 232 244 basechar 0
AnchorPoint: "Anchor-17" 330 473 basechar 0
AnchorPoint: "Anchor-9" 254 470 basechar 0
AnchorPoint: "Anchor-7" 230 0 basechar 0
LayerCount: 2
Fore
SplineSet
214 32 m 2,0,1
 293 32 293 32 332 59 c 128,-1,2
 371 86 371 86 392 160 c 1,3,-1
 420 160 l 1,4,-1
 404 0 l 1,5,-1
 21 0 l 1,6,-1
 21 25 l 1,7,-1
 255 429 l 1,8,-1
 244 429 l 2,9,10
 147 429 147 429 114.5 409 c 128,-1,11
 82 389 82 389 64 319 c 1,12,-1
 38 319 l 1,13,-1
 45 461 l 1,14,-1
 416 461 l 1,15,-1
 416 435 l 1,16,-1
 185 32 l 1,17,-1
 214 32 l 2,0,1
EndSplineSet
Substitution2: "'sups' Superscript lookup 24 subtable" uni1dbb
Substitution2: "'subs' Subscript lookup 23 subtable" sub.z
Substitution2: "'smcp' Lowercase to Small Capitals in Latin lookup 2 subtable" sc.z
EndChar

StartChar: braceleft
Encoding: 123 123 91
Width: 394
GlyphClass: 2
Flags: W
LayerCount: 2
Fore
SplineSet
340 -175 m 1,0,1
 220 -173 220 -173 174.5 -144 c 128,-1,2
 129 -115 129 -115 129 -34 c 2,3,-1
 129 145 l 2,4,5
 129 198 129 198 107.5 221.5 c 128,-1,6
 86 245 86 245 22 261 c 1,7,8
 86 277 86 277 107.5 300.5 c 128,-1,9
 129 324 129 324 129 377 c 2,10,-1
 129 556 l 2,11,12
 129 637 129 637 174 666.5 c 128,-1,13
 219 696 219 696 340 698 c 1,14,-1
 340 686 l 1,15,16
 280 673 280 673 257 646 c 128,-1,17
 234 619 234 619 234 562 c 2,18,-1
 234 391 l 2,19,20
 234 328 234 328 210.5 302 c 128,-1,21
 187 276 187 276 116 261 c 1,22,23
 187 246 187 246 210.5 220 c 128,-1,24
 234 194 234 194 234 131 c 2,25,-1
 234 -40 l 2,26,27
 234 -97 234 -97 257.5 -124 c 128,-1,28
 281 -151 281 -151 340 -163 c 1,29,-1
 340 -175 l 1,0,1
EndSplineSet
EndChar

StartChar: bar
Encoding: 124 124 92
Width: 220
GlyphClass: 2
Flags: W
LayerCount: 2
Fore
SplineSet
66 -19 m 1,0,-1
 66 691 l 1,1,-1
 154 691 l 1,2,-1
 154 -19 l 1,3,-1
 66 -19 l 1,0,-1
EndSplineSet
EndChar

StartChar: braceright
Encoding: 125 125 93
Width: 394
GlyphClass: 2
Flags: W
LayerCount: 2
Fore
SplineSet
54 698 m 1,0,1
 171 696 171 696 218 668.5 c 128,-1,2
 265 641 265 641 265 557 c 2,3,-1
 265 378 l 2,4,5
 265 325 265 325 286.5 301.5 c 128,-1,6
 308 278 308 278 372 262 c 1,7,8
 308 246 308 246 286.5 222.5 c 128,-1,9
 265 199 265 199 265 146 c 2,10,-1
 265 -33 l 2,11,12
 265 -114 265 -114 220 -143.5 c 128,-1,13
 175 -173 175 -173 54 -175 c 1,14,-1
 54 -163 l 1,15,16
 114 -150 114 -150 137 -123 c 128,-1,17
 160 -96 160 -96 160 -39 c 2,18,-1
 160 132 l 2,19,20
 160 194 160 194 184 220.5 c 128,-1,21
 208 247 208 247 278 262 c 1,22,23
 207 277 207 277 183.5 303 c 128,-1,24
 160 329 160 329 160 392 c 2,25,-1
 160 563 l 2,26,27
 160 619 160 619 136.5 646.5 c 128,-1,28
 113 674 113 674 54 686 c 1,29,-1
 54 698 l 1,0,1
EndSplineSet
EndChar

StartChar: asciitilde
Encoding: 126 126 94
Width: 520
GlyphClass: 2
Flags: W
LayerCount: 2
Fore
SplineSet
153 331 m 0,0,1
 192 331 192 331 270 297 c 128,-1,2
 348 263 348 263 368 263 c 0,3,4
 401 263 401 263 436 308 c 1,5,-1
 491 260 l 1,6,7
 457 213 457 213 430 194 c 128,-1,8
 403 175 403 175 368 175 c 0,9,10
 326 175 326 175 261 209 c 128,-1,11
 196 243 196 243 151 243 c 0,12,13
 129 243 129 243 114 234 c 128,-1,14
 99 225 99 225 82 201 c 1,15,-1
 29 247 l 1,16,17
 77 331 77 331 153 331 c 0,0,1
EndSplineSet
EndChar

StartChar: cent
Encoding: 162 162 97
Width: 500
GlyphClass: 2
Flags: W
LayerCount: 2
Fore
SplineSet
181 5 m 1,0,1
 53 66 53 66 53 223 c 0,2,3
 53 330 53 330 119 401.5 c 128,-1,4
 185 473 185 473 285 473 c 0,5,6
 313 473 313 473 345 465 c 1,7,-1
 389 588 l 1,8,-1
 429 588 l 1,9,-1
 381 452 l 1,10,11
 444 418 444 418 444 364 c 0,12,13
 444 336 444 336 425.5 318 c 128,-1,14
 407 300 407 300 378 300 c 0,15,16
 351 300 351 300 334 320 c 1,17,-1
 252 90 l 1,18,19
 289 53 289 53 335 53 c 0,20,21
 394 53 394 53 440 109 c 1,22,-1
 458 91 l 1,23,24
 441 70 441 70 431.5 60 c 128,-1,25
 422 50 422 50 396.5 28.5 c 128,-1,26
 371 7 371 7 338.5 -3.5 c 128,-1,27
 306 -14 306 -14 267 -14 c 0,28,29
 244 -14 244 -14 217 -7 c 1,30,-1
 170 -140 l 1,31,-1
 130 -140 l 1,32,-1
 181 5 l 1,0,1
225 128 m 1,33,-1
 321 397 l 1,34,-1
 321 400 l 2,35,36
 321 418 321 418 309 430 c 128,-1,37
 297 442 297 442 278 442 c 0,38,39
 240 442 240 442 217 396 c 128,-1,40
 194 350 194 350 194 274 c 0,41,42
 194 193 194 193 225 128 c 1,33,-1
EndSplineSet
EndChar

StartChar: sterling
Encoding: 163 163 98
Width: 500
GlyphClass: 2
Flags: W
LayerCount: 2
Fore
SplineSet
105 489 m 0,0,1
 105 575 105 575 160.5 629.5 c 128,-1,2
 216 684 216 684 308 684 c 0,3,4
 378 684 378 684 418.5 653.5 c 128,-1,5
 459 623 459 623 459 571 c 0,6,7
 459 538 459 538 440.5 518.5 c 128,-1,8
 422 499 422 499 391 499 c 0,9,10
 363 499 363 499 346 516 c 128,-1,11
 329 533 329 533 329 560 c 2,12,-1
 329 564 l 1,13,-1
 331 608 l 1,14,-1
 331 611 l 2,15,16
 331 654 331 654 287 654 c 0,17,18
 262 654 262 654 246.5 636.5 c 128,-1,19
 231 619 231 619 231 591 c 0,20,21
 231 547 231 547 270 373 c 1,22,-1
 384 373 l 1,23,-1
 384 308 l 1,24,-1
 275 308 l 1,25,26
 277 270 277 270 277 254 c 0,27,28
 277 192 277 192 257 134 c 1,29,30
 316 112 316 112 354 112 c 0,31,32
 400 112 400 112 421.5 127 c 128,-1,33
 443 142 443 142 454 183 c 1,34,-1
 477 183 l 1,35,36
 474 152 474 152 471.5 131.5 c 128,-1,37
 469 111 469 111 460 80.5 c 128,-1,38
 451 50 451 50 438 32 c 128,-1,39
 425 14 425 14 401.5 0 c 128,-1,40
 378 -14 378 -14 346 -14 c 128,-1,41
 314 -14 314 -14 287.5 -1 c 128,-1,42
 261 12 261 12 221 49 c 1,43,44
 173 -13 173 -13 109 -13 c 0,45,46
 67 -13 67 -13 44 9 c 128,-1,47
 21 31 21 31 21 72 c 0,48,49
 21 164 21 164 127 164 c 0,50,51
 150 164 150 164 178 157 c 1,52,53
 176 200 176 200 137 308 c 1,54,-1
 39 308 l 1,55,-1
 39 373 l 1,56,-1
 119 373 l 1,57,58
 105 451 105 451 105 489 c 0,0,1
181 86 m 1,59,60
 145 118 145 118 109 118 c 0,61,62
 83 118 83 118 68 104 c 128,-1,63
 53 90 53 90 53 66 c 0,64,65
 53 44 53 44 68.5 30.5 c 128,-1,66
 84 17 84 17 109 17 c 0,67,68
 137 17 137 17 154 33 c 128,-1,69
 171 49 171 49 181 86 c 1,59,60
EndSplineSet
EndChar

StartChar: currency
Encoding: 164 164 99
Width: 500
GlyphClass: 2
Flags: W
LayerCount: 2
Fore
SplineSet
-26 119 m 1,0,-1
 72 217 l 1,1,2
 35 271 35 271 35 337 c 0,3,4
 35 404 35 404 72 459 c 1,5,-1
 -26 557 l 1,6,-1
 32 613 l 1,7,-1
 128 517 l 1,8,9
 184 552 184 552 250 552 c 128,-1,10
 316 552 316 552 372 517 c 1,11,-1
 468 613 l 1,12,-1
 526 557 l 1,13,-1
 428 459 l 1,14,15
 465 400 465 400 465 337 c 0,16,17
 465 268 465 268 428 217 c 1,18,-1
 526 119 l 1,19,-1
 468 61 l 1,20,-1
 372 159 l 1,21,22
 314 122 314 122 250 122 c 128,-1,23
 186 122 186 122 128 159 c 1,24,-1
 32 61 l 1,25,-1
 -26 119 l 1,0,-1
250 470 m 128,-1,27
 197 470 197 470 160 431.5 c 128,-1,28
 123 393 123 393 123 337 c 128,-1,29
 123 281 123 281 160 242.5 c 128,-1,30
 197 204 197 204 250 204 c 0,31,32
 302 204 302 204 339.5 243 c 128,-1,33
 377 282 377 282 377 335 c 0,34,35
 377 391 377 391 340 430.5 c 128,-1,26
 303 470 303 470 250 470 c 128,-1,27
EndSplineSet
EndChar

StartChar: yen
Encoding: 165 165 100
Width: 500
GlyphClass: 2
Flags: W
LayerCount: 2
Fore
SplineSet
450 292 m 1,0,-1
 319 292 l 1,1,-1
 315 281 l 1,2,-1
 315 214 l 1,3,-1
 450 214 l 1,4,-1
 450 164 l 1,5,-1
 315 164 l 1,6,-1
 315 115 l 2,7,8
 315 64 315 64 333.5 47 c 128,-1,9
 352 30 352 30 414 25 c 1,10,-1
 414 0 l 1,11,-1
 83 0 l 1,12,-1
 83 25 l 1,13,14
 147 30 147 30 166 47 c 128,-1,15
 185 64 185 64 185 115 c 2,16,-1
 185 164 l 1,17,-1
 50 164 l 1,18,-1
 50 214 l 1,19,-1
 185 214 l 1,20,-1
 185 271 l 1,21,-1
 174 292 l 1,22,-1
 50 292 l 1,23,-1
 50 342 l 1,24,-1
 149 342 l 1,25,-1
 19 597 l 2,26,27
 -7 646 -7 646 -64 650 c 1,28,-1
 -64 676 l 1,29,-1
 237 676 l 1,30,-1
 237 650 l 1,31,32
 192 648 192 648 176 642.5 c 128,-1,33
 160 637 160 637 160 621 c 0,34,35
 160 606 160 606 171.5 581.5 c 128,-1,36
 183 557 183 557 215.5 496 c 128,-1,37
 248 435 248 435 278 371 c 1,38,-1
 293 342 l 1,39,-1
 412 572 l 1,40,41
 420 590 420 590 420 607 c 0,42,43
 420 631 420 631 405 639.5 c 128,-1,44
 390 648 390 648 342 650 c 1,45,-1
 342 676 l 1,46,-1
 547 676 l 1,47,-1
 547 650 l 1,48,49
 501 646 501 646 483 613 c 2,50,-1
 339 342 l 1,51,-1
 450 342 l 1,52,-1
 450 292 l 1,0,-1
EndSplineSet
EndChar

StartChar: brokenbar
Encoding: 166 166 101
Width: 220
GlyphClass: 2
Flags: W
LayerCount: 2
Fore
SplineSet
66 -19 m 1,0,-1
 66 258 l 1,1,-1
 154 258 l 1,2,-1
 154 -19 l 1,3,-1
 66 -19 l 1,0,-1
66 414 m 1,4,-1
 66 691 l 1,5,-1
 154 691 l 1,6,-1
 154 414 l 1,7,-1
 66 414 l 1,4,-1
EndSplineSet
EndChar

StartChar: section
Encoding: 167 167 102
Width: 500
GlyphClass: 2
Flags: W
LayerCount: 2
Fore
SplineSet
218 -23 m 0,0,1
 218 -43 218 -43 195 -59.5 c 128,-1,2
 172 -76 172 -76 172 -80 c 0,3,4
 172 -91 172 -91 193 -100 c 128,-1,5
 214 -109 214 -109 240 -109 c 0,6,7
 319 -109 319 -109 319 -38 c 0,8,9
 319 -15 319 -15 311 0 c 128,-1,10
 303 15 303 15 282 32 c 2,11,-1
 225 78 l 2,12,13
 119 164 119 164 88 203.5 c 128,-1,14
 57 243 57 243 57 293 c 0,15,16
 57 352 57 352 89 383.5 c 128,-1,17
 121 415 121 415 180 415 c 2,18,-1
 199 415 l 1,19,20
 137 469 137 469 118 497 c 128,-1,21
 99 525 99 525 99 561 c 0,22,23
 99 618 99 618 141 654.5 c 128,-1,24
 183 691 183 691 248 691 c 0,25,26
 306 691 306 691 349.5 661.5 c 128,-1,27
 393 632 393 632 393 592 c 0,28,29
 393 567 393 567 373 547.5 c 128,-1,30
 353 528 353 528 328 528 c 0,31,32
 306 528 306 528 287 546.5 c 128,-1,33
 268 565 268 565 268 585 c 0,34,35
 268 603 268 603 289 623 c 128,-1,36
 310 643 310 643 310 647 c 0,37,38
 310 655 310 655 293.5 661.5 c 128,-1,39
 277 668 277 668 256 668 c 0,40,41
 219 668 219 668 196 649 c 128,-1,42
 173 630 173 630 173 599 c 0,43,44
 173 549 173 549 277 480 c 0,45,46
 443 371 443 371 443 256 c 0,47,48
 443 196 443 196 407 171 c 128,-1,49
 371 146 371 146 302 144 c 1,50,51
 357 105 357 105 380.5 71.5 c 128,-1,52
 404 38 404 38 404 -3 c 0,53,54
 404 -59 404 -59 357.5 -95.5 c 128,-1,55
 311 -132 311 -132 240 -132 c 0,56,57
 178 -132 178 -132 134 -102.5 c 128,-1,58
 90 -73 90 -73 90 -32 c 0,59,60
 90 -4 90 -4 108.5 14.5 c 128,-1,61
 127 33 127 33 153 33 c 128,-1,62
 179 33 179 33 198.5 16.5 c 128,-1,63
 218 0 218 0 218 -23 c 0,0,1
367 225 m 0,64,65
 367 272 367 272 294 332 c 128,-1,66
 221 392 221 392 186 392 c 0,67,68
 163 392 163 392 147.5 376 c 128,-1,69
 132 360 132 360 132 336 c 0,70,71
 132 309 132 309 144.5 290.5 c 128,-1,72
 157 272 157 272 202 233 c 0,73,74
 248 193 248 193 270 180 c 128,-1,75
 292 167 292 167 314 167 c 0,76,77
 337 167 337 167 352 183.5 c 128,-1,78
 367 200 367 200 367 225 c 0,64,65
EndSplineSet
EndChar

StartChar: dieresis
Encoding: 168 168 103
Width: 333
GlyphClass: 2
Flags: W
LayerCount: 2
Fore
SplineSet
62 666 m 128,-1,1
 88 666 88 666 107.5 646.5 c 128,-1,2
 127 627 127 627 127 600 c 0,3,4
 127 574 127 574 108 555.5 c 128,-1,5
 89 537 89 537 62 537 c 0,6,7
 36 537 36 537 17 556.5 c 128,-1,8
 -2 576 -2 576 -2 602 c 128,-1,9
 -2 628 -2 628 17 647 c 128,-1,0
 36 666 36 666 62 666 c 128,-1,1
271 666 m 0,10,11
 298 666 298 666 317.5 646.5 c 128,-1,12
 337 627 337 627 337 600 c 0,13,14
 337 574 337 574 318 555.5 c 128,-1,15
 299 537 299 537 271 537 c 0,16,17
 245 537 245 537 226.5 556 c 128,-1,18
 208 575 208 575 208 603 c 0,19,20
 208 628 208 628 227 647 c 128,-1,21
 246 666 246 666 271 666 c 0,10,11
EndSplineSet
EndChar

StartChar: copyright
Encoding: 169 169 104
Width: 747
GlyphClass: 2
Flags: W
LayerCount: 2
Fore
SplineSet
402 544 m 0,0,1
 442 544 442 544 484.5 532.5 c 128,-1,2
 527 521 527 521 527 504 c 2,3,-1
 527 432 l 1,4,-1
 508 432 l 1,5,6
 482 521 482 521 401 521 c 0,7,8
 342 521 342 521 310 475 c 128,-1,9
 278 429 278 429 278 344 c 128,-1,10
 278 259 278 259 310 212 c 128,-1,11
 342 165 342 165 401 165 c 0,12,13
 443 165 443 165 472 186 c 128,-1,14
 501 207 501 207 525 256 c 1,15,-1
 544 256 l 1,16,-1
 528 182 l 1,17,18
 527 166 527 166 479.5 154 c 128,-1,19
 432 142 432 142 390 142 c 0,20,21
 292 142 292 142 234 195.5 c 128,-1,22
 176 249 176 249 176 340 c 0,23,24
 176 433 176 433 237.5 488.5 c 128,-1,25
 299 544 299 544 402 544 c 0,0,1
374 691 m 0,26,27
 520 691 520 691 620.5 588.5 c 128,-1,28
 721 486 721 486 721 337 c 0,29,30
 721 184 721 184 620.5 82.5 c 128,-1,31
 520 -19 520 -19 369 -19 c 0,32,33
 226 -19 226 -19 126 84 c 128,-1,34
 26 187 26 187 26 335 c 0,35,36
 26 485 26 485 126.5 588 c 128,-1,37
 227 691 227 691 374 691 c 0,26,27
374 639 m 128,-1,39
 259 639 259 639 178 550.5 c 128,-1,40
 97 462 97 462 97 335 c 0,41,42
 97 211 97 211 177 122 c 128,-1,43
 257 33 257 33 370 33 c 0,44,45
 488 33 488 33 569 120.5 c 128,-1,46
 650 208 650 208 650 336 c 0,47,48
 650 462 650 462 569.5 550.5 c 128,-1,38
 489 639 489 639 374 639 c 128,-1,39
EndSplineSet
EndChar

StartChar: ordfeminine
Encoding: 170 170 105
Width: 300
GlyphClass: 2
Flags: W
LayerCount: 2
Fore
SplineSet
267 337 m 1,0,-1
 267 261 l 1,1,-1
 14 261 l 1,2,-1
 14 337 l 1,3,-1
 267 337 l 1,0,-1
279 435 m 0,4,5
 283 435 283 435 291 443 c 1,6,-1
 301 431 l 1,7,8
 268 397 268 397 228 397 c 0,9,10
 204 397 204 397 192 406 c 128,-1,11
 180 415 180 415 175 438 c 1,12,13
 126 397 126 397 73 397 c 0,14,15
 40 397 40 397 19.5 415.5 c 128,-1,16
 -1 434 -1 434 -1 463 c 0,17,18
 -1 501 -1 501 35.5 524 c 128,-1,19
 72 547 72 547 173 573 c 1,20,-1
 173 613 l 2,21,22
 173 641 173 641 161.5 653 c 128,-1,23
 150 665 150 665 123 665 c 0,24,25
 106 665 106 665 94 658.5 c 128,-1,26
 82 652 82 652 82 643 c 0,27,28
 82 640 82 640 92 628 c 128,-1,29
 102 616 102 616 102 608 c 0,30,31
 102 592 102 592 88.5 582.5 c 128,-1,32
 75 573 75 573 54 573 c 0,33,34
 34 573 34 573 23 583.5 c 128,-1,35
 12 594 12 594 12 613 c 0,36,37
 12 647 12 647 47 667.5 c 128,-1,38
 82 688 82 688 141 688 c 0,39,40
 199 688 199 688 233.5 666 c 128,-1,41
 268 644 268 644 268 606 c 2,42,-1
 268 450 l 2,43,44
 268 435 268 435 279 435 c 0,4,5
172 465 m 1,45,-1
 172 552 l 1,46,47
 97 530 97 530 97 479 c 0,48,49
 97 462 97 462 106 450.5 c 128,-1,50
 115 439 115 439 129 439 c 0,51,52
 152 439 152 439 172 465 c 1,45,-1
EndSplineSet
EndChar

StartChar: guillemotleft
Encoding: 171 171 106
Width: 500
GlyphClass: 2
Flags: W
LayerCount: 2
Fore
SplineSet
355 227 m 1,0,1
 369 206 369 206 402.5 165 c 128,-1,2
 436 124 436 124 454.5 95.5 c 128,-1,3
 473 67 473 67 473 51 c 0,4,5
 473 36 473 36 461 36 c 0,6,7
 448 36 448 36 425 59 c 1,8,-1
 219 225 l 1,9,-1
 219 229 l 1,10,-1
 422 393 l 2,11,12
 423 393 423 393 430.5 400 c 128,-1,13
 438 407 438 407 445 411 c 128,-1,14
 452 415 452 415 459 415 c 0,15,16
 471 415 471 415 471 404 c 0,17,18
 471 394 471 394 462 376 c 128,-1,19
 453 358 453 358 437 335 c 128,-1,20
 421 312 421 312 407.5 294 c 128,-1,21
 394 276 394 276 376.5 254 c 128,-1,22
 359 232 359 232 355 227 c 1,0,1
159 227 m 1,23,24
 173 206 173 206 206.5 165 c 128,-1,25
 240 124 240 124 258.5 95.5 c 128,-1,26
 277 67 277 67 277 51 c 0,27,28
 277 36 277 36 265 36 c 0,29,30
 252 36 252 36 229 59 c 1,31,-1
 23 225 l 1,32,-1
 23 229 l 1,33,-1
 226 393 l 2,34,35
 227 393 227 393 234.5 400 c 128,-1,36
 242 407 242 407 249 411 c 128,-1,37
 256 415 256 415 263 415 c 0,38,39
 275 415 275 415 275 404 c 0,40,41
 275 394 275 394 266 376 c 128,-1,42
 257 358 257 358 241 335 c 128,-1,43
 225 312 225 312 211.5 294 c 128,-1,44
 198 276 198 276 180.5 254 c 128,-1,45
 163 232 163 232 159 227 c 1,23,24
EndSplineSet
EndChar

StartChar: logicalnot
Encoding: 172 172 107
Width: 680
GlyphClass: 2
Flags: W
LayerCount: 2
Fore
SplineSet
618 64 m 1,0,-1
 523 64 l 1,1,-1
 523 264 l 1,2,-1
 62 264 l 1,3,-1
 62 362 l 1,4,-1
 618 362 l 1,5,-1
 618 64 l 1,0,-1
EndSplineSet
EndChar

StartChar: registered
Encoding: 174 174 109
Width: 747
GlyphClass: 2
Flags: W
LayerCount: 2
Fore
SplineSet
482 153 m 2,0,1
 469 153 469 153 457 169 c 128,-1,2
 445 185 445 185 418 235.5 c 128,-1,3
 391 286 391 286 370 320 c 1,4,-1
 333 320 l 1,5,-1
 333 215 l 2,6,7
 333 185 333 185 339 179 c 128,-1,8
 345 173 345 173 379 171 c 1,9,-1
 379 153 l 1,10,-1
 207 153 l 1,11,-1
 207 171 l 1,12,13
 241 173 241 173 247 179 c 128,-1,14
 253 185 253 185 253 215 c 2,15,-1
 253 470 l 2,16,17
 253 501 253 501 247.5 506.5 c 128,-1,18
 242 512 242 512 207 514 c 1,19,-1
 207 532 l 1,20,-1
 400 532 l 2,21,22
 453 532 453 532 484 506 c 128,-1,23
 515 480 515 480 515 436 c 0,24,25
 515 363 515 363 435 331 c 1,26,-1
 493 249 l 1,27,28
 536 190 536 190 563 164 c 1,29,-1
 563 153 l 1,30,-1
 482 153 l 2,0,1
333 510 m 1,31,-1
 333 342 l 1,32,-1
 368 342 l 2,33,34
 397 342 397 342 413.5 365 c 128,-1,35
 430 388 430 388 430 430 c 0,36,37
 430 510 430 510 369 510 c 2,38,-1
 333 510 l 1,31,-1
374 691 m 0,39,40
 520 691 520 691 620.5 588.5 c 128,-1,41
 721 486 721 486 721 337 c 0,42,43
 721 184 721 184 620.5 82.5 c 128,-1,44
 520 -19 520 -19 369 -19 c 0,45,46
 226 -19 226 -19 126 84 c 128,-1,47
 26 187 26 187 26 335 c 0,48,49
 26 485 26 485 126.5 588 c 128,-1,50
 227 691 227 691 374 691 c 0,39,40
374 639 m 128,-1,52
 259 639 259 639 178 550.5 c 128,-1,53
 97 462 97 462 97 335 c 0,54,55
 97 211 97 211 177 122 c 128,-1,56
 257 33 257 33 370 33 c 0,57,58
 488 33 488 33 569 120.5 c 128,-1,59
 650 208 650 208 650 336 c 0,60,61
 650 462 650 462 569.5 550.5 c 128,-1,51
 489 639 489 639 374 639 c 128,-1,52
EndSplineSet
EndChar

StartChar: macron
Encoding: 175 175 110
Width: 333
GlyphClass: 2
Flags: W
LayerCount: 2
Fore
SplineSet
331 637 m 1,0,-1
 331 565 l 1,1,-1
 1 565 l 1,2,-1
 1 637 l 1,3,-1
 331 637 l 1,0,-1
EndSplineSet
EndChar

StartChar: degree
Encoding: 176 176 111
Width: 400
GlyphClass: 2
Flags: W
LayerCount: 2
Fore
SplineSet
200 688 m 128,-1,1
 260 688 260 688 301.5 646.5 c 128,-1,2
 343 605 343 605 343 545 c 0,3,4
 343 484 343 484 301.5 443 c 128,-1,5
 260 402 260 402 198 402 c 0,6,7
 140 402 140 402 98.5 444 c 128,-1,8
 57 486 57 486 57 545 c 0,9,10
 57 605 57 605 98.5 646.5 c 128,-1,0
 140 688 140 688 200 688 c 128,-1,1
200 652 m 0,11,12
 158 652 158 652 128 620.5 c 128,-1,13
 98 589 98 589 98 545 c 128,-1,14
 98 501 98 501 128 469.5 c 128,-1,15
 158 438 158 438 199 438 c 0,16,17
 242 438 242 438 272 469.5 c 128,-1,18
 302 501 302 501 302 545 c 0,19,20
 302 588 302 588 271.5 620 c 128,-1,21
 241 652 241 652 200 652 c 0,11,12
EndSplineSet
EndChar

StartChar: plusminus
Encoding: 177 177 112
Width: 676
GlyphClass: 2
Flags: W
LayerCount: 2
Fore
SplineSet
614 268 m 1,0,-1
 387 268 l 1,1,-1
 387 87 l 1,2,-1
 291 87 l 1,3,-1
 291 268 l 1,4,-1
 63 268 l 1,5,-1
 63 364 l 1,6,-1
 291 364 l 1,7,-1
 291 558 l 1,8,-1
 387 558 l 1,9,-1
 387 364 l 1,10,-1
 614 364 l 1,11,-1
 614 268 l 1,0,-1
613 -44 m 1,12,-1
 62 -44 l 1,13,-1
 62 48 l 1,14,-1
 613 48 l 1,15,-1
 613 -44 l 1,12,-1
EndSplineSet
EndChar

StartChar: twosuperior
Encoding: 178 178 113
Width: 300
GlyphClass: 2
Flags: W
LayerCount: 2
Fore
SplineSet
300 517 m 1,0,-1
 270 390 l 1,1,-1
 0 390 l 1,2,-1
 0 404 l 1,3,4
 112 516 112 516 148 566 c 128,-1,5
 184 616 184 616 184 659 c 0,6,7
 184 691 184 691 162 713 c 128,-1,8
 140 735 140 735 109 735 c 0,9,10
 62 735 62 735 33 681 c 1,11,-1
 9 681 l 1,12,13
 58 803 58 803 152 803 c 0,14,15
 205 803 205 803 238.5 772 c 128,-1,16
 272 741 272 741 272 692 c 0,17,18
 272 659 272 659 255 629.5 c 128,-1,19
 238 600 238 600 198 562 c 2,20,-1
 99 470 l 1,21,-1
 191 470 l 2,22,23
 241 470 241 470 255.5 477.5 c 128,-1,24
 270 485 270 485 284 517 c 1,25,-1
 300 517 l 1,0,-1
EndSplineSet
EndChar

StartChar: threesuperior
Encoding: 179 179 114
Width: 300
GlyphClass: 2
Flags: W
LayerCount: 2
Fore
SplineSet
43 478 m 1,0,1
 72 475 72 475 91.5 460 c 128,-1,2
 111 445 111 445 125.5 432 c 128,-1,3
 140 419 140 419 159 419 c 0,4,5
 187 419 187 419 204.5 437 c 128,-1,6
 222 455 222 455 222 484 c 0,7,8
 222 528 222 528 193 555 c 128,-1,9
 164 582 164 582 92 605 c 1,10,-1
 92 615 l 1,11,12
 138 629 138 629 157 646.5 c 128,-1,13
 176 664 176 664 176 694 c 0,14,15
 176 722 176 722 158 738.5 c 128,-1,16
 140 755 140 755 111 755 c 0,17,18
 88 755 88 755 71.5 744 c 128,-1,19
 55 733 55 733 36 705 c 1,20,-1
 16 712 l 1,21,22
 70 803 70 803 165 803 c 0,23,24
 215 803 215 803 243 781.5 c 128,-1,25
 271 760 271 760 271 722 c 0,26,27
 271 695 271 695 259.5 679 c 128,-1,28
 248 663 248 663 217 646 c 1,29,30
 297 613 297 613 297 539 c 0,31,32
 297 474 297 474 240.5 428.5 c 128,-1,33
 184 383 184 383 103 383 c 0,34,35
 57 383 57 383 30 397.5 c 128,-1,36
 3 412 3 412 3 437 c 0,37,38
 3 465 3 465 43 478 c 1,0,1
EndSplineSet
EndChar

StartChar: acute
Encoding: 180 180 115
Width: 333
GlyphClass: 2
Flags: W
LayerCount: 2
Fore
SplineSet
86 528 m 1,0,-1
 223 685 l 2,1,2
 248 713 248 713 276 713 c 0,3,4
 298 713 298 713 311 701 c 128,-1,5
 324 689 324 689 324 669 c 0,6,7
 324 652 324 652 316 641.5 c 128,-1,8
 308 631 308 631 284 616 c 2,9,-1
 142 528 l 1,10,-1
 86 528 l 1,0,-1
EndSplineSet
EndChar

StartChar: micro
Encoding: 181 181 116
Width: 556
GlyphClass: 2
Flags: W
LayerCount: 2
Fore
SplineSet
33 -129 m 0,0,1
 33 -116 33 -116 49.5 -47 c 128,-1,2
 66 22 66 22 66 88 c 2,3,-1
 66 461 l 1,4,-1
 205 461 l 1,5,-1
 205 149 l 2,6,7
 205 116 205 116 221 95.5 c 128,-1,8
 237 75 237 75 262 75 c 0,9,10
 294 75 294 75 336 102 c 1,11,-1
 336 461 l 1,12,-1
 475 461 l 1,13,-1
 475 101 l 2,14,15
 475 82 475 82 486.5 68 c 128,-1,16
 498 54 498 54 515 54 c 0,17,18
 525 54 525 54 536 60 c 1,19,-1
 536 36 l 1,20,21
 503 6 503 6 482 -3.5 c 128,-1,22
 461 -13 461 -13 430 -13 c 0,23,24
 361 -13 361 -13 329 39 c 1,25,26
 287 -13 287 -13 230 -13 c 128,-1,27
 173 -13 173 -13 128 22 c 1,28,29
 132 -9 132 -9 146.5 -60.5 c 128,-1,30
 161 -112 161 -112 161 -130 c 0,31,32
 161 -206 161 -206 98 -206 c 0,33,34
 67 -206 67 -206 50 -186 c 128,-1,35
 33 -166 33 -166 33 -129 c 0,0,1
EndSplineSet
EndChar

StartChar: paragraph
Encoding: 182 182 117
Width: 540
GlyphClass: 2
Flags: W
LayerCount: 2
Fore
SplineSet
199 265 m 1,0,1
 140 267 140 267 98.5 288 c 128,-1,2
 57 309 57 309 37 342.5 c 128,-1,3
 17 376 17 376 8.5 409.5 c 128,-1,4
 0 443 0 443 0 481 c 0,5,6
 0 581 0 581 53 628.5 c 128,-1,7
 106 676 106 676 219 676 c 2,8,-1
 519 676 l 1,9,-1
 519 651 l 1,10,11
 497 649 497 649 493 649 c 0,12,13
 456 644 456 644 447 636 c 128,-1,14
 438 628 438 628 438 599 c 1,15,-1
 437 589 l 1,16,-1
 437 -99 l 1,17,-1
 438 -109 l 1,18,19
 439 -139 439 -139 447 -147 c 128,-1,20
 455 -155 455 -155 491 -159 c 0,21,22
 494 -159 494 -159 514 -161 c 1,23,-1
 514 -186 l 1,24,-1
 343 -186 l 1,25,-1
 343 651 l 1,26,-1
 293 651 l 1,27,-1
 293 -186 l 1,28,-1
 118 -186 l 1,29,-1
 118 -161 l 1,30,31
 173 -156 173 -156 185.5 -148 c 128,-1,32
 198 -140 198 -140 198 -109 c 1,33,-1
 199 -99 l 1,34,-1
 199 265 l 1,0,1
199 651 m 1,35,36
 175 645 175 645 160 637.5 c 128,-1,37
 145 630 145 630 126.5 613 c 128,-1,38
 108 596 108 596 99 563.5 c 128,-1,39
 90 531 90 531 90 483 c 0,40,41
 90 329 90 329 199 290 c 1,42,-1
 199 651 l 1,35,36
EndSplineSet
EndChar

StartChar: middot
Encoding: 183 183 118
Width: 250
GlyphClass: 2
Flags: W
LayerCount: 2
Fore
SplineSet
123 310 m 0,0,1
 150 310 150 310 169.5 290.5 c 128,-1,2
 189 271 189 271 189 244 c 0,3,4
 189 218 189 218 170 199.5 c 128,-1,5
 151 181 151 181 123 181 c 0,6,7
 97 181 97 181 78.5 200 c 128,-1,8
 60 219 60 219 60 247 c 0,9,10
 60 272 60 272 79 291 c 128,-1,11
 98 310 98 310 123 310 c 0,0,1
EndSplineSet
EndChar

StartChar: cedilla
Encoding: 184 184 119
Width: 333
GlyphClass: 2
Flags: W
LayerCount: 2
Fore
SplineSet
84 -163 m 1,0,1
 124 -177 124 -177 144 -177 c 0,2,3
 201 -177 201 -177 201 -136 c 0,4,5
 201 -100 201 -100 155 -100 c 0,6,7
 142 -100 142 -100 127 -104 c 1,8,-1
 116 -96 l 1,9,-1
 159 0 l 1,10,-1
 201 0 l 1,11,-1
 173 -64 l 1,12,13
 188 -59 188 -59 206 -59 c 0,14,15
 247 -59 247 -59 270.5 -77.5 c 128,-1,16
 294 -96 294 -96 294 -129 c 0,17,18
 294 -170 294 -170 259 -194 c 128,-1,19
 224 -218 224 -218 164 -218 c 0,20,21
 118 -218 118 -218 68 -200 c 1,22,-1
 84 -163 l 1,0,1
EndSplineSet
EndChar

StartChar: onesuperior
Encoding: 185 185 120
Width: 270
GlyphClass: 2
Flags: W
LayerCount: 2
Fore
SplineSet
70 732 m 0,0,1
 56 732 56 732 14 717 c 1,2,-1
 14 738 l 1,3,-1
 178 803 l 1,4,-1
 189 803 l 1,5,-1
 189 466 l 2,6,7
 189 431 189 431 202 421 c 128,-1,8
 215 411 215 411 259 410 c 1,9,-1
 259 390 l 1,10,-1
 16 390 l 1,11,-1
 16 410 l 1,12,13
 64 410 64 410 78.5 421.5 c 128,-1,14
 93 433 93 433 93 470 c 2,15,-1
 93 691 l 2,16,17
 93 732 93 732 70 732 c 0,0,1
EndSplineSet
EndChar

StartChar: ordmasculine
Encoding: 186 186 121
Width: 330
GlyphClass: 2
Flags: W
LayerCount: 2
Fore
SplineSet
292 337 m 1,0,-1
 292 261 l 1,1,-1
 39 261 l 1,2,-1
 39 337 l 1,3,-1
 292 337 l 1,0,-1
165 688 m 128,-1,5
 228 688 228 688 270 646.5 c 128,-1,6
 312 605 312 605 312 543 c 0,7,8
 312 479 312 479 270 438 c 128,-1,9
 228 397 228 397 163 397 c 0,10,11
 101 397 101 397 59.5 438.5 c 128,-1,12
 18 480 18 480 18 542 c 0,13,14
 18 605 18 605 60 646.5 c 128,-1,4
 102 688 102 688 165 688 c 128,-1,5
165 667 m 128,-1,16
 137 667 137 667 126 639 c 128,-1,17
 115 611 115 611 115 538 c 0,18,19
 115 471 115 471 126 444 c 128,-1,20
 137 417 137 417 164 417 c 0,21,22
 192 417 192 417 203 443 c 128,-1,23
 214 469 214 469 214 536 c 0,24,25
 214 611 214 611 203.5 639 c 128,-1,15
 193 667 193 667 165 667 c 128,-1,16
EndSplineSet
EndChar

StartChar: guillemotright
Encoding: 187 187 122
Width: 500
GlyphClass: 2
Flags: W
LayerCount: 2
Fore
SplineSet
145 224 m 1,0,1
 137 236 137 236 103.5 277.5 c 128,-1,2
 70 319 70 319 48.5 351.5 c 128,-1,3
 27 384 27 384 27 400 c 0,4,5
 27 415 27 415 38 415 c 0,6,7
 52 415 52 415 75 392 c 1,8,-1
 281 226 l 1,9,-1
 281 222 l 1,10,-1
 72 53 l 1,11,12
 53 36 53 36 41 36 c 128,-1,13
 29 36 29 36 29 47 c 0,14,15
 29 80 29 80 122 194 c 1,16,-1
 145 224 l 1,0,1
341 224 m 1,17,18
 333 236 333 236 299.5 277.5 c 128,-1,19
 266 319 266 319 244.5 351.5 c 128,-1,20
 223 384 223 384 223 400 c 0,21,22
 223 415 223 415 235 415 c 0,23,24
 239 415 239 415 245.5 411.5 c 128,-1,25
 252 408 252 408 256.5 404 c 128,-1,26
 261 400 261 400 265.5 396 c 128,-1,27
 270 392 270 392 271 392 c 2,28,-1
 477 226 l 1,29,-1
 477 222 l 1,30,-1
 274 58 l 1,31,32
 252 36 252 36 237 36 c 0,33,34
 225 36 225 36 225 47 c 0,35,36
 225 81 225 81 317 194 c 1,37,-1
 341 224 l 1,17,18
EndSplineSet
EndChar

StartChar: onequarter
Encoding: 188 188 123
Width: 750
GlyphClass: 3
Flags: W
LayerCount: 2
Fore
SplineSet
702 153 m 1,0,-1
 743 153 l 1,1,-1
 743 87 l 1,2,-1
 702 87 l 1,3,-1
 702 0 l 1,4,-1
 608 0 l 1,5,-1
 608 87 l 1,6,-1
 447 87 l 1,7,-1
 447 154 l 1,8,9
 496 227 496 227 611 367 c 1,10,-1
 650 413 l 1,11,-1
 702 413 l 1,12,-1
 702 153 l 1,0,-1
609 153 m 1,13,-1
 609 328 l 1,14,-1
 472 153 l 1,15,-1
 609 153 l 1,13,-1
615 688 m 1,16,-1
 671 688 l 1,17,-1
 232 -12 l 1,18,-1
 174 -12 l 1,19,-1
 615 688 l 1,16,-1
84 617 m 0,20,21
 70 617 70 617 28 602 c 1,22,-1
 28 623 l 1,23,-1
 192 688 l 1,24,-1
 203 688 l 1,25,-1
 203 351 l 2,26,27
 203 316 203 316 216 306 c 128,-1,28
 229 296 229 296 273 295 c 1,29,-1
 273 275 l 1,30,-1
 30 275 l 1,31,-1
 30 295 l 1,32,33
 78 295 78 295 92.5 306.5 c 128,-1,34
 107 318 107 318 107 355 c 2,35,-1
 107 576 l 2,36,37
 107 617 107 617 84 617 c 0,20,21
EndSplineSet
Ligature2: "'frac' Diagonal Fractions lookup 21 per glyph data 1" one fraction four
Ligature2: "'frac' Diagonal Fractions lookup 21 per glyph data 0" one slash four
EndChar

StartChar: onehalf
Encoding: 189 189 124
Width: 770
GlyphClass: 3
Flags: W
LayerCount: 2
Fore
SplineSet
573 688 m 1,0,-1
 629 688 l 1,1,-1
 190 -12 l 1,2,-1
 132 -12 l 1,3,-1
 573 688 l 1,0,-1
59 617 m 0,4,5
 45 617 45 617 3 602 c 1,6,-1
 3 623 l 1,7,-1
 167 688 l 1,8,-1
 178 688 l 1,9,-1
 178 351 l 2,10,11
 178 316 178 316 191 306 c 128,-1,12
 204 296 204 296 248 295 c 1,13,-1
 248 275 l 1,14,-1
 5 275 l 1,15,-1
 5 295 l 1,16,17
 53 295 53 295 67.5 306.5 c 128,-1,18
 82 318 82 318 82 355 c 2,19,-1
 82 576 l 2,20,21
 82 617 82 617 59 617 c 0,4,5
765 127 m 1,22,-1
 735 0 l 1,23,-1
 465 0 l 1,24,-1
 465 14 l 1,25,26
 577 126 577 126 613 176 c 128,-1,27
 649 226 649 226 649 269 c 0,28,29
 649 301 649 301 627 323 c 128,-1,30
 605 345 605 345 574 345 c 0,31,32
 527 345 527 345 498 291 c 1,33,-1
 474 291 l 1,34,35
 523 413 523 413 617 413 c 0,36,37
 670 413 670 413 703.5 382 c 128,-1,38
 737 351 737 351 737 302 c 0,39,40
 737 269 737 269 720 239 c 128,-1,41
 703 209 703 209 663 172 c 2,42,-1
 570 85 l 1,43,-1
 570 80 l 1,44,-1
 656 80 l 2,45,46
 706 80 706 80 720.5 87.5 c 128,-1,47
 735 95 735 95 749 127 c 1,48,-1
 765 127 l 1,22,-1
EndSplineSet
Ligature2: "'frac' Diagonal Fractions lookup 21 per glyph data 1" one fraction two
Ligature2: "'frac' Diagonal Fractions lookup 21 per glyph data 0" one slash two
EndChar

StartChar: threequarters
Encoding: 190 190 125
Width: 750
GlyphClass: 3
Flags: W
LayerCount: 2
Fore
SplineSet
613 688 m 1,0,-1
 669 688 l 1,1,-1
 230 -12 l 1,2,-1
 172 -12 l 1,3,-1
 613 688 l 1,0,-1
63 363 m 1,4,5
 92 360 92 360 111.5 345 c 128,-1,6
 131 330 131 330 145.5 317 c 128,-1,7
 160 304 160 304 179 304 c 0,8,9
 207 304 207 304 224.5 322 c 128,-1,10
 242 340 242 340 242 369 c 0,11,12
 242 413 242 413 213 440 c 128,-1,13
 184 467 184 467 112 490 c 1,14,-1
 112 500 l 1,15,16
 158 514 158 514 177 531.5 c 128,-1,17
 196 549 196 549 196 579 c 0,18,19
 196 607 196 607 178 623.5 c 128,-1,20
 160 640 160 640 131 640 c 0,21,22
 108 640 108 640 91.5 629 c 128,-1,23
 75 618 75 618 56 590 c 1,24,-1
 36 597 l 1,25,26
 90 688 90 688 185 688 c 0,27,28
 235 688 235 688 263 666.5 c 128,-1,29
 291 645 291 645 291 607 c 0,30,31
 291 581 291 581 280 564.5 c 128,-1,32
 269 548 269 548 241 533 c 1,33,-1
 241 529 l 1,34,35
 317 499 317 499 317 424 c 0,36,37
 317 359 317 359 260.5 313.5 c 128,-1,38
 204 268 204 268 123 268 c 0,39,40
 77 268 77 268 50 282.5 c 128,-1,41
 23 297 23 297 23 322 c 0,42,43
 23 350 23 350 63 363 c 1,4,5
692 153 m 1,44,-1
 733 153 l 1,45,-1
 733 87 l 1,46,-1
 692 87 l 1,47,-1
 692 0 l 1,48,-1
 598 0 l 1,49,-1
 598 87 l 1,50,-1
 437 87 l 1,51,-1
 437 154 l 1,52,53
 486 227 486 227 601 367 c 1,54,-1
 640 413 l 1,55,-1
 692 413 l 1,56,-1
 692 153 l 1,44,-1
599 153 m 1,57,-1
 599 328 l 1,58,-1
 462 153 l 1,59,-1
 599 153 l 1,57,-1
EndSplineSet
Ligature2: "'frac' Diagonal Fractions lookup 21 per glyph data 1" three fraction four
Ligature2: "'frac' Diagonal Fractions lookup 21 per glyph data 0" three slash four
EndChar

StartChar: AE
Encoding: 198 198 133
Width: 987
GlyphClass: 2
Flags: W
LayerCount: 2
Fore
SplineSet
900 475 m 1,0,1
 892 512 892 512 885 534 c 128,-1,2
 878 556 878 556 863 579 c 128,-1,3
 848 602 848 602 825.5 614 c 128,-1,4
 803 626 803 626 766 633.5 c 128,-1,5
 729 641 729 641 676 641 c 0,6,7
 635 641 635 641 621.5 635 c 128,-1,8
 608 629 608 629 608 611 c 2,9,-1
 608 363 l 1,10,11
 696 370 696 370 719 392.5 c 128,-1,12
 742 415 742 415 763 512 c 1,13,-1
 786 512 l 1,14,-1
 786 174 l 1,15,-1
 763 174 l 1,16,17
 749 267 749 267 720.5 296.5 c 128,-1,18
 692 326 692 326 608 331 c 1,19,-1
 608 88 l 2,20,21
 608 56 608 56 623.5 45 c 128,-1,22
 639 34 639 34 684 34 c 0,23,24
 810 34 810 34 868 95 c 0,25,26
 894 122 894 122 916 155.5 c 128,-1,27
 938 189 938 189 944 211 c 1,28,-1
 967 211 l 1,29,-1
 926 0 l 1,30,-1
 360 0 l 1,31,-1
 360 25 l 1,32,33
 415 28 415 28 431.5 46 c 128,-1,34
 448 64 448 64 448 119 c 2,35,-1
 448 303 l 1,36,-1
 258 303 l 1,37,-1
 158 115 l 2,38,39
 143 88 143 88 143 70 c 0,40,41
 143 50 143 50 156.5 40.5 c 128,-1,42
 170 31 170 31 209 27 c 2,43,-1
 226 25 l 1,44,-1
 226 0 l 1,45,-1
 20 0 l 1,46,-1
 20 25 l 1,47,48
 50 30 50 30 67 49.5 c 128,-1,49
 84 69 84 69 130 153 c 2,50,-1
 343 542 l 1,51,52
 378 596 378 596 378 617 c 0,53,54
 378 635 378 635 359 643 c 128,-1,55
 340 651 340 651 291 654 c 1,56,-1
 291 676 l 1,57,-1
 925 676 l 1,58,-1
 925 475 l 1,59,-1
 900 475 l 1,0,1
280 343 m 1,60,-1
 448 343 l 1,61,-1
 448 633 l 1,62,-1
 441 633 l 1,63,-1
 280 343 l 1,60,-1
EndSplineSet
Substitution2: "'sups' Superscript lookup 24 subtable" uni1d2d
Substitution2: "'c2sc' Capitals to Small Capitals in Latin lookup 4 subtable" sc.ae
EndChar

StartChar: Ccedilla
Encoding: 199 199 134
Width: 708
GlyphClass: 2
Flags: W
LayerCount: 2
Fore
SplineSet
413 29 m 0,0,1
 479 29 479 29 533 61 c 128,-1,2
 587 93 587 93 643 152 c 1,3,-1
 673 127 l 1,4,5
 603 47 603 47 539 14.5 c 128,-1,6
 475 -18 475 -18 387 -19 c 1,7,-1
 367 -64 l 1,8,9
 382 -59 382 -59 400 -59 c 0,10,11
 441 -59 441 -59 464.5 -77.5 c 128,-1,12
 488 -96 488 -96 488 -129 c 0,13,14
 488 -170 488 -170 453 -194 c 128,-1,15
 418 -218 418 -218 358 -218 c 0,16,17
 312 -218 312 -218 262 -200 c 1,18,-1
 278 -163 l 1,19,20
 320 -177 320 -177 337 -177 c 0,21,22
 395 -177 395 -177 395 -136 c 0,23,24
 395 -100 395 -100 349 -100 c 0,25,26
 336 -100 336 -100 321 -104 c 1,27,-1
 310 -96 l 1,28,-1
 345 -17 l 1,29,-1
 342 -16 l 1,30,31
 206 -3 206 -3 120.5 94 c 128,-1,32
 35 191 35 191 35 332 c 0,33,34
 35 486 35 486 134.5 588.5 c 128,-1,35
 234 691 234 691 383 691 c 0,36,37
 430 691 430 691 471.5 678.5 c 128,-1,38
 513 666 513 666 541 654 c 128,-1,39
 569 642 569 642 584 642 c 0,40,41
 598 642 598 642 608 652 c 128,-1,42
 618 662 618 662 628 688 c 1,43,-1
 655 688 l 1,44,-1
 655 454 l 1,45,-1
 630 454 l 1,46,47
 620 476 620 476 609 495.5 c 128,-1,48
 598 515 598 515 575 547 c 128,-1,49
 552 579 552 579 528 601.5 c 128,-1,50
 504 624 504 624 468.5 641 c 128,-1,51
 433 658 433 658 396 658 c 0,52,53
 306 658 306 658 259 577 c 128,-1,54
 212 496 212 496 212 341 c 0,55,56
 212 29 212 29 413 29 c 0,0,1
EndSplineSet
EndChar

StartChar: Eth
Encoding: 208 208 143
Width: 731
GlyphClass: 2
Flags: W
LayerCount: 2
Fore
SplineSet
12 326 m 1,0,-1
 12 373 l 1,1,-1
 103 373 l 1,2,-1
 103 584 l 2,3,4
 103 618 103 618 85.5 632 c 128,-1,5
 68 646 68 646 20 651 c 1,6,-1
 20 676 l 1,7,-1
 325 676 l 2,8,9
 498 676 498 676 597 588 c 128,-1,10
 696 500 696 500 696 345 c 128,-1,11
 696 190 696 190 597 95 c 128,-1,12
 498 0 498 0 336 0 c 2,13,-1
 20 0 l 1,14,-1
 20 25 l 1,15,16
 63 26 63 26 83 42 c 128,-1,17
 103 58 103 58 103 91 c 2,18,-1
 103 326 l 1,19,-1
 12 326 l 1,0,-1
325 642 m 0,20,21
 287 642 287 642 276 631.5 c 128,-1,22
 265 621 265 621 265 595 c 2,23,-1
 265 373 l 1,24,-1
 379 373 l 1,25,-1
 379 326 l 1,26,-1
 265 326 l 1,27,-1
 265 93 l 2,28,29
 265 59 265 59 277 47 c 128,-1,30
 289 35 289 35 323 35 c 0,31,32
 522 35 522 35 522 330 c 0,33,34
 522 418 522 418 504.5 482 c 128,-1,35
 487 546 487 546 457 579 c 128,-1,36
 427 612 427 612 394.5 627 c 128,-1,37
 362 642 362 642 325 642 c 0,20,21
EndSplineSet
Substitution2: "'c2sc' Capitals to Small Capitals in Latin lookup 4 subtable" sc.eth
EndChar

StartChar: multiply
Encoding: 215 215 150
Width: 676
GlyphClass: 2
Flags: W
LayerCount: 2
Fore
SplineSet
614 51 m 1,0,-1
 546 -17 l 1,1,-1
 338 191 l 1,2,-1
 130 -17 l 1,3,-1
 62 51 l 1,4,-1
 268 257 l 1,5,-1
 62 463 l 1,6,-1
 130 531 l 1,7,-1
 338 324 l 1,8,-1
 546 531 l 1,9,-1
 614 463 l 1,10,-1
 408 257 l 1,11,-1
 614 51 l 1,0,-1
EndSplineSet
EndChar

StartChar: Oslash
Encoding: 216 216 151
Width: 778
GlyphClass: 2
Flags: W
LayerCount: 2
Fore
SplineSet
167 52 m 1,0,1
 148 68 148 68 137.5 78.5 c 128,-1,2
 127 89 127 89 104.5 117 c 128,-1,3
 82 145 82 145 69.5 172.5 c 128,-1,4
 57 200 57 200 46 243.5 c 128,-1,5
 35 287 35 287 35 335 c 0,6,7
 35 490 35 490 135 590.5 c 128,-1,8
 235 691 235 691 390 691 c 0,9,10
 485 691 485 691 572 644 c 1,11,-1
 635 737 l 1,12,-1
 685 737 l 1,13,-1
 607 622 l 1,14,15
 633 601 633 601 649.5 583.5 c 128,-1,16
 666 566 666 566 691 530.5 c 128,-1,17
 716 495 716 495 729.5 445.5 c 128,-1,18
 743 396 743 396 743 336 c 0,19,20
 743 180 743 180 643.5 80.5 c 128,-1,21
 544 -19 544 -19 389 -19 c 0,22,23
 290 -19 290 -19 202 30 c 1,24,-1
 131 -74 l 1,25,-1
 81 -74 l 1,26,-1
 167 52 l 1,0,1
234 151 m 1,27,-1
 520 569 l 1,28,29
 494 617 494 617 463.5 637.5 c 128,-1,30
 433 658 433 658 389 658 c 0,31,32
 304 658 304 658 258 572 c 128,-1,33
 212 486 212 486 212 328 c 0,34,35
 212 230 212 230 234 151 c 1,27,-1
540 524 m 1,36,-1
 253 104 l 1,37,38
 279 56 279 56 310.5 35 c 128,-1,39
 342 14 342 14 389 14 c 0,40,41
 476 14 476 14 521 95 c 128,-1,42
 566 176 566 176 566 331 c 0,43,44
 566 440 566 440 540 524 c 1,36,-1
EndSplineSet
Substitution2: "'c2sc' Capitals to Small Capitals in Latin lookup 4 subtable" sc.oslash
EndChar

StartChar: Thorn
Encoding: 222 222 157
Width: 639
GlyphClass: 2
Flags: W
LayerCount: 2
Fore
SplineSet
266 546 m 1,0,-1
 332 546 l 2,1,2
 466 546 466 546 535 499.5 c 128,-1,3
 604 453 604 453 604 363 c 0,4,5
 604 266 604 266 516 212 c 0,6,7
 475 188 475 188 430 181 c 128,-1,8
 385 174 385 174 266 173 c 1,9,-1
 266 117 l 2,10,11
 266 62 266 62 280.5 47.5 c 128,-1,12
 295 33 295 33 354 25 c 1,13,-1
 354 0 l 1,14,-1
 20 0 l 1,15,-1
 20 25 l 1,16,17
 42 29 42 29 44 29 c 0,18,19
 79 33 79 33 91.5 51.5 c 128,-1,20
 104 70 104 70 104 117 c 2,21,-1
 104 559 l 2,22,23
 104 612 104 612 88 629.5 c 128,-1,24
 72 647 72 647 20 651 c 1,25,-1
 20 676 l 1,26,-1
 354 676 l 1,27,-1
 354 651 l 1,28,29
 294 643 294 643 280 628 c 128,-1,30
 266 613 266 613 266 558 c 2,31,-1
 266 546 l 1,0,-1
266 208 m 1,32,33
 364 208 364 208 398 238 c 128,-1,34
 432 268 432 268 432 359 c 0,35,36
 432 440 432 440 405 475.5 c 128,-1,37
 378 511 378 511 316 511 c 0,38,39
 266 511 266 511 266 476 c 2,40,-1
 266 208 l 1,32,33
EndSplineSet
Substitution2: "'c2sc' Capitals to Small Capitals in Latin lookup 4 subtable" sc.thorn
EndChar

StartChar: ssharp
Encoding: 223 223 158
Width: 553
GlyphClass: 2
Flags: W
LayerCount: 2
Fore
SplineSet
372 195 m 0,0,1
 372 268 372 268 359.5 307 c 128,-1,2
 347 346 347 346 327 358.5 c 128,-1,3
 307 371 307 371 270 373 c 1,4,-1
 270 407 l 1,5,6
 313 408 313 408 326.5 432 c 128,-1,7
 340 456 340 456 340 530 c 0,8,9
 340 600 340 600 323.5 631.5 c 128,-1,10
 307 663 307 663 269 663 c 0,11,12
 210 663 210 663 210 586 c 2,13,-1
 210 0 l 1,14,-1
 20 0 l 1,15,-1
 20 24 l 1,16,17
 52 29 52 29 61.5 40.5 c 128,-1,18
 71 52 71 52 71 87 c 2,19,-1
 71 507 l 2,20,21
 71 587 71 587 129 639 c 128,-1,22
 187 691 187 691 278 691 c 0,23,24
 363 691 363 691 420 647 c 128,-1,25
 477 603 477 603 477 537 c 0,26,27
 477 428 477 428 321 393 c 1,28,29
 322 393 322 393 337.5 388.5 c 128,-1,30
 353 384 353 384 359.5 382 c 128,-1,31
 366 380 366 380 383.5 373 c 128,-1,32
 401 366 401 366 411 361 c 128,-1,33
 421 356 421 356 437 346 c 128,-1,34
 453 336 453 336 462.5 326.5 c 128,-1,35
 472 317 472 317 484 302.5 c 128,-1,36
 496 288 496 288 502.5 272.5 c 128,-1,37
 509 257 509 257 513.5 236.5 c 128,-1,38
 518 216 518 216 518 194 c 0,39,40
 518 108 518 108 463 48 c 128,-1,41
 408 -12 408 -12 329 -12 c 0,42,43
 306 -12 306 -12 265 3 c 1,44,-1
 279 37 l 1,45,-1
 289 30 l 2,46,47
 300 23 300 23 311 23 c 0,48,49
 346 23 346 23 359 59.5 c 128,-1,50
 372 96 372 96 372 195 c 0,0,1
EndSplineSet
Substitution2: "'smcp' Lowercase to Small Capitals in Latin lookup 2 subtable" sc.ssharp
EndChar

StartChar: ae
Encoding: 230 230 165
Width: 703
GlyphClass: 2
Flags: W
AnchorPoint: "Anchor-9" 366 470 basechar 0
LayerCount: 2
Fore
SplineSet
145 406 m 0,0,1
 145 399 145 399 159.5 381.5 c 128,-1,2
 174 364 174 364 174 341 c 0,3,4
 174 314 174 314 157.5 299 c 128,-1,5
 141 284 141 284 111 284 c 0,6,7
 79 284 79 284 60.5 301.5 c 128,-1,8
 42 319 42 319 42 348 c 0,9,10
 42 402 42 402 93.5 437.5 c 128,-1,11
 145 473 145 473 224 473 c 0,12,13
 314 473 314 473 366 422 c 1,14,15
 418 473 418 473 493 473 c 0,16,17
 526 473 526 473 555.5 464 c 128,-1,18
 585 455 585 455 615 432.5 c 128,-1,19
 645 410 645 410 662.5 363 c 128,-1,20
 680 316 680 316 680 248 c 1,21,-1
 426 248 l 1,22,-1
 426 225 l 2,23,24
 426 139 426 139 453 100 c 128,-1,25
 480 61 480 61 541 61 c 0,26,27
 610 61 610 61 664 128 c 1,28,-1
 685 113 l 1,29,30
 641 46 641 46 594 18.5 c 128,-1,31
 547 -9 547 -9 476 -9 c 0,32,33
 423 -9 423 -9 390 10 c 128,-1,34
 357 29 357 29 329 75 c 1,35,36
 240 -14 240 -14 143 -14 c 0,37,38
 85 -14 85 -14 55 13.5 c 128,-1,39
 25 41 25 41 25 94 c 0,40,41
 25 111 25 111 29 125.5 c 128,-1,42
 33 140 33 140 38.5 152 c 128,-1,43
 44 164 44 164 56 175.5 c 128,-1,44
 68 187 68 187 77.5 195 c 128,-1,45
 87 203 87 203 105.5 212.5 c 128,-1,46
 124 222 124 222 135.5 227.5 c 128,-1,47
 147 233 147 233 171 241.5 c 128,-1,48
 195 250 195 250 207.5 254 c 128,-1,49
 220 258 220 258 248 267 c 128,-1,50
 276 276 276 276 288 280 c 1,51,-1
 288 360 l 2,52,53
 288 404 288 404 270 422.5 c 128,-1,54
 252 441 252 441 210 441 c 0,55,56
 182 441 182 441 163.5 431 c 128,-1,57
 145 421 145 421 145 406 c 0,0,1
288 81 m 1,58,-1
 288 248 l 1,59,60
 222 224 222 224 195.5 195.5 c 128,-1,61
 169 167 169 167 169 121 c 0,62,63
 169 49 169 49 226 49 c 0,64,65
 257 49 257 49 288 81 c 1,58,-1
426 285 m 1,66,-1
 559 285 l 1,67,-1
 559 318 l 2,68,69
 559 388 559 388 545 415.5 c 128,-1,70
 531 443 531 443 496 443 c 0,71,72
 457 443 457 443 441.5 408 c 128,-1,73
 426 373 426 373 426 285 c 1,66,-1
EndSplineSet
Substitution2: "'smcp' Lowercase to Small Capitals in Latin lookup 2 subtable" sc.ae
EndChar

StartChar: ccedilla
Encoding: 231 231 166
Width: 435
GlyphClass: 2
Flags: W
LayerCount: 2
Fore
SplineSet
153 -163 m 1,0,1
 195 -177 195 -177 212 -177 c 0,2,3
 270 -177 270 -177 270 -136 c 0,4,5
 270 -100 270 -100 224 -100 c 0,6,7
 211 -100 211 -100 196 -104 c 1,8,-1
 185 -96 l 1,9,-1
 222 -13 l 1,10,11
 133 -5 133 -5 79 59.5 c 128,-1,12
 25 124 25 124 25 222 c 0,13,14
 25 331 25 331 92 402 c 128,-1,15
 159 473 159 473 261 473 c 0,16,17
 327 473 327 473 371.5 441.5 c 128,-1,18
 416 410 416 410 416 363 c 0,19,20
 416 334 416 334 398 317 c 128,-1,21
 380 300 380 300 348 300 c 0,22,23
 293 300 293 300 292 372 c 0,24,25
 292 414 292 414 287 423 c 0,26,27
 277 442 277 442 250 442 c 0,28,29
 211 442 211 442 188.5 397.5 c 128,-1,30
 166 353 166 353 166 276 c 0,31,32
 166 174 166 174 204.5 113.5 c 128,-1,33
 243 53 243 53 308 53 c 0,34,35
 339 53 339 53 361.5 65.5 c 128,-1,36
 384 78 384 78 412 109 c 1,37,-1
 430 91 l 1,38,39
 363 1 363 1 265 -13 c 1,40,-1
 242 -64 l 1,41,42
 257 -59 257 -59 275 -59 c 0,43,44
 316 -59 316 -59 339.5 -77.5 c 128,-1,45
 363 -96 363 -96 363 -129 c 0,46,47
 363 -170 363 -170 328 -194 c 128,-1,48
 293 -218 293 -218 233 -218 c 0,49,50
 187 -218 187 -218 137 -200 c 1,51,-1
 153 -163 l 1,0,1
EndSplineSet
EndChar

StartChar: eth
Encoding: 240 240 175
Width: 501
GlyphClass: 2
Flags: W
LayerCount: 2
Fore
SplineSet
335 614 m 1,0,1
 375 581 375 581 403.5 542 c 128,-1,2
 432 503 432 503 445.5 472 c 128,-1,3
 459 441 459 441 466.5 402 c 128,-1,4
 474 363 474 363 475 343 c 128,-1,5
 476 323 476 323 476 293 c 0,6,7
 476 148 476 148 417 67 c 128,-1,8
 358 -14 358 -14 251 -14 c 0,9,10
 153 -14 153 -14 89 55 c 128,-1,11
 25 124 25 124 25 229 c 0,12,13
 25 333 25 333 89.5 403 c 128,-1,14
 154 473 154 473 249 473 c 0,15,16
 280 473 280 473 300 464 c 128,-1,17
 320 455 320 455 340 432 c 1,18,-1
 342 435 l 1,19,20
 316 514 316 514 256 574 c 1,21,-1
 146 518 l 1,22,-1
 98 549 l 1,23,-1
 215 608 l 1,24,25
 152 653 152 653 82 666 c 1,26,-1
 128 691 l 1,27,28
 216 682 216 682 288 645 c 1,29,-1
 378 691 l 1,30,-1
 427 661 l 1,31,-1
 335 614 l 1,0,1
172 222 m 0,32,33
 172 110 172 110 188.5 63.5 c 128,-1,34
 205 17 205 17 252 17 c 0,35,36
 296 17 296 17 312.5 63.5 c 128,-1,37
 329 110 329 110 329 233 c 0,38,39
 329 349 329 349 312 395.5 c 128,-1,40
 295 442 295 442 252 442 c 0,41,42
 206 442 206 442 189 394.5 c 128,-1,43
 172 347 172 347 172 222 c 0,32,33
EndSplineSet
Substitution2: "'sups' Superscript lookup 24 subtable" uni1d9e
Substitution2: "'smcp' Lowercase to Small Capitals in Latin lookup 2 subtable" sc.eth
EndChar

StartChar: divide
Encoding: 247 247 182
Width: 676
GlyphClass: 2
Flags: W
LayerCount: 2
Fore
SplineSet
421 495 m 128,-1,1
 421 464 421 464 398.5 442 c 128,-1,2
 376 420 376 420 345 420 c 128,-1,3
 314 420 314 420 292 442 c 128,-1,4
 270 464 270 464 270 495 c 128,-1,5
 270 526 270 526 292 548 c 128,-1,6
 314 570 314 570 345 570 c 128,-1,7
 376 570 376 570 398.5 548 c 128,-1,0
 421 526 421 526 421 495 c 128,-1,1
614 209 m 1,8,-1
 62 209 l 1,9,-1
 62 305 l 1,10,-1
 614 305 l 1,11,-1
 614 209 l 1,8,-1
421 19 m 128,-1,13
 421 -12 421 -12 398.5 -34 c 128,-1,14
 376 -56 376 -56 345 -56 c 128,-1,15
 314 -56 314 -56 292 -34 c 128,-1,16
 270 -12 270 -12 270 19 c 128,-1,17
 270 50 270 50 292 72 c 128,-1,18
 314 94 314 94 345 94 c 128,-1,19
 376 94 376 94 398.5 72 c 128,-1,12
 421 50 421 50 421 19 c 128,-1,13
EndSplineSet
EndChar

StartChar: oslash
Encoding: 248 248 183
Width: 501
GlyphClass: 2
Flags: W
AnchorPoint: "Anchor-9" 252 470 basechar 0
LayerCount: 2
Fore
SplineSet
461 549 m 1,0,-1
 388 426 l 1,1,2
 476 347 476 347 476 229 c 0,3,4
 476 124 476 124 412 55 c 128,-1,5
 348 -14 348 -14 251 -14 c 0,6,7
 195 -14 195 -14 144 13 c 1,8,-1
 81 -92 l 1,9,-1
 34 -92 l 1,10,-1
 110 36 l 1,11,12
 25 115 25 115 25 229 c 0,13,14
 25 334 25 334 89.5 403.5 c 128,-1,15
 154 473 154 473 252 473 c 0,16,17
 306 473 306 473 355 448 c 1,18,-1
 415 549 l 1,19,-1
 461 549 l 1,0,-1
173 140 m 1,20,-1
 316 382 l 1,21,22
 306 414 306 414 291.5 428 c 128,-1,23
 277 442 277 442 252 442 c 0,24,25
 205 442 205 442 188.5 393.5 c 128,-1,26
 172 345 172 345 172 210 c 0,27,28
 172 160 172 160 173 140 c 1,20,-1
327 324 m 1,29,-1
 183 80 l 1,30,31
 201 17 201 17 251 17 c 0,32,33
 294 17 294 17 311.5 62 c 128,-1,34
 329 107 329 107 329 219 c 0,35,36
 329 230 329 230 327 324 c 1,29,-1
EndSplineSet
Substitution2: "'smcp' Lowercase to Small Capitals in Latin lookup 2 subtable" sc.oslash
EndChar

StartChar: thorn
Encoding: 254 254 189
Width: 548
GlyphClass: 2
Flags: W
LayerCount: 2
Fore
SplineSet
213 676 m 1,0,-1
 213 391 l 1,1,2
 235 435 235 435 263.5 454 c 128,-1,3
 292 473 292 473 337 473 c 0,4,5
 420 473 420 473 471.5 408 c 128,-1,6
 523 343 523 343 523 239 c 0,7,8
 523 128 523 128 469 57.5 c 128,-1,9
 415 -13 415 -13 331 -13 c 0,10,11
 298 -13 298 -13 273.5 -0.5 c 128,-1,12
 249 12 249 12 213 47 c 1,13,-1
 213 -94 l 2,14,15
 213 -144 213 -144 229 -163 c 128,-1,16
 245 -182 245 -182 291 -184 c 1,17,-1
 291 -205 l 1,18,-1
 18 -205 l 1,19,-1
 18 -181 l 1,20,21
 54 -175 54 -175 64 -164.5 c 128,-1,22
 74 -154 74 -154 74 -123 c 2,23,-1
 74 594 l 2,24,25
 74 624 74 624 64 634.5 c 128,-1,26
 54 645 54 645 19 652 c 1,27,-1
 19 676 l 1,28,-1
 213 676 l 1,0,-1
299 416 m 0,29,30
 267 416 267 416 240 388.5 c 128,-1,31
 213 361 213 361 213 346 c 2,32,-1
 213 103 l 1,33,34
 241 42 241 42 292 42 c 0,35,36
 375 42 375 42 375 225 c 0,37,38
 375 416 375 416 299 416 c 0,29,30
EndSplineSet
Substitution2: "'smcp' Lowercase to Small Capitals in Latin lookup 2 subtable" sc.thorn
EndChar

StartChar: Aogonek
Encoding: 260 260 195
Width: 722
GlyphClass: 2
Flags: W
AnchorPoint: "Anchor-9" 343 660 basechar 0 {} {150-150 1}
LayerCount: 2
Fore
SplineSet
735 -136 m 0,0,1
 748 -136 748 -136 759 -132.5 c 128,-1,2
 770 -129 770 -129 782 -122.5 c 128,-1,3
 794 -116 794 -116 795 -116 c 2,4,-1
 817 -130 l 1,5,6
 798 -164 798 -164 765 -184.5 c 128,-1,7
 732 -205 732 -205 694 -205 c 0,8,9
 648 -205 648 -205 618 -182 c 128,-1,10
 588 -159 588 -159 588 -124 c 0,11,12
 588 -100 588 -100 598.5 -79.5 c 128,-1,13
 609 -59 609 -59 630 -33 c 128,-1,14
 651 -7 651 -7 656 0 c 1,15,-1
 365 0 l 1,16,-1
 365 25 l 1,17,18
 386 28 386 28 397 28 c 0,19,20
 445 31 445 31 445 61 c 128,-1,21
 445 91 445 91 399 197 c 1,22,-1
 174 197 l 1,23,-1
 159 158 l 2,24,25
 130 83 130 83 130 66 c 0,26,27
 130 47 130 47 149 37.5 c 128,-1,28
 168 28 168 28 212 25 c 1,29,-1
 212 0 l 1,30,-1
 9 0 l 1,31,-1
 9 25 l 1,32,33
 45 32 45 32 61.5 52 c 128,-1,34
 78 72 78 72 107 142 c 2,35,-1
 329 690 l 1,36,-1
 357 690 l 1,37,-1
 580 164 l 2,38,39
 617 76 617 76 636.5 50.5 c 128,-1,40
 656 25 656 25 685 25 c 2,41,-1
 689 25 l 1,42,-1
 689 12 l 1,43,-1
 689 0 l 1,44,-1
 686 0 l 1,45,46
 672 -55 672 -55 672 -72 c 0,47,48
 672 -103 672 -103 688 -119.5 c 128,-1,49
 704 -136 704 -136 735 -136 c 0,0,1
189 236 m 1,50,-1
 384 236 l 1,51,-1
 283 479 l 1,52,-1
 189 236 l 1,50,-1
EndSplineSet
EndChar

StartChar: aogonek
Encoding: 261 261 196
Width: 500
GlyphClass: 2
Flags: W
AnchorPoint: "Anchor-9" 242 466 basechar 0
LayerCount: 2
Fore
SplineSet
147 404 m 0,0,1
 147 399 147 399 162 377.5 c 128,-1,2
 177 356 177 356 177 339 c 0,3,4
 177 313 177 313 158 297 c 128,-1,5
 139 281 139 281 109 281 c 0,6,7
 78 281 78 281 61 298.5 c 128,-1,8
 44 316 44 316 44 347 c 0,9,10
 44 403 44 403 96 438 c 128,-1,11
 148 473 148 473 233 473 c 0,12,13
 324 473 324 473 377.5 436 c 128,-1,14
 431 399 431 399 431 336 c 2,15,-1
 431 75 l 2,16,17
 431 50 431 50 452 50 c 0,18,19
 459 50 459 50 463 54 c 2,20,-1
 473 64 l 1,21,-1
 488 43 l 1,22,23
 464 17 464 17 437 2 c 128,-1,24
 410 -13 410 -13 393 -16.5 c 128,-1,25
 376 -20 376 -20 365 -30 c 128,-1,26
 354 -40 354 -40 354 -60 c 0,27,28
 354 -78 354 -78 373 -91 c 128,-1,29
 392 -104 392 -104 419 -104 c 0,30,31
 431 -104 431 -104 442 -100.5 c 128,-1,32
 453 -97 453 -97 465 -91 c 128,-1,33
 477 -85 477 -85 478 -84 c 1,34,-1
 500 -98 l 1,35,36
 481 -132 481 -132 448 -152.5 c 128,-1,37
 415 -173 415 -173 377 -173 c 0,38,39
 331 -173 331 -173 301 -150 c 128,-1,40
 271 -127 271 -127 271 -92 c 0,41,42
 271 -56 271 -56 317 5 c 1,43,44
 302 20 302 20 294 56 c 1,45,46
 217 -14 217 -14 136 -14 c 0,47,48
 88 -14 88 -14 56.5 16 c 128,-1,49
 25 46 25 46 25 92 c 0,50,51
 25 123 25 123 41.5 149.5 c 128,-1,52
 58 176 58 176 80 193 c 128,-1,53
 102 210 102 210 140.5 227 c 128,-1,54
 179 244 179 244 206 253 c 128,-1,55
 233 262 233 262 277 275 c 0,56,57
 288 278 288 278 294 280 c 1,58,-1
 294 353 l 2,59,60
 294 399 294 399 274 420 c 128,-1,61
 254 441 254 441 210 441 c 0,62,63
 184 441 184 441 165.5 430.5 c 128,-1,64
 147 420 147 420 147 404 c 0,0,1
293 100 m 1,65,-1
 293 245 l 1,66,67
 171 213 171 213 171 124 c 0,68,69
 171 94 171 94 185 75.5 c 128,-1,70
 199 57 199 57 222 57 c 0,71,72
 256 57 256 57 293 100 c 1,65,-1
EndSplineSet
EndChar

StartChar: dcaron
Encoding: 271 271 206
Width: 692
GlyphClass: 2
Flags: W
LayerCount: 2
Fore
SplineSet
510 471 m 1,0,-1
 591 645 l 2,1,2
 605 675 605 675 636 675 c 0,3,4
 677 675 677 675 677 635 c 0,5,6
 677 618 677 618 672.5 606.5 c 0,7,8
 668 595 668 595 652 576 c 2,9,-1
 566 471 l 1,10,-1
 510 471 l 1,0,-1
EndSplineSet
Refer: 68 100 N 1 0 0 1 0 0 2
EndChar

StartChar: dcroat
Encoding: 273 273 208
Width: 556
GlyphClass: 2
Flags: W
LayerCount: 2
Fore
SplineSet
336 545 m 1,0,-1
 244 545 l 1,1,-1
 244 589 l 1,2,-1
 336 589 l 1,3,-1
 336 594 l 2,4,5
 336 629 336 629 323 638.5 c 128,-1,6
 310 648 310 648 260 652 c 1,7,-1
 260 676 l 1,8,-1
 475 676 l 1,9,-1
 475 589 l 1,10,-1
 534 589 l 1,11,-1
 534 545 l 1,12,-1
 475 545 l 1,13,-1
 475 101 l 2,14,15
 475 69 475 69 487.5 57 c 128,-1,16
 500 45 500 45 534 43 c 1,17,-1
 534 20 l 1,18,-1
 472 12 l 1,19,20
 398 4 398 4 339 -13 c 1,21,-1
 339 52 l 1,22,23
 304 15 304 15 275 0.5 c 128,-1,24
 246 -14 246 -14 206 -14 c 0,25,26
 127 -14 127 -14 76 52.5 c 128,-1,27
 25 119 25 119 25 221 c 0,28,29
 25 330 25 330 79.5 401.5 c 128,-1,30
 134 473 134 473 217 473 c 0,31,32
 251 473 251 473 277.5 459.5 c 128,-1,33
 304 446 304 446 336 411 c 1,34,-1
 336 545 l 1,0,-1
251 42 m 0,35,36
 284 42 284 42 310 70.5 c 128,-1,37
 336 99 336 99 336 112 c 2,38,-1
 336 355 l 1,39,40
 326 383 326 383 304.5 400 c 128,-1,41
 283 417 283 417 258 417 c 0,42,43
 173 417 173 417 173 229 c 0,44,45
 173 42 173 42 251 42 c 0,35,36
EndSplineSet
EndChar

StartChar: Eogonek
Encoding: 280 280 215
Width: 669
GlyphClass: 2
Flags: W
AnchorPoint: "Anchor-9" 335 660 basechar 0 {} {150-150 1}
LayerCount: 2
Fore
SplineSet
657 -104 m 0,0,1
 670 -104 670 -104 681 -100.5 c 128,-1,2
 692 -97 692 -97 704 -90.5 c 128,-1,3
 716 -84 716 -84 717 -84 c 2,4,-1
 739 -98 l 1,5,6
 720 -132 720 -132 687 -152.5 c 128,-1,7
 654 -173 654 -173 616 -173 c 0,8,9
 570 -173 570 -173 540 -150 c 128,-1,10
 510 -127 510 -127 510 -92 c 0,11,12
 510 -71 510 -71 518.5 -52.5 c 128,-1,13
 527 -34 527 -34 553 0 c 1,14,-1
 18 0 l 1,15,-1
 18 25 l 1,16,17
 74 31 74 31 90 44 c 128,-1,18
 106 57 106 57 106 96 c 2,19,-1
 106 580 l 2,20,21
 106 618 106 618 88 633 c 128,-1,22
 70 648 70 648 18 651 c 1,23,-1
 18 676 l 1,24,-1
 595 676 l 1,25,-1
 595 475 l 1,26,-1
 570 475 l 1,27,28
 551 575 551 575 503 608.5 c 128,-1,29
 455 642 455 642 333 642 c 0,30,31
 294 642 294 642 281 632.5 c 128,-1,32
 268 623 268 623 268 595 c 2,33,-1
 268 363 l 1,34,-1
 272 363 l 2,35,36
 351 363 351 363 385 395.5 c 128,-1,37
 419 428 419 428 430 512 c 1,38,-1
 456 512 l 1,39,-1
 456 174 l 1,40,-1
 430 174 l 1,41,42
 421 261 421 261 385.5 295 c 128,-1,43
 350 329 350 329 268 329 c 1,44,-1
 268 87 l 2,45,46
 268 55 268 55 285.5 43 c 128,-1,47
 303 31 303 31 351 31 c 0,48,49
 460 31 460 31 517 75 c 128,-1,50
 574 119 574 119 615 208 c 1,51,-1
 643 208 l 1,52,-1
 609 33 l 1,53,54
 594 -37 594 -37 594 -47 c 0,55,56
 594 -73 594 -73 611.5 -88.5 c 128,-1,57
 629 -104 629 -104 657 -104 c 0,0,1
EndSplineSet
EndChar

StartChar: eogonek
Encoding: 281 281 216
Width: 444
GlyphClass: 2
Flags: W
AnchorPoint: "Anchor-9" 242 466 basechar 0
LayerCount: 2
Fore
SplineSet
362 -104 m 0,0,1
 375 -104 375 -104 386 -100.5 c 128,-1,2
 397 -97 397 -97 409 -90.5 c 128,-1,3
 421 -84 421 -84 422 -84 c 2,4,-1
 444 -98 l 1,5,6
 425 -132 425 -132 392 -152.5 c 128,-1,7
 359 -173 359 -173 321 -173 c 0,8,9
 275 -173 275 -173 245 -150 c 128,-1,10
 215 -127 215 -127 215 -92 c 0,11,12
 215 -59 215 -59 248 -13 c 1,13,14
 240 -14 240 -14 229 -14 c 0,15,16
 137 -14 137 -14 81 52.5 c 128,-1,17
 25 119 25 119 25 228 c 0,18,19
 25 338 25 338 82.5 405.5 c 128,-1,20
 140 473 140 473 234 473 c 0,21,22
 405 473 405 473 421 245 c 1,23,-1
 169 245 l 1,24,25
 170 218 170 218 173 196.5 c 128,-1,26
 176 175 176 175 183.5 147.5 c 128,-1,27
 191 120 191 120 203.5 102 c 128,-1,28
 216 84 216 84 237.5 71 c 128,-1,29
 259 58 259 58 288 58 c 0,30,31
 320 58 320 58 346 73 c 128,-1,32
 372 88 372 88 402 125 c 1,33,-1
 426 111 l 1,34,35
 397 68 397 68 369.5 41 c 128,-1,36
 342 14 342 14 328.5 7.5 c 128,-1,37
 315 1 315 1 307 -8.5 c 128,-1,38
 299 -18 299 -18 299 -37 c 0,39,40
 299 -104 299 -104 362 -104 c 0,0,1
298 297 m 1,41,42
 297 329 297 329 296 346 c 128,-1,43
 295 363 295 363 291 384.5 c 128,-1,44
 287 406 287 406 280.5 416.5 c 128,-1,45
 274 427 274 427 262.5 434.5 c 128,-1,46
 251 442 251 442 234 442 c 0,47,48
 197 442 197 442 181.5 407 c 128,-1,49
 166 372 166 372 164 282 c 1,50,-1
 298 282 l 1,51,-1
 298 297 l 1,41,42
EndSplineSet
EndChar

StartChar: Hbar
Encoding: 294 294 229
Width: 778
GlyphClass: 2
Flags: W
LayerCount: 2
Fore
SplineSet
509 96 m 2,0,-1
 509 326 l 1,1,-1
 268 326 l 1,2,-1
 268 96 l 2,3,4
 268 59 268 59 285.5 45 c 128,-1,5
 303 31 303 31 358 25 c 1,6,-1
 358 0 l 1,7,-1
 21 0 l 1,8,-1
 21 25 l 1,9,10
 73 32 73 32 89.5 45.5 c 128,-1,11
 106 59 106 59 106 96 c 2,12,-1
 106 518 l 1,13,-1
 21 518 l 1,14,-1
 21 580 l 1,15,-1
 106 580 l 1,16,17
 106 618 106 618 90 632 c 128,-1,18
 74 646 74 646 21 651 c 1,19,-1
 21 676 l 1,20,-1
 358 676 l 1,21,-1
 358 651 l 1,22,23
 303 647 303 647 285.5 632.5 c 128,-1,24
 268 618 268 618 268 580 c 1,25,-1
 509 580 l 1,26,27
 509 618 509 618 491.5 632.5 c 128,-1,28
 474 647 474 647 419 651 c 1,29,-1
 419 676 l 1,30,-1
 759 676 l 1,31,-1
 759 651 l 1,32,33
 705 647 705 647 688 632.5 c 128,-1,34
 671 618 671 618 671 580 c 1,35,-1
 759 580 l 1,36,-1
 759 518 l 1,37,-1
 671 518 l 1,38,-1
 671 96 l 2,39,40
 671 59 671 59 688 45.5 c 128,-1,41
 705 32 705 32 759 25 c 1,42,-1
 759 0 l 1,43,-1
 419 0 l 1,44,-1
 419 25 l 1,45,46
 474 31 474 31 491.5 45 c 128,-1,47
 509 59 509 59 509 96 c 2,0,-1
509 373 m 1,48,-1
 509 518 l 1,49,-1
 268 518 l 1,50,-1
 268 373 l 1,51,-1
 509 373 l 1,48,-1
EndSplineSet
EndChar

StartChar: hbar
Encoding: 295 295 230
Width: 556
GlyphClass: 2
Flags: W
LayerCount: 2
Fore
SplineSet
294 406 m 0,0,1
 266 406 266 406 237 382.5 c 128,-1,2
 208 359 208 359 208 348 c 2,3,-1
 208 81 l 2,4,5
 208 53 208 53 218.5 40.5 c 128,-1,6
 229 28 229 28 257 24 c 1,7,-1
 257 0 l 1,8,-1
 16 0 l 1,9,-1
 16 24 l 1,10,11
 50 31 50 31 59.5 42 c 128,-1,12
 69 53 69 53 69 84 c 2,13,-1
 69 525 l 1,14,-1
 13 525 l 1,15,-1
 13 587 l 1,16,-1
 69 587 l 1,17,-1
 69 594 l 2,18,19
 69 625 69 625 59.5 635 c 128,-1,20
 50 645 50 645 16 652 c 1,21,-1
 16 676 l 1,22,-1
 208 676 l 1,23,-1
 208 587 l 1,24,-1
 403 587 l 1,25,-1
 403 525 l 1,26,-1
 208 525 l 1,27,-1
 208 395 l 1,28,29
 247 438 247 438 278.5 455.5 c 128,-1,30
 310 473 310 473 350 473 c 0,31,32
 412 473 412 473 448.5 434.5 c 128,-1,33
 485 396 485 396 485 332 c 2,34,-1
 485 84 l 2,35,36
 485 53 485 53 496 39.5 c 128,-1,37
 507 26 507 26 534 24 c 1,38,-1
 534 0 l 1,39,-1
 299 0 l 1,40,-1
 299 24 l 1,41,42
 324 27 324 27 335 40 c 128,-1,43
 346 53 346 53 346 81 c 2,44,-1
 346 323 l 2,45,46
 346 406 346 406 294 406 c 0,0,1
EndSplineSet
EndChar

StartChar: Iogonek
Encoding: 302 302 237
Width: 389
GlyphClass: 2
Flags: W
AnchorPoint: "Anchor-9" 193 660 basechar 0 {} {150-150 1}
LayerCount: 2
Fore
SplineSet
423 -104 m 0,0,1
 436 -104 436 -104 447 -100.5 c 128,-1,2
 458 -97 458 -97 470 -90.5 c 128,-1,3
 482 -84 482 -84 483 -84 c 2,4,-1
 505 -98 l 1,5,6
 486 -132 486 -132 453 -152.5 c 128,-1,7
 420 -173 420 -173 382 -173 c 0,8,9
 336 -173 336 -173 306 -150 c 128,-1,10
 276 -127 276 -127 276 -92 c 0,11,12
 276 -71 276 -71 284.5 -53 c 128,-1,13
 293 -35 293 -35 319 0 c 1,14,-1
 20 0 l 1,15,-1
 20 25 l 1,16,17
 76 30 76 30 94.5 44 c 128,-1,18
 113 58 113 58 113 96 c 2,19,-1
 113 580 l 2,20,21
 113 618 113 618 93.5 632.5 c 128,-1,22
 74 647 74 647 20 651 c 1,23,-1
 20 676 l 1,24,-1
 370 676 l 1,25,-1
 370 651 l 1,26,27
 315 649 315 649 295 634 c 128,-1,28
 275 619 275 619 275 580 c 2,29,-1
 275 96 l 2,30,31
 275 57 275 57 294 43 c 128,-1,32
 313 29 313 29 370 25 c 1,33,-1
 370 0 l 1,34,35
 360 -16 360 -16 360 -40 c 0,36,37
 360 -104 360 -104 423 -104 c 0,0,1
EndSplineSet
EndChar

StartChar: iogonek
Encoding: 303 303 238
Width: 299
GlyphClass: 2
Flags: W
AnchorPoint: "Anchor-9" 146 660 basechar 0 {} {150-150 1}
LayerCount: 2
Fore
SplineSet
314 -104 m 0,0,1
 327 -104 327 -104 338 -100.5 c 128,-1,2
 349 -97 349 -97 361 -90.5 c 128,-1,3
 373 -84 373 -84 374 -84 c 2,4,-1
 396 -98 l 1,5,6
 377 -132 377 -132 344 -152.5 c 128,-1,7
 311 -173 311 -173 273 -173 c 0,8,9
 227 -173 227 -173 197 -150 c 128,-1,10
 167 -127 167 -127 167 -92 c 0,11,12
 167 -71 167 -71 175.5 -53 c 128,-1,13
 184 -35 184 -35 210 0 c 1,14,-1
 24 0 l 1,15,-1
 24 24 l 1,16,17
 58 32 58 32 67.5 42.5 c 128,-1,18
 77 53 77 53 77 84 c 2,19,-1
 77 378 l 2,20,21
 77 409 77 409 67 419.5 c 128,-1,22
 57 430 57 430 24 437 c 1,23,-1
 24 461 l 1,24,-1
 216 461 l 1,25,-1
 216 81 l 2,26,27
 216 53 216 53 226.5 40.5 c 128,-1,28
 237 28 237 28 263 24 c 1,29,-1
 263 0 l 1,30,31
 251 -13 251 -13 251 -39 c 0,32,33
 251 -104 251 -104 314 -104 c 0,0,1
146 691 m 128,-1,35
 178 691 178 691 200.5 668 c 128,-1,36
 223 645 223 645 223 613 c 0,37,38
 223 580 223 580 200.5 558 c 128,-1,39
 178 536 178 536 145 536 c 128,-1,40
 112 536 112 536 90 558 c 128,-1,41
 68 580 68 580 68 614 c 0,42,43
 68 646 68 646 91 668.5 c 128,-1,34
 114 691 114 691 146 691 c 128,-1,35
EndSplineSet
MultipleSubs2: "Multiple Substitution lookup 0 subtable" dotlessi ogonekcmb
EndChar

StartChar: dotlessi
Encoding: 305 305 240
Width: 299
GlyphClass: 2
Flags: W
AnchorPoint: "Anchor-9" 142 470 basechar 0
AnchorPoint: "Anchor-8" 202 0 basechar 0
AnchorPoint: "Anchor-7" 146 0 basechar 0
LayerCount: 2
Fore
SplineSet
216 461 m 1,0,-1
 216 81 l 2,1,2
 216 53 216 53 226.5 40.5 c 128,-1,3
 237 28 237 28 263 24 c 1,4,-1
 263 0 l 1,5,-1
 24 0 l 1,6,-1
 24 24 l 1,7,8
 58 32 58 32 67.5 42.5 c 128,-1,9
 77 53 77 53 77 84 c 2,10,-1
 77 378 l 2,11,12
 77 409 77 409 67 419.5 c 128,-1,13
 57 430 57 430 24 437 c 1,14,-1
 24 461 l 1,15,-1
 216 461 l 1,0,-1
EndSplineSet
Substitution2: "'smcp' Lowercase to Small Capitals in Latin lookup 1 subtable" sc.i
EndChar

StartChar: kgreenlandic
Encoding: 312 312 247
Width: 534
GlyphClass: 2
Flags: W
LayerCount: 2
Fore
SplineSet
491 414 m 0,0,1
 491 392 491 392 477.5 379 c 128,-1,2
 464 366 464 366 444 366 c 0,3,4
 421 366 421 366 410 381 c 128,-1,5
 399 396 399 396 389 396 c 0,6,7
 374 396 374 396 362.5 364 c 128,-1,8
 351 332 351 332 335.5 293.5 c 128,-1,9
 320 255 320 255 297 243 c 1,10,11
 321 242 321 242 345.5 231 c 128,-1,12
 370 220 370 220 383 200 c 2,13,-1
 485 39 l 2,14,15
 494 24 494 24 514 24 c 1,16,-1
 514 0 l 1,17,-1
 366 0 l 1,18,-1
 264 168 l 2,19,20
 235 214 235 214 219 214 c 2,21,-1
 209 214 l 1,22,-1
 209 84 l 2,23,24
 209 49 209 49 217.5 39 c 128,-1,25
 226 29 226 29 261 24 c 1,26,-1
 261 0 l 1,27,-1
 22 0 l 1,28,-1
 22 24 l 1,29,30
 70 28 70 28 70 84 c 2,31,-1
 70 377 l 2,32,33
 70 433 70 433 22 437 c 1,34,-1
 22 461 l 1,35,-1
 261 461 l 1,36,-1
 261 437 l 1,37,38
 226 432 226 432 217.5 422 c 128,-1,39
 209 412 209 412 209 377 c 2,40,-1
 209 261 l 1,41,-1
 230 262 l 2,42,43
 245 263 245 263 280 300.5 c 128,-1,44
 315 338 315 338 318 368 c 128,-1,45
 321 398 321 398 346 434 c 128,-1,46
 371 470 371 470 421 470 c 0,47,48
 460 470 460 470 475.5 456.5 c 128,-1,49
 491 443 491 443 491 414 c 0,0,1
EndSplineSet
EndChar

StartChar: Lcaron
Encoding: 317 317 252
Width: 668
GlyphClass: 2
Flags: W
LayerCount: 2
Fore
SplineSet
450 471 m 1,0,-1
 531 645 l 2,1,2
 545 675 545 675 576 675 c 0,3,4
 617 675 617 675 617 635 c 0,5,6
 617 618 617 618 612.5 606.5 c 0,7,8
 608 595 608 595 592 576 c 2,9,-1
 506 471 l 1,10,-1
 450 471 l 1,0,-1
EndSplineSet
Refer: 44 76 N 1 0 0 1 0 0 2
EndChar

StartChar: lcaron
Encoding: 318 318 253
Width: 433
GlyphClass: 2
Flags: W
LayerCount: 2
Fore
SplineSet
246 471 m 1,0,-1
 327 645 l 2,1,2
 341 675 341 675 372 675 c 0,3,4
 413 675 413 675 413 635 c 0,5,6
 413 618 413 618 408.5 606.5 c 0,7,8
 404 595 404 595 388 576 c 2,9,-1
 302 471 l 1,10,-1
 246 471 l 1,0,-1
EndSplineSet
Refer: 76 108 N 1 0 0 1 0 0 2
EndChar

StartChar: Lslash
Encoding: 321 321 256
Width: 667
GlyphClass: 2
Flags: W
LayerCount: 2
Fore
SplineSet
347 31 m 0,0,1
 376 31 376 31 401.5 35 c 128,-1,2
 427 39 427 39 447 45 c 128,-1,3
 467 51 467 51 485.5 62 c 128,-1,4
 504 73 504 73 516.5 82 c 128,-1,5
 529 91 529 91 542 106.5 c 128,-1,6
 555 122 555 122 562 131.5 c 128,-1,7
 569 141 569 141 578 158.5 c 128,-1,8
 587 176 587 176 590.5 183 c 128,-1,9
 594 190 594 190 601 207 c 128,-1,10
 608 224 608 224 609 227 c 1,11,-1
 638 227 l 1,12,-1
 597 0 l 1,13,-1
 19 0 l 1,14,-1
 19 25 l 1,15,16
 74 32 74 32 89.5 45 c 128,-1,17
 105 58 105 58 105 96 c 2,18,-1
 105 286 l 1,19,-1
 24 237 l 1,20,-1
 24 298 l 1,21,-1
 105 347 l 1,22,-1
 105 580 l 2,23,24
 105 618 105 618 87.5 633 c 128,-1,25
 70 648 70 648 19 651 c 1,26,-1
 19 676 l 1,27,-1
 368 676 l 1,28,-1
 368 651 l 1,29,30
 303 648 303 648 285 631.5 c 128,-1,31
 267 615 267 615 267 559 c 2,32,-1
 267 442 l 1,33,-1
 390 518 l 1,34,-1
 390 457 l 1,35,-1
 267 381 l 1,36,-1
 267 87 l 2,37,38
 267 55 267 55 284 43 c 128,-1,39
 301 31 301 31 347 31 c 0,0,1
EndSplineSet
Substitution2: "'c2sc' Capitals to Small Capitals in Latin lookup 4 subtable" sc.lslash
EndChar

StartChar: lslash
Encoding: 322 322 257
Width: 278
GlyphClass: 2
Flags: W
LayerCount: 2
Fore
SplineSet
206 400 m 1,0,-1
 206 84 l 2,1,2
 206 25 206 25 255 24 c 1,3,-1
 255 0 l 1,4,-1
 16 0 l 1,5,-1
 16 24 l 1,6,7
 67 28 67 28 67 84 c 2,8,-1
 67 311 l 1,9,-1
 -22 239 l 1,10,-1
 -22 289 l 1,11,-1
 67 361 l 1,12,-1
 67 594 l 2,13,14
 67 648 67 648 16 652 c 1,15,-1
 16 676 l 1,16,-1
 206 676 l 1,17,-1
 206 450 l 1,18,-1
 303 530 l 1,19,-1
 303 480 l 1,20,-1
 206 400 l 1,0,-1
EndSplineSet
Substitution2: "'smcp' Lowercase to Small Capitals in Latin lookup 2 subtable" sc.lslash
EndChar

StartChar: Eng
Encoding: 330 330 265
Width: 829
GlyphClass: 2
Flags: W
LayerCount: 2
Fore
SplineSet
630 278 m 0,0,1
 630 371 630 371 618 438.5 c 128,-1,2
 606 506 606 506 588.5 542 c 128,-1,3
 571 578 571 578 544 598.5 c 128,-1,4
 517 619 517 619 495.5 624 c 128,-1,5
 474 629 474 629 446 629 c 0,6,7
 391 629 391 629 358 602 c 128,-1,8
 325 575 325 575 275 494 c 1,9,-1
 275 125 l 2,10,11
 275 63 275 63 289.5 46.5 c 128,-1,12
 304 30 304 30 373 25 c 1,13,-1
 373 0 l 1,14,-1
 16 0 l 1,15,-1
 16 25 l 1,16,17
 41 27 41 27 56.5 29.5 c 128,-1,18
 72 32 72 32 83.5 38 c 128,-1,19
 95 44 95 44 100.5 49 c 128,-1,20
 106 54 106 54 109 68 c 128,-1,21
 112 82 112 82 112.5 93 c 128,-1,22
 113 104 113 104 113 128 c 2,23,-1
 113 580 l 2,24,25
 113 618 113 618 93.5 632.5 c 128,-1,26
 74 647 74 647 20 651 c 1,27,-1
 20 676 l 1,28,-1
 275 676 l 1,29,-1
 275 561 l 1,30,31
 312 630 312 630 361 662.5 c 128,-1,32
 410 695 410 695 480 695 c 0,33,34
 551 695 551 695 604.5 677 c 128,-1,35
 658 659 658 659 701 616.5 c 128,-1,36
 744 574 744 574 766.5 497.5 c 128,-1,37
 789 421 789 421 789 312 c 0,38,39
 789 231 789 231 766.5 165.5 c 128,-1,40
 744 100 744 100 709 62.5 c 128,-1,41
 674 25 674 25 634.5 5.5 c 128,-1,42
 595 -14 595 -14 556 -14 c 0,43,44
 482 -14 482 -14 432.5 22 c 128,-1,45
 383 58 383 58 383 118 c 0,46,47
 383 147 383 147 404 168.5 c 128,-1,48
 425 190 425 190 453 190 c 0,49,50
 482 190 482 190 504 167.5 c 128,-1,51
 526 145 526 145 526 115 c 0,52,53
 526 96 526 96 512.5 78.5 c 128,-1,54
 499 61 499 61 499 51 c 0,55,56
 499 37 499 37 511.5 28 c 128,-1,57
 524 19 524 19 544 19 c 0,58,59
 587 19 587 19 608.5 78 c 128,-1,60
 630 137 630 137 630 278 c 0,0,1
EndSplineSet
Substitution2: "'locl' Localized Forms in Latin lookup 16 subtable" Engsami
EndChar

StartChar: eng
Encoding: 331 331 266
Width: 556
GlyphClass: 2
Flags: W
AnchorPoint: "Anchor-18" 275 244 basechar 0
AnchorPoint: "Anchor-17" 400 473 basechar 0
AnchorPoint: "Anchor-9" 284 470 basechar 0
LayerCount: 2
Fore
SplineSet
294 -96 m 0,0,1
 294 -109 294 -109 282.5 -129 c 128,-1,2
 271 -149 271 -149 271 -155 c 0,3,4
 271 -172 271 -172 303 -172 c 0,5,6
 351 -172 351 -172 351 -96 c 2,7,-1
 351 323 l 2,8,9
 351 406 351 406 299 406 c 0,10,11
 271 406 271 406 242 382.5 c 128,-1,12
 213 359 213 359 213 348 c 2,13,-1
 213 81 l 2,14,15
 213 53 213 53 223.5 40.5 c 128,-1,16
 234 28 234 28 262 24 c 1,17,-1
 262 0 l 1,18,-1
 21 0 l 1,19,-1
 21 24 l 1,20,21
 55 31 55 31 64.5 42 c 128,-1,22
 74 53 74 53 74 84 c 2,23,-1
 74 378 l 2,24,25
 74 409 74 409 64 420.5 c 128,-1,26
 54 432 54 432 21 437 c 1,27,-1
 21 461 l 1,28,-1
 212 461 l 1,29,-1
 212 386 l 1,30,31
 267 473 267 473 355 473 c 0,32,33
 417 473 417 473 453.5 434.5 c 128,-1,34
 490 396 490 396 490 332 c 2,35,-1
 490 2 l 2,36,37
 490 -203 490 -203 313 -203 c 0,38,39
 251 -203 251 -203 212 -175 c 128,-1,40
 173 -147 173 -147 173 -103 c 0,41,42
 173 -76 173 -76 190 -59 c 128,-1,43
 207 -42 207 -42 235 -42 c 0,44,45
 259 -42 259 -42 276.5 -58 c 128,-1,46
 294 -74 294 -74 294 -96 c 0,0,1
EndSplineSet
Substitution2: "'sups' Superscript lookup 24 subtable" uni1d51
EndChar

StartChar: OE
Encoding: 338 338 273
Width: 1000
GlyphClass: 2
Flags: W
LayerCount: 2
Fore
SplineSet
700 35 m 0,0,1
 805 35 805 35 858 77.5 c 128,-1,2
 911 120 911 120 954 211 c 1,3,-1
 981 211 l 1,4,-1
 939 0 l 1,5,-1
 509 0 l 2,6,7
 450 0 450 0 408 -2.5 c 128,-1,8
 366 -5 366 -5 358 -5 c 0,9,10
 281 -5 281 -5 220 17.5 c 128,-1,11
 159 40 159 40 123 75 c 128,-1,12
 87 110 87 110 63 156.5 c 128,-1,13
 39 203 39 203 30.5 246.5 c 128,-1,14
 22 290 22 290 22 334 c 0,15,16
 22 490 22 490 117 587 c 128,-1,17
 212 684 212 684 364 684 c 0,18,19
 374 684 374 684 523 676 c 1,20,-1
 940 676 l 1,21,-1
 940 475 l 1,22,-1
 914 475 l 1,23,24
 906 521 906 521 895.5 547.5 c 128,-1,25
 885 574 885 574 861 598 c 128,-1,26
 837 622 837 622 793.5 631.5 c 128,-1,27
 750 641 750 641 682 641 c 0,28,29
 650 641 650 641 638.5 635.5 c 128,-1,30
 627 630 627 630 627 615 c 2,31,-1
 627 366 l 1,32,33
 707 368 707 368 732.5 393.5 c 128,-1,34
 758 419 758 419 778 514 c 1,35,-1
 801 514 l 1,36,-1
 801 176 l 1,37,-1
 778 176 l 1,38,39
 767 265 767 265 736.5 297 c 128,-1,40
 706 329 706 329 627 333 c 1,41,-1
 627 83 l 2,42,43
 627 54 627 54 641.5 44.5 c 128,-1,44
 656 35 656 35 700 35 c 0,0,1
366 27 m 0,45,46
 438 27 438 27 455 63.5 c 128,-1,47
 472 100 472 100 472 212 c 2,48,-1
 472 503 l 2,49,50
 472 593 472 593 454.5 622.5 c 128,-1,51
 437 652 437 652 377 652 c 0,52,53
 192 652 192 652 192 320 c 0,54,55
 192 235 192 235 204 176.5 c 128,-1,56
 216 118 216 118 240 86 c 128,-1,57
 264 54 264 54 294.5 40.5 c 128,-1,58
 325 27 325 27 366 27 c 0,45,46
EndSplineSet
EndChar

StartChar: oe
Encoding: 339 339 274
Width: 717
GlyphClass: 2
Flags: W
LayerCount: 2
Fore
SplineSet
679 125 m 1,0,-1
 699 109 l 1,1,2
 650 39 650 39 607 12.5 c 128,-1,3
 564 -14 564 -14 501 -14 c 0,4,5
 428 -14 428 -14 386 34 c 1,6,7
 330 -14 330 -14 248 -14 c 0,8,9
 149 -14 149 -14 87 53.5 c 128,-1,10
 25 121 25 121 25 229 c 0,11,12
 25 336 25 336 88.5 404.5 c 128,-1,13
 152 473 152 473 251 473 c 0,14,15
 327 473 327 473 376 424 c 1,16,17
 413 452 413 452 440 462.5 c 128,-1,18
 467 473 467 473 505 473 c 0,19,20
 552 473 552 473 587 457.5 c 128,-1,21
 622 442 622 442 641.5 420.5 c 128,-1,22
 661 399 661 399 673.5 365.5 c 128,-1,23
 686 332 686 332 690 306 c 128,-1,24
 694 280 694 280 696 245 c 1,25,-1
 447 245 l 1,26,-1
 447 225 l 2,27,28
 447 147 447 147 472 102.5 c 128,-1,29
 497 58 497 58 561 58 c 0,30,31
 596 58 596 58 620.5 72 c 128,-1,32
 645 86 645 86 679 125 c 1,0,-1
447 282 m 1,33,-1
 574 282 l 1,34,35
 572 332 572 332 572 338 c 0,36,37
 570 394 570 394 556 419 c 128,-1,38
 542 444 542 444 512 444 c 0,39,40
 447 444 447 444 447 336 c 2,41,-1
 447 282 l 1,33,-1
311 149 m 2,42,-1
 311 311 l 2,43,44
 311 383 311 383 295 413.5 c 128,-1,45
 279 444 279 444 242 444 c 0,46,47
 201 444 201 444 185.5 402 c 128,-1,48
 170 360 170 360 170 248 c 0,49,50
 170 118 170 118 186.5 67 c 128,-1,51
 203 16 203 16 245 16 c 0,52,53
 279 16 279 16 295 48 c 128,-1,54
 311 80 311 80 311 149 c 2,42,-1
EndSplineSet
EndChar

StartChar: Scedilla
Encoding: 350 350 285
Width: 556
GlyphClass: 2
Flags: W
LayerCount: 2
Fore
SplineSet
263 691 m 0,0,1
 311 691 311 691 363 674.5 c 128,-1,2
 415 658 415 658 422 658 c 0,3,4
 435 658 435 658 442 665.5 c 128,-1,5
 449 673 449 673 454 692 c 1,6,-1
 484 692 l 1,7,-1
 484 475 l 1,8,-1
 456 475 l 1,9,10
 427 570 427 570 375.5 615 c 128,-1,11
 324 660 324 660 263 660 c 0,12,13
 212 660 212 660 182.5 633 c 128,-1,14
 153 606 153 606 153 560 c 0,15,16
 153 524 153 524 174.5 500.5 c 128,-1,17
 196 477 196 477 256 447 c 2,18,-1
 403 374 l 2,19,20
 451 350 451 350 482 299 c 128,-1,21
 513 248 513 248 513 192 c 0,22,23
 513 104 513 104 452 46 c 128,-1,24
 391 -12 391 -12 284 -18 c 1,25,-1
 265 -64 l 1,26,27
 280 -59 280 -59 298 -59 c 0,28,29
 339 -59 339 -59 362.5 -77.5 c 128,-1,30
 386 -96 386 -96 386 -129 c 0,31,32
 386 -170 386 -170 351 -194 c 128,-1,33
 316 -218 316 -218 256 -218 c 0,34,35
 210 -218 210 -218 160 -200 c 1,36,-1
 176 -163 l 1,37,38
 208 -177 208 -177 235 -177 c 0,39,40
 293 -177 293 -177 293 -136 c 0,41,42
 293 -100 293 -100 247 -100 c 0,43,44
 234 -100 234 -100 219 -104 c 1,45,-1
 208 -96 l 1,46,-1
 242 -18 l 1,47,48
 198 -16 198 -16 151 -0.5 c 128,-1,49
 104 15 104 15 94 15 c 0,50,51
 72 15 72 15 64 -19 c 1,52,-1
 35 -19 l 1,53,-1
 35 228 l 1,54,-1
 64 228 l 1,55,56
 116 14 116 14 268 14 c 0,57,58
 326 14 326 14 360 45 c 128,-1,59
 394 76 394 76 394 128 c 0,60,61
 394 167 394 167 371 192 c 128,-1,62
 348 217 348 217 282 248 c 2,63,-1
 215 280 l 2,64,65
 126 323 126 323 85 372.5 c 128,-1,66
 44 422 44 422 44 488 c 0,67,68
 44 583 44 583 102.5 637 c 128,-1,69
 161 691 161 691 263 691 c 0,0,1
EndSplineSet
EndChar

StartChar: scedilla
Encoding: 351 351 286
Width: 389
GlyphClass: 2
Flags: W
LayerCount: 2
Fore
SplineSet
127 382 m 0,0,1
 127 359 127 359 144.5 340.5 c 128,-1,2
 162 322 162 322 188 311 c 128,-1,3
 214 300 214 300 244 284.5 c 128,-1,4
 274 269 274 269 300 252.5 c 128,-1,5
 326 236 326 236 343.5 206.5 c 128,-1,6
 361 177 361 177 361 138 c 0,7,8
 361 72 361 72 321 31 c 128,-1,9
 281 -10 281 -10 213 -14 c 1,10,-1
 191 -64 l 1,11,12
 206 -59 206 -59 224 -59 c 0,13,14
 265 -59 265 -59 288.5 -77.5 c 128,-1,15
 312 -96 312 -96 312 -129 c 0,16,17
 312 -170 312 -170 277 -194 c 128,-1,18
 242 -218 242 -218 182 -218 c 0,19,20
 136 -218 136 -218 86 -200 c 1,21,-1
 102 -163 l 1,22,23
 142 -177 142 -177 162 -177 c 0,24,25
 219 -177 219 -177 219 -136 c 0,26,27
 219 -100 219 -100 173 -100 c 0,28,29
 160 -100 160 -100 145 -104 c 1,30,-1
 134 -96 l 1,31,-1
 172 -11 l 1,32,33
 143 -5 143 -5 123.5 0.5 c 128,-1,34
 104 6 104 6 98.5 9 c 128,-1,35
 93 12 93 12 88 13.5 c 128,-1,36
 83 15 83 15 76 15 c 0,37,38
 65 15 65 15 50 -13 c 1,39,-1
 25 -13 l 1,40,-1
 25 152 l 1,41,-1
 53 152 l 1,42,43
 85 20 85 20 190 20 c 0,44,45
 224 20 224 20 244.5 38 c 128,-1,46
 265 56 265 56 265 85 c 0,47,48
 265 111 265 111 240.5 131 c 128,-1,49
 216 151 216 151 181 167 c 128,-1,50
 146 183 146 183 111 201.5 c 128,-1,51
 76 220 76 220 51.5 252 c 128,-1,52
 27 284 27 284 27 327 c 0,53,54
 27 390 27 390 71.5 431.5 c 128,-1,55
 116 473 116 473 184 473 c 0,56,57
 212 473 212 473 249 462 c 128,-1,58
 286 451 286 451 294 451 c 0,59,60
 310 451 310 451 318 471 c 1,61,-1
 340 471 l 1,62,-1
 340 326 l 1,63,-1
 315 326 l 1,64,65
 276 440 276 440 193 440 c 0,66,67
 165 440 165 440 146 423.5 c 128,-1,68
 127 407 127 407 127 382 c 0,0,1
EndSplineSet
EndChar

StartChar: Tcedilla
Encoding: 354 354 289
Width: 645
GlyphClass: 2
Flags: W
LayerCount: 2
Fore
SplineSet
224 -163 m 1,0,1
 266 -177 266 -177 284 -177 c 0,2,3
 342 -177 342 -177 342 -136 c 0,4,5
 342 -120 342 -120 329.5 -110 c 128,-1,6
 317 -100 317 -100 296 -100 c 0,7,8
 281 -100 281 -100 268 -104 c 1,9,-1
 256 -96 l 1,10,-1
 300 0 l 1,11,-1
 145 0 l 1,12,-1
 145 25 l 1,13,14
 209 30 209 30 225.5 45.5 c 128,-1,15
 242 61 242 61 242 117 c 2,16,-1
 242 644 l 1,17,18
 149 641 149 641 105.5 602.5 c 128,-1,19
 62 564 62 564 49 475 c 1,20,-1
 20 475 l 1,21,-1
 23 676 l 1,22,-1
 623 676 l 1,23,-1
 625 475 l 1,24,-1
 596 475 l 1,25,26
 583 564 583 564 539.5 602.5 c 128,-1,27
 496 641 496 641 404 644 c 1,28,-1
 404 117 l 2,29,30
 404 60 404 60 420.5 45 c 128,-1,31
 437 30 437 30 502 25 c 1,32,-1
 502 0 l 1,33,-1
 342 0 l 1,34,-1
 314 -64 l 1,35,36
 329 -59 329 -59 346 -59 c 0,37,38
 388 -59 388 -59 411 -77.5 c 128,-1,39
 434 -96 434 -96 434 -129 c 0,40,41
 434 -170 434 -170 399 -194 c 128,-1,42
 364 -218 364 -218 304 -218 c 0,43,44
 258 -218 258 -218 208 -200 c 1,45,-1
 224 -163 l 1,0,1
EndSplineSet
EndChar

StartChar: tcedilla
Encoding: 355 355 290
Width: 335
GlyphClass: 2
Flags: W
LayerCount: 2
Fore
SplineSet
86 -175 m 1,0,1
 132 -189 132 -189 146 -189 c 0,2,3
 203 -189 203 -189 203 -148 c 0,4,5
 203 -112 203 -112 157 -112 c 0,6,7
 144 -112 144 -112 129 -116 c 1,8,-1
 118 -108 l 1,9,-1
 162 -11 l 1,10,11
 119 -6 119 -6 94.5 22 c 128,-1,12
 70 50 70 50 70 93 c 2,13,-1
 70 417 l 1,14,-1
 18 417 l 1,15,-1
 18 444 l 1,16,17
 67 485 67 485 102.5 525 c 128,-1,18
 138 565 138 565 184 630 c 1,19,-1
 209 630 l 1,20,-1
 209 461 l 1,21,-1
 303 461 l 1,22,-1
 303 417 l 1,23,-1
 209 417 l 1,24,-1
 209 116 l 2,25,26
 209 86 209 86 218 72.5 c 128,-1,27
 227 59 227 59 248 59 c 0,28,29
 278 59 278 59 305 111 c 1,30,-1
 330 100 l 1,31,32
 303 45 303 45 273.5 19 c 128,-1,33
 244 -7 244 -7 204 -11 c 1,34,-1
 175 -76 l 1,35,36
 190 -71 190 -71 208 -71 c 0,37,38
 249 -71 249 -71 272.5 -89.5 c 128,-1,39
 296 -108 296 -108 296 -141 c 0,40,41
 296 -182 296 -182 261 -206 c 128,-1,42
 226 -230 226 -230 166 -230 c 0,43,44
 120 -230 120 -230 70 -212 c 1,45,-1
 86 -175 l 1,0,1
EndSplineSet
EndChar

StartChar: tcaron
Encoding: 357 357 292
Width: 467
GlyphClass: 2
Flags: W
LayerCount: 2
Fore
SplineSet
280 471 m 1,0,-1
 361 645 l 2,1,2
 375 675 375 675 406 675 c 0,3,4
 447 675 447 675 447 635 c 0,5,6
 447 618 447 618 442.5 606.5 c 0,7,8
 438 595 438 595 422 576 c 2,9,-1
 336 471 l 1,10,-1
 280 471 l 1,0,-1
EndSplineSet
Refer: 84 116 N 1 0 0 1 0 0 2
EndChar

StartChar: Tbar
Encoding: 358 358 293
Width: 667
GlyphClass: 2
Flags: W
LayerCount: 2
Fore
SplineSet
156 25 m 1,0,-1
 158 25 l 1,1,2
 222 30 222 30 238.5 45.5 c 128,-1,3
 255 61 255 61 255 117 c 2,4,-1
 255 326 l 1,5,-1
 170 326 l 1,6,-1
 170 398 l 1,7,-1
 254 398 l 1,8,-1
 254 644 l 1,9,10
 161 641 161 641 117.5 602.5 c 128,-1,11
 74 564 74 564 61 475 c 1,12,-1
 32 475 l 1,13,-1
 35 676 l 1,14,-1
 635 676 l 1,15,-1
 637 475 l 1,16,-1
 608 475 l 1,17,18
 595 564 595 564 551.5 602.5 c 128,-1,19
 508 641 508 641 416 644 c 1,20,-1
 416 398 l 1,21,-1
 499 398 l 1,22,-1
 499 326 l 1,23,-1
 415 326 l 1,24,-1
 415 117 l 2,25,26
 415 60 415 60 431.5 45 c 128,-1,27
 448 30 448 30 513 25 c 1,28,-1
 513 0 l 1,29,-1
 156 0 l 1,30,-1
 156 25 l 1,0,-1
EndSplineSet
EndChar

StartChar: tbar
Encoding: 359 359 294
Width: 337
GlyphClass: 2
Flags: W
LayerCount: 2
Fore
SplineSet
211 461 m 1,0,-1
 305 461 l 1,1,-1
 305 417 l 1,2,-1
 211 417 l 1,3,-1
 211 304 l 1,4,-1
 304 304 l 1,5,-1
 304 259 l 1,6,-1
 211 259 l 1,7,-1
 211 116 l 2,8,9
 211 86 211 86 220 72.5 c 128,-1,10
 229 59 229 59 250 59 c 0,11,12
 280 59 280 59 307 111 c 1,13,-1
 332 100 l 1,14,15
 301 39 301 39 267.5 13.5 c 128,-1,16
 234 -12 234 -12 184 -12 c 0,17,18
 132 -12 132 -12 102 16 c 128,-1,19
 72 44 72 44 72 93 c 2,20,-1
 72 259 l 1,21,-1
 13 259 l 1,22,-1
 13 304 l 1,23,-1
 72 304 l 1,24,-1
 72 417 l 1,25,-1
 20 417 l 1,26,-1
 20 444 l 1,27,28
 69 485 69 485 104.5 525 c 128,-1,29
 140 565 140 565 186 630 c 1,30,-1
 211 630 l 1,31,-1
 211 461 l 1,0,-1
EndSplineSet
EndChar

StartChar: Uogonek
Encoding: 370 370 305
Width: 725
GlyphClass: 2
Flags: W
AnchorPoint: "Anchor-9" 417 660 basechar 0 {} {150-150 1}
LayerCount: 2
Fore
SplineSet
616 -104 m 0,0,1
 628 -104 628 -104 638 -101 c 128,-1,2
 648 -98 648 -98 659.5 -92 c 128,-1,3
 671 -86 671 -86 676 -84 c 1,4,-1
 698 -98 l 1,5,6
 679 -132 679 -132 646 -152.5 c 128,-1,7
 613 -173 613 -173 575 -173 c 0,8,9
 528 -173 528 -173 498 -150 c 128,-1,10
 468 -127 468 -127 468 -92 c 0,11,12
 468 -69 468 -69 480 -46 c 128,-1,13
 492 -23 492 -23 526 19 c 1,14,15
 457 -19 457 -19 370 -19 c 0,16,17
 257 -19 257 -19 184 34 c 0,18,19
 138 67 138 67 120 109 c 128,-1,20
 102 151 102 151 102 225 c 2,21,-1
 102 559 l 2,22,23
 102 613 102 613 87.5 629.5 c 128,-1,24
 73 646 73 646 20 651 c 1,25,-1
 20 676 l 1,26,-1
 358 676 l 1,27,-1
 358 651 l 1,28,29
 298 649 298 649 279.5 632.5 c 128,-1,30
 261 616 261 616 261 559 c 2,31,-1
 261 225 l 2,32,33
 261 123 261 123 296 76.5 c 128,-1,34
 331 30 331 30 408 30 c 0,35,36
 497 30 497 30 540 83 c 128,-1,37
 583 136 583 136 583 247 c 2,38,-1
 583 552 l 2,39,40
 583 607 583 607 563.5 626.5 c 128,-1,41
 544 646 544 646 485 651 c 1,42,-1
 485 676 l 1,43,-1
 705 676 l 1,44,-1
 705 651 l 1,45,46
 657 644 657 644 642 627 c 128,-1,47
 627 610 627 610 627 566 c 2,48,-1
 627 247 l 2,49,50
 627 192 627 192 615.5 147.5 c 128,-1,51
 604 103 604 103 589.5 80 c 128,-1,52
 575 57 575 57 563.5 28 c 128,-1,53
 552 -1 552 -1 552 -29 c 0,54,55
 552 -104 552 -104 616 -104 c 0,0,1
EndSplineSet
EndChar

StartChar: uogonek
Encoding: 371 371 306
Width: 561
GlyphClass: 2
Flags: W
AnchorPoint: "Anchor-9" 254 466 basechar 0
LayerCount: 2
Fore
SplineSet
476 -104 m 0,0,1
 489 -104 489 -104 500 -100.5 c 128,-1,2
 511 -97 511 -97 523 -90.5 c 128,-1,3
 535 -84 535 -84 536 -84 c 2,4,-1
 558 -98 l 1,5,6
 539 -132 539 -132 506 -152.5 c 128,-1,7
 473 -173 473 -173 435 -173 c 0,8,9
 389 -173 389 -173 359 -150.5 c 128,-1,10
 329 -128 329 -128 329 -93 c 0,11,12
 329 -67 329 -67 345 -39 c 1,13,-1
 345 52 l 1,14,15
 301 14 301 14 270 0 c 128,-1,16
 239 -14 239 -14 200 -14 c 0,17,18
 138 -14 138 -14 102.5 23 c 128,-1,19
 67 60 67 60 67 126 c 2,20,-1
 67 378 l 2,21,22
 67 409 67 409 58 420 c 128,-1,23
 49 431 49 431 18 437 c 1,24,-1
 18 461 l 1,25,-1
 206 461 l 1,26,-1
 206 122 l 2,27,28
 206 84 206 84 218.5 67.5 c 128,-1,29
 231 51 231 51 262 51 c 0,30,31
 300 51 300 51 344 95 c 1,32,-1
 344 378 l 2,33,34
 344 410 344 410 331.5 422 c 128,-1,35
 319 434 319 434 282 437 c 1,36,-1
 282 461 l 1,37,-1
 483 461 l 1,38,-1
 483 101 l 2,39,40
 483 69 483 69 496 57 c 128,-1,41
 509 45 509 45 542 43 c 1,42,-1
 542 20 l 1,43,-1
 477 13 l 2,44,45
 413 6 413 6 413 -44 c 0,46,47
 413 -73 413 -73 429.5 -88.5 c 128,-1,48
 446 -104 446 -104 476 -104 c 0,0,1
EndSplineSet
EndChar

StartChar: longs
Encoding: 383 383 318
Width: 337
GlyphClass: 2
Flags: W
LayerCount: 2
Fore
SplineSet
271 584 m 0,0,1
 271 597 271 597 282 616.5 c 128,-1,2
 293 636 293 636 293 641 c 0,3,4
 293 660 293 660 264 660 c 0,5,6
 238 660 238 660 226 642 c 128,-1,7
 214 624 214 624 214 583 c 2,8,-1
 214 103 l 2,9,10
 214 54 214 54 229 39.5 c 128,-1,11
 244 25 244 25 296 24 c 1,12,-1
 296 0 l 1,13,-1
 18 0 l 1,14,-1
 18 24 l 1,15,16
 52 28 52 28 63.5 40 c 128,-1,17
 75 52 75 52 75 84 c 2,18,-1
 75 417 l 1,19,-1
 18 417 l 1,20,-1
 18 461 l 1,21,-1
 75 461 l 1,22,23
 75 505 75 505 78.5 536.5 c 128,-1,24
 82 568 82 568 92.5 599 c 128,-1,25
 103 630 103 630 122 649 c 128,-1,26
 141 668 141 668 173 679.5 c 128,-1,27
 205 691 205 691 250 691 c 0,28,29
 313 691 313 691 353 663 c 128,-1,30
 393 635 393 635 393 591 c 0,31,32
 393 563 393 563 376 546 c 128,-1,33
 359 529 359 529 331 529 c 0,34,35
 306 529 306 529 288.5 545 c 128,-1,36
 271 561 271 561 271 584 c 0,0,1
EndSplineSet
Substitution2: "'fina' Terminal Forms in Latin lookup 13 subtable" s
EndChar

StartChar: bbar
Encoding: 384 384 319
Width: 556
GlyphClass: 2
Flags: W
LayerCount: 2
Fore
SplineSet
211 360 m 1,0,-1
 211 97 l 2,1,2
 211 61 211 61 230 39.5 c 128,-1,3
 249 18 249 18 280 18 c 0,4,5
 374 18 374 18 374 221 c 0,6,7
 374 419 374 419 281 419 c 0,8,9
 234 419 234 419 211 360 c 1,0,-1
211 545 m 1,10,-1
 211 417 l 1,11,12
 264 473 264 473 333 473 c 0,13,14
 416 473 416 473 468.5 408 c 128,-1,15
 521 343 521 343 521 239 c 0,16,17
 521 127 521 127 458 56.5 c 128,-1,18
 395 -14 395 -14 295 -14 c 0,19,20
 227 -14 227 -14 163 43 c 1,21,-1
 84 -13 l 1,22,-1
 72 -13 l 1,23,-1
 72 545 l 1,24,-1
 13 545 l 1,25,-1
 13 589 l 1,26,-1
 72 589 l 1,27,-1
 72 594 l 2,28,29
 72 624 72 624 62 634.5 c 128,-1,30
 52 645 52 645 17 652 c 1,31,-1
 17 676 l 1,32,-1
 211 676 l 1,33,-1
 211 589 l 1,34,-1
 303 589 l 1,35,-1
 303 545 l 1,36,-1
 211 545 l 1,10,-1
EndSplineSet
EndChar

StartChar: Bhook
Encoding: 385 385 320
Width: 802
GlyphClass: 2
Flags: W
LayerCount: 2
Fore
SplineSet
412 597 m 2,0,-1
 412 373 l 1,1,2
 504 375 504 375 536 402.5 c 128,-1,3
 568 430 568 430 568 509 c 0,4,5
 568 580 568 580 543 613 c 128,-1,6
 518 646 518 646 466 646 c 0,7,8
 437 646 437 646 424.5 635 c 128,-1,9
 412 624 412 624 412 597 c 2,0,-1
412 343 m 1,10,-1
 412 93 l 2,11,12
 412 60 412 60 426 46 c 128,-1,13
 440 32 440 32 473 32 c 0,14,15
 595 32 595 32 595 179 c 0,16,17
 595 343 595 343 442 343 c 2,18,-1
 412 343 l 1,10,-1
574 365 m 1,19,20
 767 324 767 324 767 188 c 0,21,22
 767 103 767 103 690 51.5 c 128,-1,23
 613 0 613 0 486 0 c 2,24,-1
 164 0 l 1,25,-1
 164 25 l 1,26,27
 219 31 219 31 235.5 44.5 c 128,-1,28
 252 58 252 58 252 96 c 2,29,-1
 252 575 l 2,30,31
 252 613 252 613 234 628 c 128,-1,32
 216 643 216 643 164 646 c 1,33,-1
 147 646 l 2,34,35
 96 646 96 646 67.5 621 c 128,-1,36
 39 596 39 596 39 546 c 0,37,38
 39 527 39 527 49.5 514.5 c 128,-1,39
 60 502 60 502 74 502 c 0,40,41
 85 502 85 502 102.5 515 c 128,-1,42
 120 528 120 528 138 528 c 0,43,44
 168 528 168 528 191 506 c 128,-1,45
 214 484 214 484 214 456 c 128,-1,46
 214 428 214 428 192.5 407 c 128,-1,47
 171 386 171 386 142 386 c 0,48,49
 82 386 82 386 46 435 c 128,-1,50
 10 484 10 484 10 558 c 0,51,52
 10 676 10 676 198 676 c 2,53,-1
 473 676 l 2,54,55
 598 676 598 676 665.5 634.5 c 128,-1,56
 733 593 733 593 733 516 c 0,57,58
 733 459 733 459 697 424.5 c 128,-1,59
 661 390 661 390 574 365 c 1,19,20
EndSplineSet
EndChar

StartChar: Btopbar
Encoding: 386 386 321
Width: 659
GlyphClass: 2
Flags: W
LayerCount: 2
Fore
SplineSet
314 642 m 0,0,1
 284 642 284 642 277.5 629 c 0,2,3
 271 616 271 616 271 559 c 2,4,-1
 271 393 l 1,5,6
 373 392 373 392 412 388 c 0,7,8
 451 384 451 384 484 371 c 0,9,10
 543 348 543 348 576 299.5 c 0,11,12
 609 251 609 251 609 192 c 0,13,14
 609 104 609 104 540 52 c 0,15,16
 471 0 471 0 347 0 c 2,17,-1
 25 0 l 1,18,-1
 25 25 l 1,19,20
 77 29 77 29 93 46.5 c 0,21,22
 109 64 109 64 109 117 c 2,23,-1
 109 559 l 2,24,25
 109 579 109 579 108 592 c 0,26,27
 107 605 107 605 101.5 615 c 0,28,29
 96 625 96 625 92.5 630 c 0,30,31
 89 635 89 635 75.5 639.5 c 0,32,33
 62 644 62 644 54.5 645.5 c 0,34,35
 47 647 47 647 25 651 c 1,36,-1
 25 676 l 1,37,-1
 567 676 l 1,38,-1
 567 475 l 1,39,-1
 543 475 l 1,40,41
 525 557 525 557 496 590 c 0,42,43
 450 642 450 642 314 642 c 0,0,1
271 70 m 2,44,45
 271 35 271 35 321 35 c 0,46,47
 382 35 382 35 409.5 74.5 c 0,48,49
 437 114 437 114 437 197 c 0,50,51
 437 239 437 239 427 268.5 c 0,52,53
 417 298 417 298 404 313 c 0,54,55
 391 328 391 328 365.5 335.5 c 0,56,57
 340 343 340 343 322 344.5 c 0,58,59
 304 346 304 346 271 346 c 1,60,-1
 271 70 l 2,44,45
EndSplineSet
EndChar

StartChar: btopbar
Encoding: 387 387 322
Width: 556
GlyphClass: 2
Flags: W
LayerCount: 2
Fore
SplineSet
211 360 m 1,0,-1
 211 97 l 2,1,2
 211 61 211 61 230 39.5 c 128,-1,3
 249 18 249 18 280 18 c 0,4,5
 374 18 374 18 374 221 c 0,6,7
 374 419 374 419 281 419 c 0,8,9
 234 419 234 419 211 360 c 1,0,-1
25 676 m 1,10,-1
 211 676 l 1,11,-1
 406 676 l 1,12,-1
 413 524 l 1,13,-1
 387 524 l 1,14,15
 378 558 378 558 372 573.5 c 128,-1,16
 366 589 366 589 355 606.5 c 128,-1,17
 344 624 344 624 326.5 630 c 128,-1,18
 309 636 309 636 281.5 640 c 128,-1,19
 254 644 254 644 211 644 c 1,20,-1
 211 417 l 1,21,22
 264 473 264 473 333 473 c 0,23,24
 416 473 416 473 468.5 408 c 128,-1,25
 521 343 521 343 521 239 c 0,26,27
 521 127 521 127 458 56.5 c 128,-1,28
 395 -14 395 -14 295 -14 c 0,29,30
 227 -14 227 -14 163 43 c 1,31,-1
 84 -13 l 1,32,-1
 72 -13 l 1,33,-1
 72 594 l 2,34,35
 72 624 72 624 62 634.5 c 128,-1,36
 52 645 52 645 17 652 c 1,37,-1
 17 676 l 1,38,-1
 25 676 l 1,10,-1
EndSplineSet
EndChar

StartChar: Tonesix
Encoding: 388 388 323
Width: 667
GlyphClass: 2
Flags: W
LayerCount: 2
Fore
SplineSet
619 186 m 0,0,1
 619 134 619 134 592 96 c 128,-1,2
 565 58 565 58 521 38 c 128,-1,3
 477 18 477 18 431.5 9 c 128,-1,4
 386 0 386 0 338 0 c 2,5,-1
 16 0 l 1,6,-1
 16 25 l 1,7,8
 41 27 41 27 52.5 29.5 c 128,-1,9
 64 32 64 32 78.5 39 c 128,-1,10
 93 46 93 46 98.5 60 c 128,-1,11
 104 74 104 74 104 96 c 2,12,-1
 104 395 l 2,13,14
 104 412 104 412 87 454.5 c 128,-1,15
 70 497 70 497 70 516 c 0,16,17
 70 526 70 526 152.5 606 c 128,-1,18
 235 686 235 686 251 686 c 0,19,20
 264 686 264 686 264 670 c 2,21,-1
 264 373 l 1,22,23
 306 373 306 373 335.5 371.5 c 128,-1,24
 365 370 365 370 411.5 365 c 128,-1,25
 458 360 458 360 490.5 347.5 c 128,-1,26
 523 335 523 335 554.5 315.5 c 128,-1,27
 586 296 586 296 602.5 263 c 128,-1,28
 619 230 619 230 619 186 c 0,0,1
447 182 m 0,29,30
 447 343 447 343 294 343 c 2,31,-1
 264 343 l 1,32,-1
 264 93 l 2,33,34
 264 61 264 61 278 46.5 c 128,-1,35
 292 32 292 32 324 32 c 0,36,37
 447 32 447 32 447 182 c 0,29,30
EndSplineSet
EndChar

StartChar: tonesix
Encoding: 389 389 324
Width: 556
GlyphClass: 2
Flags: W
LayerCount: 2
Fore
SplineSet
521 241 m 0,0,1
 521 130 521 130 459.5 58 c 128,-1,2
 398 -14 398 -14 288 -14 c 0,3,4
 222 -14 222 -14 163 43 c 1,5,-1
 84 -13 l 1,6,-1
 72 -13 l 1,7,-1
 72 393 l 1,8,9
 17 503 17 503 17 515 c 0,10,11
 17 526 17 526 99.5 606 c 128,-1,12
 182 686 182 686 198 686 c 0,13,14
 211 686 211 686 211 670 c 2,15,-1
 211 417 l 1,16,17
 264 473 264 473 333 473 c 0,18,19
 423 473 423 473 472 404 c 128,-1,20
 521 335 521 335 521 241 c 0,0,1
374 226 m 0,21,22
 374 419 374 419 281 419 c 0,23,24
 234 419 234 419 211 360 c 1,25,-1
 211 97 l 2,26,27
 211 64 211 64 229 41 c 128,-1,28
 247 18 247 18 279 18 c 0,29,30
 302 18 302 18 319 28 c 128,-1,31
 336 38 336 38 346 58 c 128,-1,32
 356 78 356 78 362 97 c 128,-1,33
 368 116 368 116 370.5 144 c 128,-1,34
 373 172 373 172 373.5 187 c 128,-1,35
 374 202 374 202 374 226 c 0,21,22
EndSplineSet
EndChar

StartChar: Chook
Encoding: 391 391 326
Width: 901
GlyphClass: 2
Flags: W
LayerCount: 2
Fore
SplineSet
413 29 m 0,0,1
 479 29 479 29 533 61 c 128,-1,2
 587 93 587 93 643 152 c 1,3,-1
 673 127 l 1,4,-1
 660 112 l 2,5,6
 647 98 647 98 643.5 94.5 c 128,-1,7
 640 91 640 91 625.5 76.5 c 128,-1,8
 611 62 611 62 603 56 c 128,-1,9
 595 50 595 50 578 37.5 c 128,-1,10
 561 25 561 25 548.5 19 c 128,-1,11
 536 13 536 13 516 4.5 c 128,-1,12
 496 -4 496 -4 477.5 -8.5 c 128,-1,13
 459 -13 459 -13 436 -16 c 128,-1,14
 413 -19 413 -19 389 -19 c 0,15,16
 234 -19 234 -19 134.5 80 c 128,-1,17
 35 179 35 179 35 333 c 0,18,19
 35 486 35 486 134.5 588.5 c 128,-1,20
 234 691 234 691 383 691 c 0,21,22
 430 691 430 691 471.5 678.5 c 128,-1,23
 513 666 513 666 541 654 c 128,-1,24
 569 642 569 642 584 642 c 0,25,26
 598 642 598 642 608 652 c 128,-1,27
 618 662 618 662 628 688 c 1,28,29
 628 822 628 822 737 822 c 0,30,31
 812 822 812 822 856.5 788.5 c 128,-1,32
 901 755 901 755 901 695 c 0,33,34
 901 667 901 667 879.5 645 c 128,-1,35
 858 623 858 623 831 623 c 0,36,37
 801 623 801 623 779 646 c 128,-1,38
 757 669 757 669 757 699 c 0,39,40
 757 717 757 717 771 734.5 c 128,-1,41
 785 752 785 752 785 763 c 0,42,43
 785 777 785 777 772.5 786 c 128,-1,44
 760 795 760 795 739 795 c 0,45,46
 703 795 703 795 679 773 c 128,-1,47
 655 751 655 751 655 707 c 2,48,-1
 655 454 l 1,49,-1
 630 454 l 1,50,51
 620 476 620 476 609 495.5 c 128,-1,52
 598 515 598 515 575 547 c 128,-1,53
 552 579 552 579 528 601.5 c 128,-1,54
 504 624 504 624 468.5 641 c 128,-1,55
 433 658 433 658 396 658 c 0,56,57
 306 658 306 658 259 577 c 128,-1,58
 212 496 212 496 212 341 c 0,59,60
 212 29 212 29 413 29 c 0,0,1
EndSplineSet
EndChar

StartChar: chook
Encoding: 392 392 327
Width: 605
GlyphClass: 2
Flags: W
LayerCount: 2
Fore
SplineSet
370 477 m 0,0,1
 370 464 370 464 393 424 c 128,-1,2
 416 384 416 384 416 363 c 0,3,4
 416 334 416 334 398 317 c 128,-1,5
 380 300 380 300 348 300 c 0,6,7
 293 300 293 300 292 372 c 0,8,9
 292 414 292 414 287 423 c 0,10,11
 277 442 277 442 250 442 c 0,12,13
 211 442 211 442 188.5 397.5 c 128,-1,14
 166 353 166 353 166 276 c 0,15,16
 166 174 166 174 204.5 113.5 c 128,-1,17
 243 53 243 53 308 53 c 0,18,19
 339 53 339 53 361.5 65.5 c 128,-1,20
 384 78 384 78 412 109 c 1,21,-1
 430 91 l 1,22,23
 386 35 386 35 341.5 10.5 c 128,-1,24
 297 -14 297 -14 239 -14 c 0,25,26
 146 -14 146 -14 85.5 53 c 128,-1,27
 25 120 25 120 25 223 c 0,28,29
 25 331 25 331 92 402 c 128,-1,30
 159 473 159 473 261 473 c 0,31,32
 299 473 299 473 332 461 c 1,33,34
 332 558 332 558 366 624.5 c 128,-1,35
 400 691 400 691 454 691 c 0,36,37
 526 691 526 691 565.5 663 c 128,-1,38
 605 635 605 635 605 593 c 0,39,40
 605 564 605 564 588.5 546.5 c 128,-1,41
 572 529 572 529 545 529 c 0,42,43
 519 529 519 529 501 544 c 128,-1,44
 483 559 483 559 483 583 c 0,45,46
 483 598 483 598 494 616.5 c 128,-1,47
 505 635 505 635 505 643 c 0,48,49
 505 660 505 660 463 660 c 0,50,51
 425 660 425 660 397.5 596 c 128,-1,52
 370 532 370 532 370 477 c 0,0,1
EndSplineSet
EndChar

StartChar: Dhook
Encoding: 394 394 329
Width: 875
GlyphClass: 2
Flags: W
LayerCount: 2
Fore
SplineSet
666 330 m 0,0,1
 666 418 666 418 648 482 c 128,-1,2
 630 546 630 546 600 579 c 128,-1,3
 570 612 570 612 537.5 627 c 128,-1,4
 505 642 505 642 468 642 c 0,5,6
 409 642 409 642 409 607 c 2,7,-1
 409 93 l 2,8,9
 409 59 409 59 421 47 c 128,-1,10
 433 35 433 35 467 35 c 0,11,12
 666 35 666 35 666 330 c 0,0,1
247 91 m 2,13,-1
 247 579 l 2,14,15
 247 613 247 613 229.5 627 c 128,-1,16
 212 641 212 641 164 646 c 1,17,-1
 147 646 l 2,18,19
 96 646 96 646 67.5 621 c 128,-1,20
 39 596 39 596 39 546 c 0,21,22
 39 527 39 527 49.5 514.5 c 128,-1,23
 60 502 60 502 74 502 c 0,24,25
 85 502 85 502 102.5 515 c 128,-1,26
 120 528 120 528 138 528 c 0,27,28
 168 528 168 528 191 506 c 128,-1,29
 214 484 214 484 214 456 c 128,-1,30
 214 428 214 428 192.5 407 c 128,-1,31
 171 386 171 386 142 386 c 0,32,33
 82 386 82 386 46 434.5 c 128,-1,34
 10 483 10 483 10 558 c 0,35,36
 10 676 10 676 198 676 c 2,37,-1
 469 676 l 2,38,39
 642 676 642 676 741 588 c 128,-1,40
 840 500 840 500 840 345 c 128,-1,41
 840 190 840 190 741 95 c 128,-1,42
 642 0 642 0 480 0 c 2,43,-1
 164 0 l 1,44,-1
 164 25 l 1,45,46
 207 26 207 26 227 42 c 128,-1,47
 247 58 247 58 247 91 c 2,13,-1
EndSplineSet
EndChar

StartChar: Dtopbar
Encoding: 395 395 330
Width: 658
GlyphClass: 2
Flags: W
LayerCount: 2
Fore
SplineSet
390 334 m 2,0,1
 390 355 390 355 375 369 c 128,-1,2
 360 383 360 383 338 383 c 0,3,4
 277 383 277 383 242 332.5 c 128,-1,5
 207 282 207 282 207 199 c 0,6,7
 207 124 207 124 238.5 78 c 128,-1,8
 270 32 270 32 329 32 c 0,9,10
 362 32 362 32 376 46 c 128,-1,11
 390 60 390 60 390 93 c 2,12,-1
 390 334 l 2,0,1
324 642 m 0,13,14
 268 642 268 642 228 632.5 c 128,-1,15
 188 623 188 623 166 610.5 c 128,-1,16
 144 598 144 598 128.5 572 c 128,-1,17
 113 546 113 546 108 528.5 c 128,-1,18
 103 511 103 511 95 475 c 1,19,-1
 71 475 l 1,20,-1
 71 676 l 1,21,-1
 638 676 l 1,22,-1
 638 651 l 1,23,24
 586 648 586 648 568 633 c 128,-1,25
 550 618 550 618 550 580 c 2,26,-1
 550 96 l 2,27,28
 550 58 550 58 566.5 44.5 c 128,-1,29
 583 31 583 31 638 25 c 1,30,-1
 638 0 l 1,31,-1
 316 0 l 2,32,33
 35 0 35 0 35 213 c 0,34,35
 35 313 35 313 109.5 368 c 128,-1,36
 184 423 184 423 311 423 c 2,37,-1
 390 423 l 1,38,-1
 390 595 l 2,39,40
 390 623 390 623 376 632.5 c 128,-1,41
 362 642 362 642 324 642 c 0,13,14
EndSplineSet
EndChar

StartChar: dtopbar
Encoding: 396 396 331
Width: 554
GlyphClass: 2
Flags: W
LayerCount: 2
Fore
SplineSet
251 42 m 0,0,1
 284 42 284 42 310 70.5 c 128,-1,2
 336 99 336 99 336 112 c 2,3,-1
 336 355 l 1,4,5
 326 383 326 383 304.5 400 c 128,-1,6
 283 417 283 417 258 417 c 0,7,8
 173 417 173 417 173 229 c 0,9,10
 173 42 173 42 251 42 c 0,0,1
339 -13 m 1,11,-1
 339 52 l 1,12,13
 304 15 304 15 275 0.5 c 128,-1,14
 246 -14 246 -14 206 -14 c 0,15,16
 127 -14 127 -14 76 52.5 c 128,-1,17
 25 119 25 119 25 221 c 0,18,19
 25 330 25 330 79.5 401.5 c 128,-1,20
 134 473 134 473 217 473 c 0,21,22
 251 473 251 473 277.5 459.5 c 128,-1,23
 304 446 304 446 336 411 c 1,24,-1
 336 586 l 2,25,26
 336 621 336 621 319.5 632.5 c 128,-1,27
 303 644 303 644 260 644 c 128,-1,28
 217 644 217 644 189.5 640 c 128,-1,29
 162 636 162 636 144.5 630 c 128,-1,30
 127 624 127 624 116 606.5 c 128,-1,31
 105 589 105 589 99 573.5 c 128,-1,32
 93 558 93 558 84 524 c 1,33,-1
 58 524 l 1,34,-1
 65 676 l 1,35,-1
 260 676 l 1,36,-1
 446 676 l 1,37,-1
 475 676 l 1,38,-1
 475 101 l 2,39,40
 475 69 475 69 487.5 57 c 128,-1,41
 500 45 500 45 534 43 c 1,42,-1
 534 20 l 1,43,-1
 472 12 l 1,44,45
 398 4 398 4 339 -13 c 1,11,-1
EndSplineSet
EndChar

StartChar: deltaturn
Encoding: 397 397 332
Width: 525
GlyphClass: 2
Flags: W
LayerCount: 2
Fore
SplineSet
25 224 m 0,0,1
 25 329 25 329 90.5 401 c 0,2,3
 156 473 156 473 266 473 c 0,4,5
 363 473 363 473 431.5 411 c 0,6,7
 500 349 500 349 500 258 c 0,8,9
 500 172 500 172 446 110 c 0,10,11
 392 48 392 48 302 48 c 0,12,13
 272 48 272 48 227 61 c 1,14,-1
 225 59 l 1,15,16
 233 55 233 55 265.5 39.5 c 0,17,18
 298 24 298 24 313 16 c 0,19,20
 328 8 328 8 354.5 -9.5 c 0,21,22
 381 -27 381 -27 393.5 -41.5 c 0,23,24
 406 -56 406 -56 417 -78 c 0,25,26
 428 -100 428 -100 428 -124 c 0,27,28
 428 -173 428 -173 385.5 -201.5 c 0,29,30
 343 -230 343 -230 289 -230 c 0,31,32
 185 -230 185 -230 120 -128 c 1,33,-1
 154 -114 l 1,34,35
 168 -149 168 -149 202.5 -172.5 c 0,36,37
 237 -196 237 -196 276 -196 c 0,38,39
 338 -196 338 -196 338 -149 c 0,40,41
 338 -134 338 -134 315 -115.5 c 0,42,43
 292 -97 292 -97 257 -78 c 0,44,45
 222 -59 222 -59 181.5 -29.5 c 0,46,47
 141 0 141 0 106 33.5 c 0,48,49
 71 67 71 67 48 117 c 0,50,51
 25 167 25 167 25 224 c 0,0,1
191 290 m 2,52,-1
 191 237 l 2,53,54
 191 75 191 75 263 75 c 0,55,56
 340 75 340 75 340 221 c 2,57,-1
 340 273 l 2,58,59
 340 446 340 446 263 446 c 0,60,61
 191 446 191 446 191 290 c 2,52,-1
EndSplineSet
EndChar

StartChar: Eturn
Encoding: 398 398 333
Width: 665
GlyphClass: 2
Flags: W
LayerCount: 2
Fore
SplineSet
48 208 m 1,0,1
 89 119 89 119 146 75 c 128,-1,2
 203 31 203 31 312 31 c 0,3,4
 360 31 360 31 377.5 43 c 128,-1,5
 395 55 395 55 395 87 c 2,6,-1
 395 329 l 1,7,8
 313 329 313 329 277.5 295 c 128,-1,9
 242 261 242 261 233 174 c 1,10,-1
 207 174 l 1,11,-1
 207 512 l 1,12,-1
 233 512 l 1,13,14
 244 428 244 428 278 395.5 c 128,-1,15
 312 363 312 363 391 363 c 2,16,-1
 395 363 l 1,17,-1
 395 595 l 2,18,19
 395 623 395 623 382 632.5 c 128,-1,20
 369 642 369 642 330 642 c 0,21,22
 208 642 208 642 160 608.5 c 128,-1,23
 112 575 112 575 93 475 c 1,24,-1
 68 475 l 1,25,-1
 68 676 l 1,26,-1
 645 676 l 1,27,-1
 645 651 l 1,28,29
 593 648 593 648 575 633 c 128,-1,30
 557 618 557 618 557 580 c 2,31,-1
 557 96 l 2,32,33
 557 57 557 57 573 44 c 128,-1,34
 589 31 589 31 645 25 c 1,35,-1
 645 0 l 1,36,-1
 60 0 l 1,37,-1
 20 208 l 1,38,-1
 48 208 l 1,0,1
EndSplineSet
Substitution2: "'sups' Superscript lookup 24 subtable" uni1d32
EndChar

StartChar: Schwa
Encoding: 399 399 334
Width: 778
GlyphClass: 2
Flags: W
LayerCount: 2
Fore
SplineSet
743 336 m 0,0,1
 743 181 743 181 643.5 81 c 0,2,3
 544 -19 544 -19 389 -19 c 0,4,5
 239 -19 239 -19 140 76 c 0,6,7
 41 171 41 171 35 321 c 1,8,-1
 566 321 l 1,9,-1
 566 336 l 2,10,11
 566 392 566 392 558.5 439.5 c 0,12,13
 551 487 551 487 531.5 536.5 c 0,14,15
 512 586 512 586 471 614.5 c 0,16,17
 430 643 430 643 371 643 c 0,18,19
 246 643 246 643 135 520 c 1,20,-1
 105 545 l 1,21,22
 168 617 168 617 233 654 c 0,23,24
 298 691 298 691 384 691 c 0,25,26
 544 691 544 691 643.5 593 c 0,27,28
 743 495 743 495 743 336 c 0,0,1
565 284 m 1,29,-1
 188 284 l 1,30,31
 193 236 193 236 205.5 192.5 c 0,32,33
 218 149 218 149 240.5 107 c 0,34,35
 263 65 263 65 301.5 39.5 c 0,36,37
 340 14 340 14 389 14 c 0,38,39
 438 14 438 14 473.5 40 c 0,40,41
 509 66 509 66 527 110 c 0,42,43
 545 154 545 154 553.5 195.5 c 0,44,45
 562 237 562 237 565 284 c 1,29,-1
EndSplineSet
EndChar

StartChar: Epsilonlatin
Encoding: 400 400 335
Width: 622
GlyphClass: 2
Flags: W
AnchorPoint: "Anchor-9" 328 660 basechar 0
LayerCount: 2
Fore
SplineSet
306 691 m 0,0,1
 354 691 354 691 410.5 666.5 c 128,-1,2
 467 642 467 642 477 642 c 0,3,4
 500 642 500 642 517 688 c 1,5,-1
 545 688 l 1,6,-1
 545 454 l 1,7,-1
 519 454 l 1,8,9
 478 632 478 632 354 632 c 0,10,11
 296 632 296 632 265 600.5 c 128,-1,12
 234 569 234 569 234 516 c 0,13,14
 234 383 234 383 360 383 c 2,15,-1
 421 383 l 1,16,-1
 421 335 l 1,17,-1
 363 335 l 2,18,19
 319 335 319 335 287.5 318 c 128,-1,20
 256 301 256 301 241 275 c 128,-1,21
 226 249 226 249 219.5 225.5 c 128,-1,22
 213 202 213 202 213 181 c 0,23,24
 213 116 213 116 253 80.5 c 128,-1,25
 293 45 293 45 363 45 c 0,26,27
 422 45 422 45 474 73.5 c 128,-1,28
 526 102 526 102 559 152 c 1,29,-1
 586 128 l 1,30,31
 552 65 552 65 494.5 25.5 c 128,-1,32
 437 -14 437 -14 333 -14 c 0,33,34
 206 -14 206 -14 123 32.5 c 128,-1,35
 40 79 40 79 40 181 c 0,36,37
 40 323 40 323 163 358 c 1,38,39
 73 387 73 387 73 495 c 0,40,41
 73 583 73 583 141.5 637 c 128,-1,42
 210 691 210 691 306 691 c 0,0,1
EndSplineSet
EndChar

StartChar: Fhook
Encoding: 401 401 336
Width: 735
GlyphClass: 2
Flags: W
LayerCount: 2
Fore
SplineSet
176 -96 m 0,0,1
 102 -96 102 -96 52.5 -60 c 128,-1,2
 3 -24 3 -24 3 36 c 0,3,4
 3 65 3 65 24 86.5 c 128,-1,5
 45 108 45 108 73 108 c 0,6,7
 102 108 102 108 124 85.5 c 128,-1,8
 146 63 146 63 146 33 c 0,9,10
 146 14 146 14 132.5 -3.5 c 128,-1,11
 119 -21 119 -21 119 -31 c 0,12,13
 119 -45 119 -45 131.5 -54 c 128,-1,14
 144 -63 144 -63 164 -63 c 0,15,16
 198 -63 198 -63 213 -42.5 c 128,-1,17
 228 -22 228 -22 228 24 c 2,18,-1
 228 580 l 2,19,20
 228 619 228 619 210 633.5 c 128,-1,21
 192 648 192 648 140 651 c 1,22,-1
 140 676 l 1,23,-1
 707 676 l 1,24,-1
 707 475 l 1,25,-1
 683 475 l 1,26,27
 677 502 677 502 674 513.5 c 128,-1,28
 671 525 671 525 663 547.5 c 128,-1,29
 655 570 655 570 646 580 c 128,-1,30
 637 590 637 590 620 604.5 c 128,-1,31
 603 619 603 619 581 625.5 c 128,-1,32
 559 632 559 632 527 637 c 128,-1,33
 495 642 495 642 454 642 c 0,34,35
 416 642 416 642 403 632.5 c 128,-1,36
 390 623 390 623 390 595 c 2,37,-1
 390 363 l 1,38,39
 465 363 465 363 497 394.5 c 128,-1,40
 529 426 529 426 543 512 c 1,41,-1
 568 512 l 1,42,-1
 568 174 l 1,43,-1
 543 174 l 1,44,45
 533 261 533 261 500 294 c 128,-1,46
 467 327 467 327 390 329 c 1,47,-1
 390 123 l 2,48,49
 390 16 390 16 335.5 -40 c 128,-1,50
 281 -96 281 -96 176 -96 c 0,0,1
EndSplineSet
EndChar

StartChar: florin
Encoding: 402 402 337
Width: 383
GlyphClass: 2
Flags: W
LayerCount: 2
Fore
SplineSet
121 461 m 1,0,1
 121 505 121 505 124.5 536.5 c 128,-1,2
 128 568 128 568 138.5 599 c 128,-1,3
 149 630 149 630 168 649 c 128,-1,4
 187 668 187 668 219 679.5 c 128,-1,5
 251 691 251 691 296 691 c 0,6,7
 359 691 359 691 399 663 c 128,-1,8
 439 635 439 635 439 591 c 0,9,10
 439 563 439 563 422 546 c 128,-1,11
 405 529 405 529 377 529 c 0,12,13
 352 529 352 529 334.5 545 c 128,-1,14
 317 561 317 561 317 584 c 0,15,16
 317 597 317 597 328 616.5 c 128,-1,17
 339 636 339 636 339 641 c 0,18,19
 339 660 339 660 310 660 c 0,20,21
 284 660 284 660 272 642 c 128,-1,22
 260 624 260 624 260 583 c 2,23,-1
 260 461 l 1,24,-1
 347 461 l 1,25,-1
 347 417 l 1,26,-1
 260 417 l 1,27,-1
 260 2 l 2,28,29
 260 -203 260 -203 83 -203 c 0,30,31
 21 -203 21 -203 -18 -175 c 128,-1,32
 -57 -147 -57 -147 -57 -103 c 0,33,34
 -57 -76 -57 -76 -40 -59 c 128,-1,35
 -23 -42 -23 -42 5 -42 c 0,36,37
 29 -42 29 -42 46.5 -58 c 128,-1,38
 64 -74 64 -74 64 -96 c 0,39,40
 64 -109 64 -109 52.5 -129 c 128,-1,41
 41 -149 41 -149 41 -155 c 0,42,43
 41 -172 41 -172 73 -172 c 0,44,45
 121 -172 121 -172 121 -96 c 2,46,-1
 121 417 l 1,47,-1
 64 417 l 1,48,-1
 64 461 l 1,49,-1
 121 461 l 1,0,1
EndSplineSet
EndChar

